<?xml version="1.0" encoding="UTF-8" ?>
<!DOCTYPE svg PUBLIC "-//W3C//DTD SVG 1.1//EN" "http://www.w3.org/Graphics/SVG/1.1/DTD/svg11.dtd">
<svg width="1181pt" height="1181pt" viewBox="0 0 1181 1181" version="1.1" xmlns="http://www.w3.org/2000/svg">
<g id="#000000ff">
<path fill="#000000" opacity="1.00" d=" M 646.25 140.09 C 647.96 138.87 649.65 136.53 652.01 137.87 C 655.18 138.32 655.20 142.32 654.32 144.64 C 653.28 147.46 649.69 147.40 647.31 146.64 C 644.62 145.53 646.25 142.21 646.25 140.09 Z" />
<path fill="#000000" opacity="1.00" d=" M 527.20 148.99 C 527.14 147.08 528.71 144.54 530.90 145.48 C 533.90 146.76 537.43 148.48 538.29 151.94 C 539.38 156.35 543.04 160.08 542.21 164.91 C 539.33 163.61 536.16 162.15 534.78 159.10 C 532.97 155.22 529.91 152.21 527.20 148.99 Z" />
<path fill="#000000" opacity="1.00" d=" M 697.85 156.10 C 696.68 154.45 696.94 152.42 697.91 150.76 C 699.04 151.06 700.16 151.41 701.27 151.80 C 701.80 153.00 701.66 154.36 701.85 155.63 C 700.51 155.88 699.18 156.03 697.85 156.10 Z" />
<path fill="#000000" opacity="1.00" d=" M 544.13 174.16 C 547.64 171.61 549.52 175.84 550.69 178.49 C 552.90 182.94 552.00 188.16 550.25 192.61 C 549.17 193.17 548.43 191.77 547.61 191.34 C 543.22 188.16 541.61 182.25 542.52 177.08 C 542.70 175.96 542.91 174.62 544.13 174.16 Z" />
<path fill="#000000" opacity="1.00" d=" M 472.26 187.13 C 474.57 189.88 478.10 192.22 478.49 196.06 C 478.89 198.72 480.39 201.11 480.23 203.88 C 474.85 200.25 471.09 193.74 472.26 187.13 Z" />
<path fill="#000000" opacity="1.00" d=" M 560.86 260.00 C 566.09 251.02 571.27 241.89 577.99 233.91 C 580.83 232.90 583.36 235.69 585.95 236.52 C 586.54 236.08 587.72 235.22 588.31 234.78 C 595.67 236.59 597.98 244.52 599.31 251.04 C 597.94 253.31 596.24 255.36 594.69 257.50 C 593.14 260.14 595.39 263.32 593.89 266.02 C 587.42 270.70 579.13 270.54 571.64 269.18 C 568.45 265.66 564.38 263.15 560.86 260.00 Z" />
<path fill="#000000" opacity="1.00" d=" M 848.56 249.00 C 849.94 246.58 851.63 243.05 855.06 243.80 C 858.36 244.15 859.13 248.74 856.86 250.82 C 854.43 253.75 849.95 252.15 848.56 249.00 Z" />
<path fill="#000000" opacity="1.00" d=" M 494.85 247.12 C 497.85 246.30 499.59 248.98 501.23 250.95 C 498.51 250.90 496.09 249.55 494.85 247.12 Z" />
<path fill="#000000" opacity="1.00" d=" M 511.16 270.79 C 513.18 270.09 515.25 269.25 516.99 271.06 C 516.23 272.45 515.45 273.83 514.68 275.22 C 512.28 275.03 511.12 273.02 511.16 270.79 Z" />
<path fill="#000000" opacity="1.00" d=" M 599.93 277.79 C 600.89 277.83 601.80 278.07 602.76 278.24 C 602.84 279.79 602.95 281.35 603.18 282.90 C 601.72 282.55 600.28 282.21 598.85 281.84 C 598.87 280.41 598.41 278.66 599.93 277.79 Z" />
<path fill="#000000" opacity="1.00" d=" M 598.25 290.33 C 600.24 289.36 600.01 293.17 598.72 293.70 C 597.11 293.67 597.27 291.10 598.25 290.33 Z" />
<path fill="#000000" opacity="1.00" d=" M 616.16 294.28 C 617.40 292.40 618.28 289.48 620.93 289.25 C 624.31 289.76 622.86 293.54 622.24 295.70 C 620.20 295.25 618.18 294.73 616.16 294.28 Z" />
<path fill="#000000" opacity="1.00" d=" M 608.18 291.24 C 608.91 291.28 610.36 291.35 611.09 291.38 C 611.30 292.88 611.13 294.38 610.78 295.84 C 609.65 295.08 608.55 294.32 607.45 293.55 C 607.69 292.78 607.93 292.01 608.18 291.24 Z" />
<path fill="#000000" opacity="1.00" d=" M 579.49 296.84 C 580.88 296.25 583.06 297.55 582.73 299.18 C 582.83 300.73 581.09 301.31 579.95 301.80 C 577.69 300.97 577.30 298.00 579.49 296.84 Z" />
<path fill="#000000" opacity="1.00" d=" M 611.39 301.53 C 610.62 300.32 611.70 298.79 613.03 298.74 C 613.94 301.32 614.50 304.00 614.89 306.70 C 622.09 307.17 628.70 303.36 635.62 301.86 C 638.27 307.03 641.68 312.15 642.20 318.08 C 642.28 323.04 638.88 327.00 636.20 330.84 C 635.39 327.19 635.05 323.46 634.77 319.74 C 620.31 337.99 607.85 357.69 594.77 376.91 C 592.86 374.35 591.83 370.83 588.52 369.73 C 587.93 371.83 587.82 374.49 585.69 375.71 C 583.97 376.89 581.81 376.02 579.99 375.64 C 579.22 374.26 578.31 372.98 577.38 371.74 C 577.42 368.34 580.48 366.79 582.56 364.67 C 584.09 357.36 574.71 352.45 576.95 344.98 C 580.22 342.34 584.22 340.13 585.99 336.10 C 586.34 333.00 586.95 329.93 588.30 327.10 C 595.09 324.08 600.88 319.22 606.63 314.61 C 610.57 311.61 612.66 306.33 611.39 301.53 Z" />
<path fill="#000000" opacity="1.00" d=" M 860.55 358.63 C 862.83 357.24 868.74 359.76 866.03 362.82 C 863.64 367.01 857.63 361.54 860.55 358.63 Z" />
<path fill="#000000" opacity="1.00" d=" M 725.29 381.41 C 726.51 380.74 727.74 380.08 728.97 379.41 C 736.20 390.71 744.42 401.42 750.78 413.26 C 750.07 414.52 749.37 415.78 748.68 417.04 C 740.09 405.70 733.49 393.02 725.29 381.41 Z" />
<path fill="#000000" opacity="1.00" d=" M 422.14 410.41 C 425.73 404.53 429.54 398.80 433.68 393.29 C 433.99 393.59 434.62 394.19 434.93 394.49 C 432.71 395.39 432.98 397.95 432.49 399.88 C 432.29 403.35 428.36 404.54 426.88 407.38 C 427.45 407.75 428.58 408.48 429.15 408.85 C 428.22 412.05 424.50 410.31 422.14 410.41 Z" />
<path fill="#000000" opacity="1.00" d=" M 651.86 455.98 C 663.55 440.28 673.88 423.61 685.81 408.08 C 697.52 425.55 708.68 443.35 719.63 461.29 C 716.60 465.97 713.91 470.90 710.35 475.22 C 709.61 474.15 709.24 472.96 709.26 471.67 C 710.40 471.25 711.58 470.84 712.72 470.39 C 712.77 466.90 710.26 464.22 706.71 464.81 C 705.86 464.49 705.02 464.18 704.19 463.86 C 702.27 465.77 700.69 468.31 697.97 469.13 C 694.28 469.86 690.08 468.73 686.94 471.32 C 684.27 469.68 682.17 464.86 678.46 467.57 C 675.68 472.65 674.44 479.77 678.62 484.48 C 676.52 486.01 676.91 488.70 676.75 490.99 C 675.80 491.94 674.82 492.88 674.03 493.97 C 674.13 495.30 674.29 496.63 674.52 497.95 C 678.75 497.53 682.67 495.73 686.87 495.12 C 684.38 497.98 680.19 497.06 676.89 498.06 C 673.28 498.73 669.66 502.00 670.72 505.99 C 669.16 508.48 666.85 510.44 665.67 513.18 C 669.54 510.81 673.17 507.22 678.01 507.26 C 680.43 507.14 681.48 509.60 683.11 510.91 C 684.45 511.60 686.03 511.37 687.50 511.57 C 681.31 520.61 675.27 529.75 669.30 538.94 C 666.78 537.78 663.63 536.14 663.55 532.97 C 663.50 530.42 662.77 527.98 660.96 526.14 C 657.87 527.10 656.66 524.71 656.39 522.07 C 652.78 520.45 648.73 520.61 644.90 519.97 C 636.07 518.75 627.17 518.03 618.26 517.73 C 622.21 510.32 624.53 502.22 627.48 494.39 C 627.15 494.23 626.50 493.89 626.18 493.73 C 634.56 481.03 642.74 468.18 651.86 455.98 Z" />
<path fill="#000000" opacity="1.00" d=" M 516.01 466.71 C 517.49 462.63 518.12 457.82 521.44 454.75 C 539.24 481.17 557.27 507.43 575.14 533.79 C 571.49 533.74 567.84 533.66 564.20 533.89 C 563.12 536.15 560.21 536.90 559.05 534.24 C 556.96 535.16 551.63 536.79 552.60 532.67 C 548.09 532.89 542.75 532.36 539.36 535.98 C 540.62 539.08 538.25 541.98 536.52 544.35 C 535.01 546.59 530.86 545.84 530.70 542.98 C 530.12 537.35 532.47 531.56 530.63 526.02 C 530.13 524.30 528.41 523.49 527.12 522.46 C 523.84 524.15 520.88 526.39 517.61 528.09 C 518.73 526.14 520.47 524.70 522.43 523.64 C 520.72 519.80 522.45 514.26 518.03 511.95 C 514.17 510.23 509.67 511.32 505.69 509.83 C 505.18 511.54 505.02 513.42 503.97 514.91 C 501.39 516.68 496.05 514.82 497.32 511.08 C 497.50 508.71 500.07 508.70 501.83 508.12 C 501.37 503.59 508.01 506.00 508.52 502.04 C 508.36 499.24 506.52 496.64 507.32 493.78 C 508.28 491.72 504.85 491.93 504.97 490.08 C 506.16 488.28 508.29 487.32 509.48 485.47 C 508.20 482.31 506.03 478.00 509.28 475.25 C 512.36 473.40 515.53 471.37 516.64 467.71 C 514.62 468.28 512.08 469.57 510.33 467.70 C 509.06 466.56 510.92 465.26 511.89 464.94 C 513.50 464.82 514.81 465.77 516.01 466.71 Z" />
<path fill="#000000" opacity="1.00" d=" M 787.91 478.16 C 789.20 477.67 790.83 476.82 792.03 478.04 C 792.41 478.99 792.76 479.95 793.07 480.95 C 792.15 481.20 791.24 481.41 790.32 481.58 C 788.99 480.95 788.66 479.29 787.91 478.16 Z" />
<path fill="#000000" opacity="1.00" d=" M 694.23 496.01 C 695.42 495.69 696.61 495.83 697.68 496.47 C 697.04 496.90 695.75 497.77 695.11 498.20 C 694.89 497.65 694.45 496.55 694.23 496.01 Z" />
<path fill="#000000" opacity="1.00" d=" M 499.11 500.38 C 501.10 498.96 503.61 497.67 505.93 499.22 C 503.76 500.11 501.43 500.38 499.11 500.38 Z" />
<path fill="#000000" opacity="1.00" d=" M 488.78 504.36 C 490.98 503.06 493.51 503.12 495.95 503.56 C 494.22 505.98 490.74 507.09 488.78 504.36 Z" />
<path fill="#000000" opacity="1.00" d=" M 358.06 512.56 C 358.99 511.85 359.94 511.15 360.89 510.45 C 363.57 511.92 361.81 514.23 360.48 515.97 C 359.50 514.96 358.70 513.80 358.06 512.56 Z" />
<path fill="#000000" opacity="1.00" d=" M 278.77 522.31 C 280.31 522.71 281.74 523.39 283.12 524.18 C 283.51 524.01 284.29 523.68 284.67 523.52 C 286.58 525.21 288.61 526.76 290.48 528.50 C 292.20 530.51 293.28 532.98 294.69 535.21 C 292.74 539.65 290.43 544.10 286.91 547.52 C 283.10 544.95 277.97 546.90 274.44 543.63 C 274.12 544.02 273.49 544.79 273.18 545.18 C 273.36 544.59 273.71 543.42 273.89 542.84 C 271.33 540.03 268.81 537.09 267.53 533.45 C 264.69 532.85 261.69 534.61 259.08 532.95 C 259.17 532.40 259.33 531.31 259.41 530.76 C 264.69 529.76 269.93 528.43 275.33 528.20 C 275.57 527.14 275.80 526.09 276.04 525.05 C 276.88 525.06 278.56 525.09 279.40 525.10 C 279.25 524.40 278.93 523.01 278.77 522.31 Z" />
<path fill="#000000" opacity="1.00" d=" M 630.64 526.44 C 630.97 526.11 631.63 525.46 631.96 525.14 C 632.32 527.23 632.34 529.38 632.79 531.47 C 633.68 532.77 634.90 533.83 635.81 535.14 C 636.83 537.44 636.33 540.04 636.30 542.48 C 635.13 541.95 633.97 541.43 632.81 540.92 C 632.30 538.83 631.95 536.70 631.67 534.58 C 628.71 536.17 630.95 540.50 628.37 542.36 C 626.97 536.95 629.22 531.58 630.64 526.44 Z" />
<path fill="#000000" opacity="1.00" d=" M 652.76 531.63 C 654.24 528.28 658.80 529.30 660.87 531.48 C 658.67 532.64 656.26 533.24 653.89 533.88 C 653.42 533.16 651.92 532.60 652.76 531.63 Z" />
<path fill="#000000" opacity="1.00" d=" M 776.08 538.65 C 772.75 537.15 768.18 534.78 769.42 530.33 C 772.83 531.80 777.28 534.10 776.08 538.65 Z" />
<path fill="#000000" opacity="1.00" d=" M 428.11 535.32 C 429.32 535.52 430.53 535.75 431.73 536.02 C 430.81 536.77 429.94 537.58 429.12 538.45 C 428.77 537.40 428.43 536.36 428.11 535.32 Z" />
<path fill="#000000" opacity="1.00" d=" M 327.62 548.04 C 330.25 544.10 332.92 540.18 335.62 536.29 C 336.92 538.47 338.14 540.71 339.45 542.91 C 339.34 543.60 339.14 544.98 339.03 545.67 C 337.41 546.88 336.36 548.62 335.02 550.09 C 332.43 550.74 329.93 549.01 327.62 548.04 Z" />
<path fill="#000000" opacity="1.00" d=" M 656.56 538.53 C 657.99 537.12 660.13 537.66 661.78 538.36 C 664.15 540.14 662.87 543.64 661.90 545.90 C 658.89 547.66 656.60 551.09 652.68 550.41 C 651.74 548.80 650.39 547.19 650.91 545.21 C 653.68 543.82 654.11 540.30 656.56 538.53 Z" />
<path fill="#000000" opacity="1.00" d=" M 628.55 542.56 C 628.86 544.01 629.36 545.39 629.78 546.82 C 628.84 547.65 627.89 548.49 626.93 549.30 C 626.10 546.87 627.48 544.64 628.55 542.56 Z" />
<path fill="#000000" opacity="1.00" d=" M 590.25 563.04 C 592.39 557.60 595.28 552.34 599.44 548.18 C 603.92 554.08 599.14 561.21 599.62 567.75 C 597.34 570.92 597.29 574.97 595.70 578.44 C 594.29 582.96 595.62 588.38 592.35 592.30 C 590.64 594.54 587.02 593.49 585.65 591.40 C 584.33 589.48 585.54 587.12 585.86 585.08 C 586.87 581.88 585.81 578.23 587.69 575.29 C 589.31 573.09 588.54 570.20 589.95 567.91 C 589.45 566.29 589.51 564.57 590.25 563.04 Z" />
<path fill="#000000" opacity="1.00" d=" M 641.00 557.16 C 642.44 555.26 645.34 550.22 647.78 553.41 C 647.72 556.90 645.03 559.95 641.57 560.45 C 641.37 559.35 641.18 558.25 641.00 557.16 Z" />
<path fill="#000000" opacity="1.00" d=" M 620.60 562.98 C 620.41 559.67 621.35 556.42 622.76 553.46 C 623.54 553.49 625.10 553.54 625.89 553.56 C 628.82 559.26 628.82 566.13 625.85 571.82 C 625.72 573.19 622.23 573.80 622.85 572.08 C 624.07 568.76 620.60 566.21 620.60 562.98 Z" />
<path fill="#000000" opacity="1.00" d=" M 862.49 563.13 C 862.94 562.34 863.41 561.57 863.92 560.82 C 865.22 561.38 866.46 562.12 867.52 563.10 C 866.79 563.91 866.07 564.72 865.36 565.54 C 864.29 564.90 862.22 564.80 862.49 563.13 Z" />
<path fill="#000000" opacity="1.00" d=" M 844.42 562.55 C 845.35 560.93 846.55 563.37 847.30 563.85 C 846.67 564.86 846.05 565.87 845.44 566.88 C 843.87 566.11 842.77 563.82 844.42 562.55 Z" />
<path fill="#000000" opacity="1.00" d=" M 865.41 570.52 C 868.20 569.58 871.19 570.20 873.85 571.30 C 876.10 575.30 875.09 581.34 870.97 583.86 C 868.27 585.07 865.13 583.76 863.08 581.91 C 859.70 578.66 860.96 572.15 865.41 570.52 Z" />
<path fill="#000000" opacity="1.00" d=" M 722.74 572.26 C 725.66 572.78 728.25 574.74 730.12 576.98 C 731.07 578.65 731.76 582.69 729.02 582.81 C 724.27 581.88 722.71 576.46 722.74 572.26 Z" />
<path fill="#000000" opacity="1.00" d=" M 406.88 574.84 C 411.51 575.62 416.71 576.42 421.04 574.17 C 423.07 575.40 425.26 576.35 427.62 576.77 C 429.80 578.66 432.85 579.94 433.54 583.04 C 434.51 587.39 434.36 592.31 432.40 596.37 C 427.50 598.89 421.80 599.35 416.80 601.71 C 413.45 600.19 409.85 598.32 408.23 594.82 C 406.12 590.94 406.76 586.40 405.86 582.23 C 405.37 581.88 404.39 581.17 403.90 580.82 C 404.96 578.86 405.96 576.87 406.88 574.84 Z" />
<path fill="#000000" opacity="1.00" d=" M 801.52 576.63 C 802.15 577.85 803.46 579.18 802.44 580.63 C 802.04 582.10 800.26 580.85 799.36 580.70 C 799.52 579.08 800.37 577.74 801.52 576.63 Z" />
<path fill="#000000" opacity="1.00" d=" M 759.58 587.59 C 757.75 585.99 757.95 583.25 760.43 582.34 C 760.96 583.86 762.74 585.74 761.24 587.22 L 760.77 587.57 L 760.17 587.67 L 759.58 587.59 Z" />
<path fill="#000000" opacity="1.00" d=" M 619.18 587.18 C 620.45 586.78 622.27 588.51 621.04 589.64 C 619.38 590.92 616.54 587.90 619.18 587.18 Z" />
<path fill="#000000" opacity="1.00" d=" M 481.99 589.71 C 484.05 592.29 485.73 595.15 487.61 597.86 C 484.06 596.58 482.44 593.26 481.99 589.71 Z" />
<path fill="#000000" opacity="1.00" d=" M 764.21 593.05 C 764.30 591.30 766.67 592.40 767.77 592.22 C 767.78 593.41 767.77 594.60 767.77 595.80 C 766.46 595.33 763.59 595.07 764.21 593.05 Z" />
<path fill="#000000" opacity="1.00" d=" M 789.12 598.13 C 790.47 596.76 791.87 598.15 793.09 598.90 C 792.67 599.99 792.26 601.08 791.86 602.17 C 790.22 601.48 788.09 600.24 789.12 598.13 Z" />
<path fill="#000000" opacity="1.00" d=" M 287.19 602.41 C 288.29 598.72 292.92 598.61 296.08 598.39 C 294.34 602.21 290.09 603.88 286.11 603.56 C 286.38 603.27 286.92 602.70 287.19 602.41 Z" />
<path fill="#000000" opacity="1.00" d=" M 756.46 607.95 C 757.79 608.82 759.44 610.04 758.62 611.91 C 758.31 613.84 755.43 614.06 754.52 612.54 C 754.57 610.83 755.74 609.43 756.46 607.95 Z" />
<path fill="#000000" opacity="1.00" d=" M 866.88 628.28 C 863.67 625.90 864.10 619.72 867.87 618.05 C 869.37 617.15 871.15 617.67 872.79 617.72 C 874.13 619.87 875.44 622.03 876.77 624.20 C 875.25 627.94 870.61 630.14 866.88 628.28 Z" />
<path fill="#000000" opacity="1.00" d=" M 566.49 633.89 C 569.84 631.71 573.84 629.50 577.96 630.83 C 584.60 633.10 590.14 637.99 594.30 643.54 C 596.73 646.30 595.11 649.86 594.43 652.95 C 592.76 657.27 589.91 661.18 585.67 663.25 C 579.23 653.50 572.86 643.69 566.49 633.89 Z" />
<path fill="#000000" opacity="1.00" d=" M 671.46 638.54 C 673.07 636.38 672.17 633.57 672.18 631.12 C 677.65 637.77 683.42 645.12 683.89 654.08 C 683.04 657.63 679.75 660.27 676.02 659.53 C 670.50 659.64 666.60 655.58 664.03 651.18 C 665.93 648.26 665.88 644.57 667.69 641.63 C 668.89 640.53 670.32 639.71 671.46 638.54 Z" />
<path fill="#000000" opacity="1.00" d=" M 744.36 650.94 C 745.83 652.17 748.58 653.14 748.38 655.44 C 748.01 658.48 743.35 657.44 742.87 654.96 C 742.59 653.41 743.62 652.16 744.36 650.94 Z" />
<path fill="#000000" opacity="1.00" d=" M 354.44 676.66 C 355.79 677.38 358.79 676.77 358.82 678.91 C 359.76 681.97 356.23 686.43 353.08 684.10 C 351.39 683.46 351.77 681.49 351.52 680.09 C 352.89 679.32 353.72 678.00 354.44 676.66 Z" />
<path fill="#000000" opacity="1.00" d=" M 374.07 704.11 C 374.54 701.58 377.27 702.54 378.92 703.08 C 378.36 704.11 377.92 705.25 377.11 706.13 C 376.07 705.79 373.25 706.01 374.07 704.11 Z" />
<path fill="#000000" opacity="1.00" d=" M 690.97 710.96 C 690.93 709.48 692.17 709.34 693.31 709.17 C 693.44 710.33 693.62 711.52 693.75 712.70 C 692.79 712.15 691.86 711.57 690.97 710.96 Z" />
</g>
<g id="#ff0000ff">
<path fill="#ff0000" opacity="1.00" d=" M 460.06 98.02 C 543.18 68.85 636.60 70.47 718.74 102.23 C 786.25 128.16 845.95 174.05 888.31 232.67 C 881.36 232.95 874.39 232.41 867.48 233.21 C 821.90 174.27 757.49 130.16 686.05 109.02 C 637.22 94.54 585.30 90.61 534.84 97.51 C 454.61 108.10 378.59 147.29 323.06 206.11 C 317.09 212.13 311.64 218.63 306.15 225.08 C 299.16 224.80 292.10 225.67 285.18 224.32 C 329.49 166.38 391.11 121.83 460.06 98.02 Z" />
</g>
<g id="#ffffffff">
<path fill="#ffffff" opacity="1.00" d=" M 504.45 114.59 C 543.36 105.19 583.91 103.04 623.67 107.33 C 624.35 110.78 625.87 113.96 627.19 117.20 C 631.57 117.11 631.06 111.44 632.20 108.46 C 713.58 119.43 790.35 160.93 844.25 222.86 C 853.89 233.91 863.14 245.42 871.07 257.76 C 870.91 258.23 870.60 259.15 870.44 259.62 C 874.42 261.61 872.76 267.79 877.60 268.76 C 878.79 270.22 879.93 271.72 881.10 273.20 C 880.01 274.60 879.29 276.31 879.92 278.07 C 880.94 277.56 881.97 277.06 883.01 276.54 C 911.55 325.22 927.77 381.04 929.72 437.44 C 928.05 437.11 926.88 436.07 925.99 434.72 C 924.07 434.05 922.14 433.16 920.07 433.26 C 917.98 433.09 918.98 435.93 918.69 437.11 C 916.62 437.85 914.75 436.74 913.33 435.34 C 914.59 433.38 915.98 430.69 913.17 429.34 C 912.84 433.25 909.95 435.55 906.68 437.13 C 905.53 436.48 904.31 435.87 903.91 434.54 C 896.29 432.99 889.61 438.43 884.56 443.47 C 883.57 444.79 882.12 443.40 881.20 442.82 C 877.79 440.44 874.66 437.63 872.34 434.16 C 872.65 432.46 871.99 430.99 871.09 429.61 C 868.28 429.88 866.28 432.27 868.04 434.93 C 871.86 439.49 877.38 442.28 881.46 446.61 C 882.88 447.95 883.56 450.48 882.03 452.01 C 880.52 453.19 878.46 453.91 877.91 455.94 C 879.29 457.93 881.84 459.24 882.15 461.84 C 882.36 466.32 879.56 470.00 878.08 473.98 C 878.10 477.37 880.89 479.81 883.76 481.11 C 888.36 484.24 895.24 483.47 898.66 488.34 C 899.84 491.99 903.46 493.86 906.93 494.83 C 910.89 494.75 911.65 488.48 915.96 489.39 C 919.63 490.95 923.07 493.33 927.25 493.27 C 924.01 523.59 915.79 553.29 904.40 581.53 C 885.61 627.29 856.95 668.98 820.76 702.72 C 787.50 734.14 747.74 758.54 704.92 774.59 C 703.37 775.17 701.69 775.10 700.08 775.27 C 699.01 776.16 697.97 777.16 696.59 777.52 C 644.63 795.44 588.37 800.26 534.02 792.50 C 535.92 789.77 536.95 786.63 536.96 783.30 C 534.21 779.25 532.72 774.29 529.13 770.86 C 522.88 766.96 514.98 770.39 510.67 775.60 C 508.15 778.94 505.47 782.83 506.52 787.26 C 494.26 784.39 482.14 780.91 470.27 776.69 C 468.81 773.40 463.61 771.02 465.30 767.04 C 464.71 766.80 463.52 766.32 462.93 766.08 C 463.28 765.63 463.97 764.74 464.32 764.29 C 459.18 761.87 454.06 758.84 450.74 754.11 C 448.16 750.09 446.71 745.45 445.69 740.83 C 446.02 740.37 446.68 739.46 447.00 739.00 C 444.39 735.86 440.17 735.29 436.60 733.80 C 436.07 734.45 435.54 735.11 435.03 735.78 C 435.40 740.29 437.03 744.61 439.48 748.41 C 445.04 757.45 451.53 766.15 459.88 772.80 C 386.75 744.89 324.06 690.83 285.15 622.97 C 264.70 587.48 250.56 548.35 243.87 507.94 C 235.64 458.53 238.12 407.31 251.46 359.02 C 262.66 318.00 281.71 279.22 306.92 245.00 C 331.02 212.79 360.53 184.54 394.14 162.39 C 427.75 140.20 465.23 123.84 504.45 114.59 M 646.25 140.09 C 646.25 142.21 644.62 145.53 647.31 146.64 C 649.69 147.40 653.28 147.46 654.32 144.64 C 655.20 142.32 655.18 138.32 652.01 137.87 C 649.65 136.53 647.96 138.87 646.25 140.09 M 527.20 148.99 C 529.91 152.21 532.97 155.22 534.78 159.10 C 536.16 162.15 539.33 163.61 542.21 164.91 C 543.04 160.08 539.38 156.35 538.29 151.94 C 537.43 148.48 533.90 146.76 530.90 145.48 C 528.71 144.54 527.14 147.08 527.20 148.99 M 697.85 156.10 C 699.18 156.03 700.51 155.88 701.85 155.63 C 701.66 154.36 701.80 153.00 701.27 151.80 C 700.16 151.41 699.04 151.06 697.91 150.76 C 696.94 152.42 696.68 154.45 697.85 156.10 M 571.54 192.43 C 551.84 223.94 531.31 254.93 512.46 286.97 C 501.46 271.36 490.82 255.50 480.26 239.59 C 472.64 228.42 465.70 216.71 456.42 206.79 C 435.33 233.96 416.63 262.87 397.28 291.28 C 390.98 300.72 384.19 309.88 378.88 319.94 C 375.64 326.02 371.69 332.12 365.50 335.54 C 352.02 315.13 339.83 293.81 324.47 274.71 C 324.54 295.42 323.53 316.17 324.67 336.86 C 327.40 349.15 337.29 357.91 342.41 369.10 C 339.39 382.17 325.04 389.97 324.93 404.04 C 324.88 437.01 324.71 469.99 324.74 502.97 C 324.48 515.54 324.02 528.21 325.89 540.70 C 336.92 523.31 348.92 506.54 360.41 489.45 C 371.86 473.01 382.82 456.22 394.95 440.27 C 394.07 441.79 393.09 443.24 392.10 444.70 C 395.94 448.98 399.67 453.38 402.60 458.35 C 377.92 497.03 353.03 535.58 327.90 573.98 C 323.97 579.48 324.10 586.56 324.12 593.02 C 324.24 610.19 324.01 627.38 324.98 644.53 C 334.54 632.83 342.13 619.71 350.43 607.12 C 372.72 572.56 394.98 537.97 417.26 503.40 C 419.48 500.10 422.22 497.17 424.28 493.75 C 424.34 492.53 424.43 491.33 424.53 490.12 C 424.51 491.36 424.49 492.60 424.46 493.85 C 426.80 495.39 428.39 497.71 429.83 500.07 C 480.96 577.41 531.28 655.29 582.30 732.71 C 583.61 734.50 586.31 738.33 588.46 735.44 C 591.10 731.95 593.30 728.14 595.78 724.53 C 640.54 656.67 685.32 588.84 730.12 521.01 C 735.64 512.49 741.63 504.17 746.12 495.06 C 737.48 501.95 731.78 511.59 724.99 520.15 C 726.81 507.27 731.48 494.68 739.35 484.26 C 740.77 482.52 742.88 481.60 744.90 480.73 C 747.55 477.30 749.60 473.18 753.27 470.70 C 750.88 473.98 748.17 477.03 746.00 480.48 C 748.81 480.58 751.95 480.10 754.46 481.73 C 756.31 483.06 757.68 484.93 759.11 486.69 C 769.36 500.91 779.37 515.32 788.98 529.98 C 798.78 545.11 809.29 559.75 818.95 574.97 C 824.96 584.26 830.77 593.70 837.24 602.68 C 840.49 607.14 845.32 611.08 845.91 616.92 C 846.63 622.89 847.21 629.09 845.60 634.98 C 845.04 637.06 843.71 638.93 843.59 641.12 C 844.42 643.53 846.20 645.41 847.74 647.39 C 847.99 628.26 848.50 609.12 848.49 589.99 C 848.55 582.61 845.28 575.75 841.28 569.74 C 818.31 534.06 795.26 498.43 772.52 462.59 C 772.28 461.98 771.78 460.75 771.53 460.14 C 773.80 455.17 777.66 451.08 779.48 445.87 C 797.29 467.02 810.44 491.62 827.91 513.03 C 821.10 500.83 813.19 489.30 805.27 477.80 C 796.87 465.89 789.77 452.99 779.95 442.13 C 775.67 448.01 771.25 453.83 767.58 460.13 C 770.70 466.21 774.91 471.63 778.46 477.46 C 797.59 506.98 816.68 536.52 835.84 566.03 C 839.65 571.50 842.67 577.57 844.22 584.09 C 839.98 582.19 835.91 579.76 832.76 576.31 C 829.23 572.34 826.82 567.55 823.95 563.11 C 805.20 532.81 786.49 502.48 768.00 472.01 C 764.96 466.38 761.01 460.63 760.95 454.01 C 762.55 446.20 767.44 439.50 772.62 433.63 C 775.07 430.54 779.38 430.23 782.96 431.07 C 786.89 432.50 788.80 436.51 791.36 439.52 C 807.99 460.35 822.03 483.04 837.19 504.91 C 839.86 509.04 843.31 512.89 844.51 517.78 C 845.96 522.78 845.57 528.02 845.62 533.16 C 842.67 531.43 839.81 529.59 836.86 527.88 C 840.01 532.64 843.58 537.11 846.74 541.87 C 848.80 510.29 847.91 478.61 848.13 446.98 C 847.90 432.05 849.01 417.04 847.26 402.17 C 845.60 389.43 833.59 381.74 829.66 369.96 C 834.09 360.62 841.55 353.07 845.58 343.53 C 847.68 338.65 847.99 333.27 847.88 328.03 C 848.08 310.67 848.76 293.21 846.45 275.94 C 832.73 295.39 820.47 315.84 806.55 335.16 C 798.11 326.78 792.02 316.47 785.24 306.78 C 762.35 273.07 739.22 239.52 715.82 206.16 C 709.89 215.13 704.06 224.16 697.96 233.00 C 686.12 250.73 673.26 267.79 662.45 286.18 C 657.82 282.59 655.08 277.13 651.42 272.62 C 629.70 238.91 608.32 204.99 586.80 171.16 C 581.01 177.72 576.14 185.01 571.54 192.43 M 544.13 174.16 C 542.91 174.62 542.70 175.96 542.52 177.08 C 541.61 182.25 543.22 188.16 547.61 191.34 C 548.43 191.77 549.17 193.17 550.25 192.61 C 552.00 188.16 552.90 182.94 550.69 178.49 C 549.52 175.84 547.64 171.61 544.13 174.16 M 472.26 187.13 C 471.09 193.74 474.85 200.25 480.23 203.88 C 480.39 201.11 478.89 198.72 478.49 196.06 C 478.10 192.22 474.57 189.88 472.26 187.13 M 848.56 249.00 C 849.95 252.15 854.43 253.75 856.86 250.82 C 859.13 248.74 858.36 244.15 855.06 243.80 C 851.63 243.05 849.94 246.58 848.56 249.00 M 494.85 247.12 C 496.09 249.55 498.51 250.90 501.23 250.95 C 499.59 248.98 497.85 246.30 494.85 247.12 M 511.16 270.79 C 511.12 273.02 512.28 275.03 514.68 275.22 C 515.45 273.83 516.23 272.45 516.99 271.06 C 515.25 269.25 513.18 270.09 511.16 270.79 M 860.55 358.63 C 857.63 361.54 863.64 367.01 866.03 362.82 C 868.74 359.76 862.83 357.24 860.55 358.63 M 787.91 478.16 C 788.66 479.29 788.99 480.95 790.32 481.58 C 791.24 481.41 792.15 481.20 793.07 480.95 C 792.76 479.95 792.41 478.99 792.03 478.04 C 790.83 476.82 789.20 477.67 787.91 478.16 M 358.06 512.56 C 358.70 513.80 359.50 514.96 360.48 515.97 C 361.81 514.23 363.57 511.92 360.89 510.45 C 359.94 511.15 358.99 511.85 358.06 512.56 M 278.77 522.31 C 278.93 523.01 279.25 524.40 279.40 525.10 C 278.56 525.09 276.88 525.06 276.04 525.05 C 275.80 526.09 275.57 527.14 275.33 528.20 C 269.93 528.43 264.69 529.76 259.41 530.76 C 259.33 531.31 259.17 532.40 259.08 532.95 C 261.69 534.61 264.69 532.85 267.53 533.45 C 268.81 537.09 271.33 540.03 273.89 542.84 C 273.71 543.42 273.36 544.59 273.18 545.18 C 273.49 544.79 274.12 544.02 274.44 543.63 C 277.97 546.90 283.10 544.95 286.91 547.52 C 290.43 544.10 292.74 539.65 294.69 535.21 C 293.28 532.98 292.20 530.51 290.48 528.50 C 288.61 526.76 286.58 525.21 284.67 523.52 C 284.29 523.68 283.51 524.01 283.12 524.18 C 281.74 523.39 280.31 522.71 278.77 522.31 M 776.08 538.65 C 777.28 534.10 772.83 531.80 769.42 530.33 C 768.18 534.78 772.75 537.15 776.08 538.65 M 404.10 533.42 C 402.58 536.46 407.39 533.52 404.10 533.42 M 428.11 535.32 C 428.43 536.36 428.77 537.40 429.12 538.45 C 429.94 537.58 430.81 536.77 431.73 536.02 C 430.53 535.75 429.32 535.52 428.11 535.32 M 327.62 548.04 C 329.93 549.01 332.43 550.74 335.02 550.09 C 336.36 548.62 337.41 546.88 339.03 545.67 C 339.14 544.98 339.34 543.60 339.45 542.91 C 338.14 540.71 336.92 538.47 335.62 536.29 C 332.92 540.18 330.25 544.10 327.62 548.04 M 862.49 563.13 C 862.22 564.80 864.29 564.90 865.36 565.54 C 866.07 564.72 866.79 563.91 867.52 563.10 C 866.46 562.12 865.22 561.38 863.92 560.82 C 863.41 561.57 862.94 562.34 862.49 563.13 M 844.42 562.55 C 842.77 563.82 843.87 566.11 845.44 566.88 C 846.05 565.87 846.67 564.86 847.30 563.85 C 846.55 563.37 845.35 560.93 844.42 562.55 M 865.41 570.52 C 860.96 572.15 859.70 578.66 863.08 581.91 C 865.13 583.76 868.27 585.07 870.97 583.86 C 875.09 581.34 876.10 575.30 873.85 571.30 C 871.19 570.20 868.20 569.58 865.41 570.52 M 722.74 572.26 C 722.71 576.46 724.27 581.88 729.02 582.81 C 731.76 582.69 731.07 578.65 730.12 576.98 C 728.25 574.74 725.66 572.78 722.74 572.26 M 406.88 574.84 C 405.96 576.87 404.96 578.86 403.90 580.82 C 404.39 581.17 405.37 581.88 405.86 582.23 C 406.76 586.40 406.12 590.94 408.23 594.82 C 409.85 598.32 413.45 600.19 416.80 601.71 C 421.80 599.35 427.50 598.89 432.40 596.37 C 434.36 592.31 434.51 587.39 433.54 583.04 C 432.85 579.94 429.80 578.66 427.62 576.77 C 425.26 576.35 423.07 575.40 421.04 574.17 C 416.71 576.42 411.51 575.62 406.88 574.84 M 801.52 576.63 C 800.37 577.74 799.52 579.08 799.36 580.70 C 800.26 580.85 802.04 582.10 802.44 580.63 C 803.46 579.18 802.15 577.85 801.52 576.63 M 759.58 587.59 L 760.17 587.67 L 760.77 587.57 L 761.24 587.22 C 762.74 585.74 760.96 583.86 760.43 582.34 C 757.95 583.25 757.75 585.99 759.58 587.59 M 481.99 589.71 C 482.44 593.26 484.06 596.58 487.61 597.86 C 485.73 595.15 484.05 592.29 481.99 589.71 M 764.21 593.05 C 763.59 595.07 766.46 595.33 767.77 595.80 C 767.77 594.60 767.78 593.41 767.77 592.22 C 766.67 592.40 764.30 591.30 764.21 593.05 M 789.12 598.13 C 788.09 600.24 790.22 601.48 791.86 602.17 C 792.26 601.08 792.67 599.99 793.09 598.90 C 791.87 598.15 790.47 596.76 789.12 598.13 M 287.19 602.41 C 286.92 602.70 286.38 603.27 286.11 603.56 C 290.09 603.88 294.34 602.21 296.08 598.39 C 292.92 598.61 288.29 598.72 287.19 602.41 M 756.46 607.95 C 755.74 609.43 754.57 610.83 754.52 612.54 C 755.43 614.06 758.31 613.84 758.62 611.91 C 759.44 610.04 757.79 608.82 756.46 607.95 M 866.88 628.28 C 870.61 630.14 875.25 627.94 876.77 624.20 C 875.44 622.03 874.13 619.87 872.79 617.72 C 871.15 617.67 869.37 617.15 867.87 618.05 C 864.10 619.72 863.67 625.90 866.88 628.28 M 671.46 638.54 C 670.32 639.71 668.89 640.53 667.69 641.63 C 665.88 644.57 665.93 648.26 664.03 651.18 C 666.60 655.58 670.50 659.64 676.02 659.53 C 679.75 660.27 683.04 657.63 683.89 654.08 C 683.42 645.12 677.65 637.77 672.18 631.12 C 672.17 633.57 673.07 636.38 671.46 638.54 M 744.36 650.94 C 743.62 652.16 742.59 653.41 742.87 654.96 C 743.35 657.44 748.01 658.48 748.38 655.44 C 748.58 653.14 745.83 652.17 744.36 650.94 M 354.44 676.66 C 353.72 678.00 352.89 679.32 351.52 680.09 C 351.77 681.49 351.39 683.46 353.08 684.10 C 356.23 686.43 359.76 681.97 358.82 678.91 C 358.79 676.77 355.79 677.38 354.44 676.66 M 374.07 704.11 C 373.25 706.01 376.07 705.79 377.11 706.13 C 377.92 705.25 378.36 704.11 378.92 703.08 C 377.27 702.54 374.54 701.58 374.07 704.11 M 690.97 710.96 C 691.86 711.57 692.79 712.15 693.75 712.70 C 693.62 711.52 693.44 710.33 693.31 709.17 C 692.17 709.34 690.93 709.48 690.97 710.96 Z" />
<path fill="#ffffff" opacity="1.00" d=" M 575.69 227.72 C 579.60 222.68 587.41 221.82 592.54 225.47 C 596.42 228.59 599.52 232.61 602.27 236.74 C 611.70 251.36 620.73 266.23 630.04 280.93 C 635.00 289.37 640.56 297.50 644.52 306.48 C 645.46 306.95 646.40 307.44 647.35 307.94 C 646.53 307.82 644.90 307.57 644.08 307.44 C 645.88 311.98 647.70 317.11 645.95 321.96 C 643.61 328.72 638.57 334.09 633.40 338.84 C 633.20 338.81 632.79 338.75 632.59 338.72 C 632.06 336.10 631.89 333.43 631.50 330.80 C 619.83 345.68 609.76 361.72 599.24 377.41 C 595.59 383.18 591.29 388.51 586.44 393.30 C 571.00 375.05 558.61 354.53 544.96 334.96 C 542.33 330.00 537.44 325.82 536.92 320.01 C 542.42 307.72 552.21 297.71 557.08 285.06 C 549.15 293.34 543.22 303.22 536.65 312.53 C 534.27 315.53 530.57 316.92 527.28 318.62 C 529.58 301.84 538.56 287.17 547.01 272.86 C 556.34 257.68 564.29 241.52 575.69 227.72 M 560.86 260.00 C 564.38 263.15 568.45 265.66 571.64 269.18 C 579.13 270.54 587.42 270.70 593.89 266.02 C 595.39 263.32 593.14 260.14 594.69 257.50 C 596.24 255.36 597.94 253.31 599.31 251.04 C 597.98 244.52 595.67 236.59 588.31 234.78 C 587.72 235.22 586.54 236.08 585.95 236.52 C 583.36 235.69 580.83 232.90 577.99 233.91 C 571.27 241.89 566.09 251.02 560.86 260.00 M 599.93 277.79 C 598.41 278.66 598.87 280.41 598.85 281.84 C 600.28 282.21 601.72 282.55 603.18 282.90 C 602.95 281.35 602.84 279.79 602.76 278.24 C 601.80 278.07 600.89 277.83 599.93 277.79 M 598.25 290.33 C 597.27 291.10 597.11 293.67 598.72 293.70 C 600.01 293.17 600.24 289.36 598.25 290.33 M 616.16 294.28 C 618.18 294.73 620.20 295.25 622.24 295.70 C 622.86 293.54 624.31 289.76 620.93 289.25 C 618.28 289.48 617.40 292.40 616.16 294.28 M 608.18 291.24 C 607.93 292.01 607.69 292.78 607.45 293.55 C 608.55 294.32 609.65 295.08 610.78 295.84 C 611.13 294.38 611.30 292.88 611.09 291.38 C 610.36 291.35 608.91 291.28 608.18 291.24 M 579.49 296.84 C 577.30 298.00 577.69 300.97 579.95 301.80 C 581.09 301.31 582.83 300.73 582.73 299.18 C 583.06 297.55 580.88 296.25 579.49 296.84 M 611.39 301.53 C 612.66 306.33 610.57 311.61 606.63 314.61 C 600.88 319.22 595.09 324.08 588.30 327.10 C 586.95 329.93 586.34 333.00 585.99 336.10 C 584.22 340.13 580.22 342.34 576.95 344.98 C 574.71 352.45 584.09 357.36 582.56 364.67 C 580.48 366.79 577.42 368.34 577.38 371.74 C 578.31 372.98 579.22 374.26 579.99 375.64 C 581.81 376.02 583.97 376.89 585.69 375.71 C 587.82 374.49 587.93 371.83 588.52 369.73 C 591.83 370.83 592.86 374.35 594.77 376.91 C 607.85 357.69 620.31 337.99 634.77 319.74 C 635.05 323.46 635.39 327.19 636.20 330.84 C 638.88 327.00 642.28 323.04 642.20 318.08 C 641.68 312.15 638.27 307.03 635.62 301.86 C 628.70 303.36 622.09 307.17 614.89 306.70 C 614.50 304.00 613.94 301.32 613.03 298.74 C 611.70 298.79 610.62 300.32 611.39 301.53 Z" />
<path fill="#ffffff" opacity="1.00" d=" M 453.35 226.29 C 457.75 227.34 462.05 229.40 464.75 233.16 C 476.86 248.73 488.86 264.40 500.96 279.98 C 502.46 281.89 503.97 283.81 505.23 285.91 C 497.74 282.00 492.30 275.30 487.23 268.73 C 476.33 254.27 464.98 240.17 453.35 226.29 Z" />
<path fill="#ffffff" opacity="1.00" d=" M 329.94 305.88 C 326.84 299.37 326.15 292.01 326.58 284.89 C 329.19 292.46 330.93 300.38 334.50 307.60 C 336.64 311.89 340.43 314.95 343.64 318.40 C 349.78 324.56 355.70 330.98 360.76 338.08 C 353.62 335.15 348.52 329.13 343.49 323.53 C 338.60 317.96 333.06 312.73 329.94 305.88 Z" />
<path fill="#ffffff" opacity="1.00" d=" M 827.01 346.97 C 831.71 340.09 837.79 333.64 845.78 330.73 C 845.75 334.56 845.49 338.45 844.06 342.05 C 839.99 352.45 831.65 360.36 826.82 370.37 C 832.23 382.98 844.37 392.51 845.52 406.91 C 840.94 405.03 836.88 401.93 833.94 397.94 C 829.17 391.47 825.70 384.19 821.98 377.10 C 819.64 371.99 817.05 366.17 818.74 360.48 C 820.55 355.47 824.03 351.32 827.01 346.97 Z" />
<path fill="#ffffff" opacity="1.00" d=" M 327.60 331.79 C 337.31 336.08 341.10 347.34 341.36 357.22 C 333.46 351.26 326.58 342.22 327.60 331.79 Z" />
<path fill="#ffffff" opacity="1.00" d=" M 696.92 358.02 C 697.17 346.70 706.67 336.84 717.78 335.45 C 722.59 338.78 727.14 342.62 730.48 347.47 C 741.42 362.97 752.22 378.57 762.48 394.53 C 765.51 399.47 769.02 405.01 767.63 411.10 C 765.96 419.96 758.41 425.96 751.25 430.59 C 753.31 425.57 755.70 420.69 757.69 415.64 C 759.46 411.30 757.04 406.83 754.75 403.21 C 749.88 395.78 744.78 388.51 739.84 381.13 C 731.94 370.95 724.92 360.12 716.80 350.10 C 712.64 353.89 708.87 358.13 706.19 363.10 C 706.20 364.63 707.08 365.96 707.76 367.29 C 716.94 383.75 727.90 399.11 738.00 414.99 C 741.33 420.39 744.33 426.03 746.28 432.09 C 741.91 429.89 738.20 426.49 735.52 422.42 C 728.99 412.64 722.69 402.71 716.12 392.95 C 711.62 387.62 708.17 381.52 704.22 375.79 C 700.68 370.46 696.31 364.81 696.92 358.02 Z" />
<path fill="#ffffff" opacity="1.00" d=" M 441.42 372.49 C 446.38 365.61 451.24 358.57 457.42 352.70 C 459.45 356.49 461.26 360.39 462.82 364.41 C 453.85 378.84 444.36 392.94 435.24 407.28 C 431.84 412.51 428.00 417.44 423.96 422.19 C 427.23 426.53 430.54 430.87 433.05 435.71 C 437.74 442.29 441.84 449.25 445.94 456.19 C 442.65 451.76 440.07 446.85 437.15 442.18 L 436.07 443.51 C 436.20 442.96 436.48 441.88 436.61 441.34 C 434.19 438.15 432.08 434.73 430.16 431.22 L 429.08 432.52 C 429.22 431.97 429.50 430.85 429.64 430.30 C 424.91 423.82 419.98 417.51 415.32 410.99 C 419.13 404.67 422.81 398.23 427.36 392.39 C 429.07 390.13 431.08 387.98 431.97 385.22 C 434.93 380.84 438.33 376.78 441.42 372.49 M 422.14 410.41 C 424.50 410.31 428.22 412.05 429.15 408.85 C 428.58 408.48 427.45 407.75 426.88 407.38 C 428.36 404.54 432.29 403.35 432.49 399.88 C 432.98 397.95 432.71 395.39 434.93 394.49 C 434.62 394.19 433.99 393.59 433.68 393.29 C 429.54 398.80 425.73 404.53 422.14 410.41 Z" />
<path fill="#ffffff" opacity="1.00" d=" M 711.15 366.93 C 708.96 361.55 712.92 356.76 716.40 353.11 C 727.69 367.52 737.71 382.85 747.99 397.98 C 751.03 402.55 753.87 407.26 756.25 412.21 C 754.95 416.42 751.50 419.77 748.64 423.09 C 739.77 413.65 733.95 401.96 726.77 391.29 C 721.89 382.96 714.90 375.91 711.15 366.93 M 725.29 381.41 C 733.49 393.02 740.09 405.70 748.68 417.04 C 749.37 415.78 750.07 414.52 750.78 413.26 C 744.42 401.42 736.20 390.71 728.97 379.41 C 727.74 380.08 726.51 380.74 725.29 381.41 Z" />
<path fill="#ffffff" opacity="1.00" d=" M 681.16 385.19 C 682.81 383.38 685.65 383.32 687.71 384.44 C 692.97 387.00 695.78 392.39 699.23 396.82 C 709.60 412.46 719.82 428.21 730.15 443.88 C 733.53 448.63 733.69 454.62 733.11 460.21 C 731.62 458.90 730.17 457.58 728.69 456.29 C 727.60 457.48 726.51 458.68 725.46 459.92 C 720.60 450.77 714.69 442.21 709.42 433.29 C 704.56 425.66 699.76 417.97 694.53 410.57 C 691.64 406.78 689.02 402.72 687.15 398.34 C 687.79 397.83 689.09 396.79 689.74 396.27 C 688.92 395.18 688.10 394.08 687.29 393.00 C 682.62 396.63 677.83 400.11 673.27 403.88 C 674.47 397.25 675.93 389.91 681.16 385.19 M 691.08 398.40 C 690.24 399.37 691.57 401.32 692.78 400.78 C 693.55 399.80 692.28 397.87 691.08 398.40 M 692.69 401.58 C 694.73 405.47 696.79 409.57 700.07 412.58 C 698.24 408.60 696.37 404.19 692.69 401.58 M 699.71 412.55 C 701.61 416.52 703.82 420.59 707.26 423.44 C 705.22 419.55 703.30 415.25 699.71 412.55 M 706.66 423.58 C 708.90 427.39 710.73 431.77 714.31 434.52 C 712.27 430.60 710.46 426.12 706.66 423.58 M 714.28 435.30 C 713.76 436.67 715.24 438.88 716.76 438.71 C 717.38 437.34 715.80 434.96 714.28 435.30 M 718.26 441.27 C 718.77 441.76 718.77 441.76 718.26 441.27 M 720.24 444.24 C 720.76 444.71 720.76 444.71 720.24 444.24 M 726.25 453.26 C 726.71 453.79 726.71 453.79 726.25 453.26 Z" />
<path fill="#ffffff" opacity="1.00" d=" M 486.20 395.75 C 493.46 403.04 498.91 411.83 504.80 420.20 C 512.16 431.12 519.88 441.81 526.90 452.96 C 543.98 477.97 561.08 502.97 578.15 528.00 C 580.90 532.24 584.38 535.97 586.94 540.35 C 595.38 527.44 604.81 515.26 613.34 502.42 C 622.66 488.72 631.91 474.97 641.26 461.29 C 649.56 449.58 658.34 438.19 666.01 426.06 C 670.41 421.26 672.95 415.13 677.28 410.27 C 680.05 406.41 683.22 402.86 686.18 399.14 C 689.92 404.92 694.22 410.31 697.98 416.08 C 706.91 429.61 715.31 443.49 723.76 457.32 C 725.52 459.39 723.93 461.74 722.76 463.63 C 711.67 480.91 700.85 498.37 689.35 515.39 C 655.12 566.83 621.42 618.63 587.85 670.51 C 586.04 669.17 584.15 667.86 582.88 665.99 C 540.31 601.22 497.71 536.46 455.49 471.45 C 452.52 466.75 449.36 462.16 446.52 457.38 C 455.42 444.33 463.06 430.39 472.37 417.60 C 476.54 410.05 481.64 403.07 486.20 395.75 M 651.86 455.98 C 642.74 468.18 634.56 481.03 626.18 493.73 C 626.50 493.89 627.15 494.23 627.48 494.39 C 624.53 502.22 622.21 510.32 618.26 517.73 C 627.17 518.03 636.07 518.75 644.90 519.97 C 648.73 520.61 652.78 520.45 656.39 522.07 C 656.66 524.71 657.87 527.10 660.96 526.14 C 662.77 527.98 663.50 530.42 663.55 532.97 C 663.63 536.14 666.78 537.78 669.30 538.94 C 675.27 529.75 681.31 520.61 687.50 511.57 C 686.03 511.37 684.45 511.60 683.11 510.91 C 681.48 509.60 680.43 507.14 678.01 507.26 C 673.17 507.22 669.54 510.81 665.67 513.18 C 666.85 510.44 669.16 508.48 670.72 505.99 C 669.66 502.00 673.28 498.73 676.89 498.06 C 680.19 497.06 684.38 497.98 686.87 495.12 C 682.67 495.73 678.75 497.53 674.52 497.95 C 674.29 496.63 674.13 495.30 674.03 493.97 C 674.82 492.88 675.80 491.94 676.75 490.99 C 676.91 488.70 676.52 486.01 678.62 484.48 C 674.44 479.77 675.68 472.65 678.46 467.57 C 682.17 464.86 684.27 469.68 686.94 471.32 C 690.08 468.73 694.28 469.86 697.97 469.13 C 700.69 468.31 702.27 465.77 704.19 463.86 C 705.02 464.18 705.86 464.49 706.71 464.81 C 710.26 464.22 712.77 466.90 712.72 470.39 C 711.58 470.84 710.40 471.25 709.26 471.67 C 709.24 472.96 709.61 474.15 710.35 475.22 C 713.91 470.90 716.60 465.97 719.63 461.29 C 708.68 443.35 697.52 425.55 685.81 408.08 C 673.88 423.61 663.55 440.28 651.86 455.98 M 516.01 466.71 C 514.81 465.77 513.50 464.82 511.89 464.94 C 510.92 465.26 509.06 466.56 510.33 467.70 C 512.08 469.57 514.62 468.28 516.64 467.71 C 515.53 471.37 512.36 473.40 509.28 475.25 C 506.03 478.00 508.20 482.31 509.48 485.47 C 508.29 487.32 506.16 488.28 504.97 490.08 C 504.85 491.93 508.28 491.72 507.32 493.78 C 506.52 496.64 508.36 499.24 508.52 502.04 C 508.01 506.00 501.37 503.59 501.83 508.12 C 500.07 508.70 497.50 508.71 497.32 511.08 C 496.05 514.82 501.39 516.68 503.97 514.91 C 505.02 513.42 505.18 511.54 505.69 509.83 C 509.67 511.32 514.17 510.23 518.03 511.95 C 522.45 514.26 520.72 519.80 522.43 523.64 C 520.47 524.70 518.73 526.14 517.61 528.09 C 520.88 526.39 523.84 524.15 527.12 522.46 C 528.41 523.49 530.13 524.30 530.63 526.02 C 532.47 531.56 530.12 537.35 530.70 542.98 C 530.86 545.84 535.01 546.59 536.52 544.35 C 538.25 541.98 540.62 539.08 539.36 535.98 C 542.75 532.36 548.09 532.89 552.60 532.67 C 551.63 536.79 556.96 535.16 559.05 534.24 C 560.21 536.90 563.12 536.15 564.20 533.89 C 567.84 533.66 571.49 533.74 575.14 533.79 C 557.27 507.43 539.24 481.17 521.44 454.75 C 518.12 457.82 517.49 462.63 516.01 466.71 M 694.23 496.01 C 694.45 496.55 694.89 497.65 695.11 498.20 C 695.75 497.77 697.04 496.90 697.68 496.47 C 696.61 495.83 695.42 495.69 694.23 496.01 M 499.11 500.38 C 501.43 500.38 503.76 500.11 505.93 499.22 C 503.61 497.67 501.10 498.96 499.11 500.38 M 488.78 504.36 C 490.74 507.09 494.22 505.98 495.95 503.56 C 493.51 503.12 490.98 503.06 488.78 504.36 M 630.64 526.44 C 629.22 531.58 626.97 536.95 628.37 542.36 C 630.95 540.50 628.71 536.17 631.67 534.58 C 631.95 536.70 632.30 538.83 632.81 540.92 C 633.97 541.43 635.13 541.95 636.30 542.48 C 636.33 540.04 636.83 537.44 635.81 535.14 C 634.90 533.83 633.68 532.77 632.79 531.47 C 632.34 529.38 632.32 527.23 631.96 525.14 C 631.63 525.46 630.97 526.11 630.64 526.44 M 652.76 531.63 C 651.92 532.60 653.42 533.16 653.89 533.88 C 656.26 533.24 658.67 532.64 660.87 531.48 C 658.80 529.30 654.24 528.28 652.76 531.63 M 656.56 538.53 C 654.11 540.30 653.68 543.82 650.91 545.21 C 650.39 547.19 651.74 548.80 652.68 550.41 C 656.60 551.09 658.89 547.66 661.90 545.90 C 662.87 543.64 664.15 540.14 661.78 538.36 C 660.13 537.66 657.99 537.12 656.56 538.53 M 628.55 542.56 C 627.48 544.64 626.10 546.87 626.93 549.30 C 627.89 548.49 628.84 547.65 629.78 546.82 C 629.36 545.39 628.86 544.01 628.55 542.56 M 590.25 563.04 C 589.51 564.57 589.45 566.29 589.95 567.91 C 588.54 570.20 589.31 573.09 587.69 575.29 C 585.81 578.23 586.87 581.88 585.86 585.08 C 585.54 587.12 584.33 589.48 585.65 591.40 C 587.02 593.49 590.64 594.54 592.35 592.30 C 595.62 588.38 594.29 582.96 595.70 578.44 C 597.29 574.97 597.34 570.92 599.62 567.75 C 599.14 561.21 603.92 554.08 599.44 548.18 C 595.28 552.34 592.39 557.60 590.25 563.04 M 625.08 550.47 C 623.58 553.49 628.39 550.57 625.08 550.47 M 641.00 557.16 C 641.18 558.25 641.37 559.35 641.57 560.45 C 645.03 559.95 647.72 556.90 647.78 553.41 C 645.34 550.22 642.44 555.26 641.00 557.16 M 620.60 562.98 C 620.60 566.21 624.07 568.76 622.85 572.08 C 622.23 573.80 625.72 573.19 625.85 571.82 C 628.82 566.13 628.82 559.26 625.89 553.56 C 625.10 553.54 623.54 553.49 622.76 553.46 C 621.35 556.42 620.41 559.67 620.60 562.98 M 619.18 587.18 C 616.54 587.90 619.38 590.92 621.04 589.64 C 622.27 588.51 620.45 586.78 619.18 587.18 M 566.49 633.89 C 572.86 643.69 579.23 653.50 585.67 663.25 C 589.91 661.18 592.76 657.27 594.43 652.95 C 595.11 649.86 596.73 646.30 594.30 643.54 C 590.14 637.99 584.60 633.10 577.96 630.83 C 573.84 629.50 569.84 631.71 566.49 633.89 Z" />
<path fill="#ffffff" opacity="1.00" d=" M 399.12 434.72 C 404.19 427.00 409.31 419.24 414.92 411.91 C 409.78 419.59 404.60 427.27 399.12 434.72 Z" />
<path fill="#ffffff" opacity="1.00" d=" M 757.07 466.82 C 757.95 464.84 759.03 462.86 760.98 461.73 C 759.84 463.55 758.50 465.23 757.07 466.82 Z" />
<path fill="#ffffff" opacity="1.00" d=" M 372.01 902.94 C 379.09 897.15 388.34 895.18 397.24 894.45 C 397.25 902.57 397.26 910.70 397.24 918.82 C 392.66 919.72 389.66 923.66 388.54 927.98 C 385.79 937.74 385.84 948.04 386.26 958.09 C 386.77 964.67 387.32 971.59 390.71 977.42 C 392.06 979.88 394.76 980.94 397.24 981.89 C 397.26 989.95 397.25 998.00 397.25 1006.06 C 384.54 1005.60 371.32 1000.39 364.28 989.31 C 365.34 985.74 365.89 982.06 366.15 978.35 C 363.54 978.02 362.23 975.85 361.18 973.73 C 360.41 971.80 358.33 971.18 356.67 970.30 C 354.62 958.65 354.49 946.68 355.93 934.96 C 357.44 922.95 362.12 910.50 372.01 902.94 Z" />
<path fill="#ffffff" opacity="1.00" d=" M 403.24 918.77 C 403.28 910.67 403.21 902.57 403.28 894.47 C 413.51 895.12 424.08 898.06 431.49 905.52 C 442.40 916.25 445.19 932.32 445.47 947.02 C 445.75 962.78 444.26 980.11 433.70 992.69 C 426.32 1001.58 414.74 1005.46 403.51 1006.06 C 403.53 1004.84 403.55 1003.63 403.59 1002.45 C 406.46 1000.59 405.77 996.81 406.13 993.91 C 405.13 994.76 404.16 995.65 403.20 996.56 C 403.32 991.64 403.19 986.73 403.29 981.83 C 409.54 980.33 412.18 973.70 413.08 967.98 C 414.96 956.61 414.91 944.92 413.26 933.53 C 412.43 927.50 409.87 920.35 403.24 918.77 Z" />
<path fill="#ffffff" opacity="1.00" d=" M 869.07 896.23 C 872.71 895.20 876.49 894.87 880.24 894.45 C 880.25 902.57 880.25 910.68 880.25 918.80 C 874.25 919.94 871.62 926.02 870.65 931.41 C 868.52 942.79 868.59 954.55 870.08 966.02 C 870.99 972.38 873.05 980.11 880.14 981.98 C 881.20 984.65 877.64 984.88 876.13 986.05 C 874.35 986.65 873.96 988.57 873.33 990.10 C 869.30 990.24 867.31 984.92 863.05 986.37 C 858.88 988.58 856.10 992.60 852.80 995.85 C 849.25 992.36 846.04 988.39 844.20 983.73 C 842.17 977.48 841.99 970.79 840.25 964.49 C 837.57 961.26 838.24 956.96 838.02 953.08 C 837.87 940.16 838.77 926.63 844.97 915.01 C 849.78 905.67 858.77 898.50 869.07 896.23 Z" />
<path fill="#ffffff" opacity="1.00" d=" M 886.24 918.77 C 886.28 910.67 886.21 902.57 886.28 894.47 C 896.98 895.10 908.05 898.42 915.50 906.54 C 926.05 917.85 928.43 934.11 928.47 948.99 C 926.18 951.51 926.21 955.06 927.25 958.14 C 928.64 961.69 927.51 965.50 927.02 969.13 C 924.36 970.04 921.54 970.30 918.96 969.04 C 915.01 969.80 912.50 974.53 908.02 974.13 C 902.73 974.56 901.39 967.23 896.19 967.43 C 897.95 955.70 898.00 943.62 895.95 931.93 C 895.08 926.36 892.22 920.18 886.24 918.77 Z" />
<path fill="#ffffff" opacity="1.00" d=" M 256.50 897.75 C 266.08 897.75 275.67 897.75 285.25 897.75 C 285.22 932.76 285.31 967.76 285.21 1002.77 C 275.62 1002.68 266.04 1002.85 256.45 1002.68 C 256.56 967.70 256.47 932.73 256.50 897.75 Z" />
<path fill="#ffffff" opacity="1.00" d=" M 291.37 920.75 C 291.42 913.07 291.29 905.39 291.44 897.72 C 304.78 898.05 319.18 896.96 331.23 903.74 C 339.34 908.26 341.81 918.39 341.01 927.04 C 340.91 934.90 336.90 943.03 329.59 946.49 C 328.83 947.08 327.40 947.15 327.17 948.24 C 331.25 949.60 335.46 951.35 338.17 954.87 C 341.89 959.69 342.87 966.03 342.91 971.97 C 343.16 974.17 341.69 975.94 340.94 977.89 C 339.45 981.21 339.80 984.92 339.67 988.46 C 337.00 994.66 330.81 998.60 324.51 1000.39 C 313.76 1003.54 302.42 1002.57 291.37 1002.75 C 291.36 994.85 291.42 986.95 291.34 979.05 C 295.93 978.89 300.53 979.14 305.12 978.92 C 308.41 978.76 312.01 976.73 312.56 973.23 C 313.32 968.95 313.09 963.21 308.83 960.82 C 303.32 958.48 297.17 959.86 291.38 959.51 C 291.37 953.25 291.37 947.00 291.38 940.74 C 296.86 940.48 302.79 941.63 307.88 939.08 C 311.10 936.89 311.58 932.61 311.30 929.04 C 311.26 925.78 309.42 922.21 306.05 921.40 C 301.26 920.17 296.25 920.96 291.37 920.75 Z" />
<path fill="#ffffff" opacity="1.00" d=" M 448.67 897.76 C 459.49 897.73 470.32 897.75 481.15 897.75 C 500.51 932.76 520.05 967.66 539.27 1002.75 C 528.04 1002.75 516.81 1002.76 505.58 1002.74 C 491.45 976.54 477.21 950.39 463.01 924.23 C 469.59 929.94 477.72 933.56 486.16 935.54 C 482.92 933.29 479.25 931.38 477.05 927.99 C 473.81 922.93 468.85 919.41 464.22 915.74 C 461.61 913.63 458.30 912.62 455.70 910.57 C 453.19 906.39 451.03 902.01 448.67 897.76 Z" />
<path fill="#ffffff" opacity="1.00" d=" M 501.80 905.23 C 503.13 902.72 504.49 900.23 505.85 897.75 C 516.71 897.75 527.56 897.74 538.41 897.75 C 530.12 912.94 521.74 928.09 513.51 943.33 C 508.55 934.81 504.00 926.05 499.10 917.49 C 502.10 920.11 506.55 919.56 509.76 917.60 C 512.03 913.53 510.80 908.33 507.10 905.56 C 505.32 905.66 503.55 905.50 501.80 905.23 Z" />
<path fill="#ffffff" opacity="1.00" d=" M 607.60 897.75 C 617.75 897.75 627.89 897.74 638.04 897.75 C 647.50 930.49 657.11 963.20 666.47 995.97 C 665.31 998.20 664.21 1000.46 663.15 1002.75 C 656.28 1002.72 649.42 1002.81 642.56 1002.69 C 640.97 1000.48 638.77 998.88 636.66 997.23 C 635.51 994.96 635.07 992.39 634.30 989.99 C 627.23 990.00 620.16 990.02 613.09 989.97 C 614.57 985.01 616.21 980.09 617.41 975.06 C 617.16 977.47 619.13 978.09 621.16 978.17 C 620.26 975.77 617.55 973.59 618.69 970.87 C 621.89 969.97 625.40 970.72 628.73 970.52 C 621.70 946.26 614.65 922.00 607.60 897.75 Z" />
<path fill="#ffffff" opacity="1.00" d=" M 663.13 897.75 C 691.00 897.75 718.88 897.74 746.75 897.75 C 746.74 906.42 746.74 915.08 746.75 923.74 C 722.08 923.77 697.40 923.72 672.73 923.77 C 671.67 918.92 669.88 913.62 664.90 911.56 C 663.26 915.50 663.74 919.80 663.55 923.96 C 663.00 915.23 663.14 906.48 663.13 897.75 Z" />
<path fill="#ffffff" opacity="1.00" d=" M 759.34 991.99 C 759.74 960.58 759.34 929.15 759.54 897.73 C 769.61 897.79 779.69 897.69 789.77 897.79 C 789.73 932.77 789.76 967.76 789.75 1002.75 C 779.79 1002.74 769.83 1002.76 759.87 1002.74 C 762.05 997.32 765.87 992.90 769.98 988.85 C 769.27 988.82 767.87 988.74 767.17 988.71 C 770.48 987.14 774.10 984.87 774.92 981.02 C 775.88 976.59 776.60 972.12 777.70 967.73 C 774.14 969.77 771.69 973.14 769.29 976.37 C 765.68 981.38 762.15 986.48 759.34 991.99 Z" />
<path fill="#ffffff" opacity="1.00" d=" M 573.10 1002.73 C 582.98 969.06 592.49 935.27 602.50 901.64 C 607.31 918.46 612.25 935.24 617.04 952.06 C 617.35 955.83 615.30 959.42 614.59 963.09 C 613.93 961.67 613.00 960.46 611.80 959.49 C 611.25 952.69 608.46 946.09 603.87 941.04 C 604.15 937.77 602.98 934.70 600.15 932.93 C 601.20 935.78 601.14 939.42 603.85 941.33 C 605.68 949.17 611.12 955.60 612.53 963.53 C 612.97 963.78 613.86 964.27 614.30 964.52 C 610.54 977.21 607.16 990.01 603.57 1002.74 C 593.41 1002.74 583.26 1002.77 573.10 1002.73 Z" />
<path fill="#ffffff" opacity="1.00" d=" M 689.75 929.75 C 699.83 929.75 709.91 929.75 720.00 929.75 C 720.01 945.83 719.98 961.91 720.01 977.99 C 720.34 980.51 718.28 982.35 717.78 984.71 C 717.23 984.56 716.15 984.25 715.61 984.10 C 716.51 987.22 717.34 990.36 717.99 993.56 C 715.79 996.12 715.68 999.62 714.85 1002.76 C 706.47 1002.69 698.09 1002.86 689.71 1002.66 C 689.80 978.36 689.72 954.05 689.75 929.75 M 707.67 956.10 C 706.78 958.91 709.37 961.60 711.94 962.24 C 714.48 962.55 716.96 961.70 719.36 960.98 C 718.19 957.59 717.71 953.83 715.13 951.13 C 712.24 952.05 709.42 953.53 707.67 956.10 Z" />
<path fill="#ffffff" opacity="1.00" d=" M 473.48 956.29 C 478.96 966.38 484.79 976.37 489.70 986.70 C 487.06 992.09 484.06 997.30 481.47 1002.72 C 470.22 1002.78 458.97 1002.74 447.73 1002.75 C 456.13 987.16 465.02 971.85 473.48 956.29 Z" />
<path fill="#ffffff" opacity="1.00" d=" M 795.92 976.24 C 807.02 976.26 818.13 976.25 829.24 976.25 C 829.24 985.08 829.28 993.92 829.22 1002.76 C 818.11 1002.73 807.01 1002.75 795.90 1002.76 C 795.87 993.91 795.83 985.07 795.92 976.24 Z" />
<path fill="#ffffff" opacity="1.00" d=" M 321.17 1041.69 C 326.44 1042.00 332.50 1041.43 336.77 1045.14 C 339.84 1047.76 340.34 1052.13 340.21 1055.93 C 340.16 1059.60 338.78 1063.60 335.45 1065.55 C 331.20 1068.12 326.02 1068.30 321.18 1068.31 C 321.11 1065.29 321.11 1062.28 321.12 1059.27 C 323.52 1058.99 326.95 1060.19 328.32 1057.52 C 329.09 1055.41 329.06 1052.43 326.85 1051.19 C 324.97 1050.79 323.04 1050.76 321.13 1050.68 C 321.12 1047.68 321.11 1044.68 321.17 1041.69 Z" />
<path fill="#ffffff" opacity="1.00" d=" M 521.19 1041.65 C 526.70 1042.10 533.70 1041.89 536.98 1047.25 C 540.07 1052.95 539.86 1059.75 539.55 1066.04 C 539.09 1070.22 538.40 1074.94 535.03 1077.86 C 531.13 1080.95 525.85 1080.93 521.12 1081.05 C 521.12 1077.99 521.12 1074.93 521.12 1071.89 C 522.95 1071.54 525.06 1071.74 526.58 1070.49 C 528.37 1068.42 528.06 1065.49 528.26 1062.96 C 528.20 1059.77 528.50 1056.43 527.36 1053.41 C 526.25 1051.01 523.24 1051.33 521.09 1050.85 C 521.12 1047.78 521.11 1044.71 521.19 1041.65 Z" />
<path fill="#ffffff" opacity="1.00" d=" M 745.33 1050.51 C 747.18 1044.44 753.25 1040.77 759.38 1040.48 C 759.38 1043.48 759.39 1046.50 759.31 1049.52 C 758.08 1050.44 756.52 1051.32 756.25 1053.01 C 754.85 1058.18 755.07 1063.71 756.01 1068.95 C 756.24 1071.04 758.08 1072.21 759.30 1073.74 C 759.50 1076.60 759.35 1079.48 759.36 1082.35 C 753.63 1081.98 747.82 1078.86 745.73 1073.28 C 743.01 1066.07 743.09 1057.83 745.33 1050.51 Z" />
<path fill="#ffffff" opacity="1.00" d=" M 761.62 1040.47 C 767.61 1040.76 773.62 1044.14 775.64 1050.03 C 778.09 1057.34 778.14 1065.62 775.58 1072.92 C 773.51 1078.72 767.57 1082.03 761.64 1082.37 C 761.61 1079.37 761.60 1076.37 761.68 1073.39 C 766.35 1071.17 765.49 1065.22 765.87 1060.97 C 765.68 1056.95 766.02 1051.48 761.68 1049.49 C 761.60 1046.48 761.61 1043.47 761.62 1040.47 Z" />
<path fill="#ffffff" opacity="1.00" d=" M 796.18 1041.69 C 801.94 1042.04 808.90 1041.21 813.25 1045.79 C 816.78 1050.50 815.92 1059.48 809.56 1061.35 C 811.56 1062.39 814.00 1063.53 814.48 1066.00 C 815.38 1070.93 814.96 1076.02 815.67 1081.00 C 811.80 1080.99 807.94 1081.02 804.09 1080.96 C 803.84 1077.44 803.98 1073.89 803.47 1070.40 C 802.51 1067.34 798.55 1068.23 796.11 1067.65 C 796.12 1064.85 796.12 1062.06 796.12 1059.27 C 798.52 1058.99 801.93 1060.18 803.32 1057.53 C 804.07 1055.42 804.06 1052.49 801.91 1051.21 C 800.00 1050.79 798.04 1050.76 796.11 1050.67 C 796.12 1047.66 796.11 1044.67 796.18 1041.69 Z" />
<path fill="#ffffff" opacity="1.00" d=" M 822.34 1050.50 C 824.16 1044.49 830.13 1040.80 836.24 1040.61 C 836.25 1043.57 836.28 1046.54 836.17 1049.52 C 835.03 1050.47 833.65 1051.40 833.29 1052.97 C 831.86 1057.86 832.05 1063.10 832.82 1068.10 C 833.04 1070.31 834.42 1072.11 836.22 1073.36 C 836.26 1076.35 836.25 1079.35 836.24 1082.36 C 830.55 1081.92 824.79 1078.82 822.72 1073.26 C 820.01 1066.05 820.09 1057.82 822.34 1050.50 Z" />
<path fill="#ffffff" opacity="1.00" d=" M 838.52 1040.56 C 842.11 1040.93 845.93 1041.73 848.64 1044.32 C 851.54 1046.82 852.59 1050.66 853.47 1054.25 C 849.94 1054.81 846.44 1055.51 842.91 1055.98 C 841.73 1053.56 841.67 1050.34 838.56 1049.51 C 838.47 1046.52 838.47 1043.54 838.52 1040.56 Z" />
<path fill="#ffffff" opacity="1.00" d=" M 308.00 1041.75 C 311.62 1041.74 315.25 1041.74 318.88 1041.75 C 318.88 1054.83 318.87 1067.91 318.88 1080.99 C 315.25 1081.00 311.62 1080.99 308.00 1081.00 C 308.00 1067.91 308.00 1054.83 308.00 1041.75 Z" />
<path fill="#ffffff" opacity="1.00" d=" M 350.36 1041.75 C 354.13 1041.74 357.90 1041.74 361.68 1041.75 C 365.45 1054.84 369.28 1067.91 373.06 1081.00 C 369.27 1080.99 365.48 1080.99 361.70 1081.02 C 361.24 1079.43 360.79 1077.85 360.35 1076.29 C 357.72 1076.24 355.08 1076.24 352.45 1076.24 C 353.14 1073.85 353.84 1071.47 354.48 1069.08 C 355.74 1069.02 356.99 1068.98 358.25 1068.96 C 355.58 1059.90 353.00 1050.81 350.36 1041.75 Z" />
<path fill="#ffffff" opacity="1.00" d=" M 377.00 1041.75 C 380.75 1041.74 384.50 1041.74 388.25 1041.75 C 388.25 1054.83 388.25 1067.91 388.25 1081.00 C 384.50 1080.99 380.75 1080.99 377.00 1081.00 C 377.00 1067.91 377.00 1054.83 377.00 1041.75 Z" />
<path fill="#ffffff" opacity="1.00" d=" M 408.12 1041.76 C 410.26 1041.74 412.40 1041.72 414.54 1041.71 C 416.08 1047.78 417.72 1053.85 419.00 1059.99 C 419.31 1066.98 419.03 1073.99 419.13 1081.00 C 415.45 1080.99 411.79 1081.00 408.12 1081.00 C 408.13 1067.92 408.12 1054.84 408.12 1041.76 Z" />
<path fill="#ffffff" opacity="1.00" d=" M 416.95 1041.75 C 419.86 1041.74 422.78 1041.74 425.71 1041.75 C 428.86 1054.85 432.17 1067.91 435.38 1081.00 C 432.46 1080.99 429.55 1080.99 426.65 1081.01 C 423.39 1067.93 420.13 1054.85 416.95 1041.75 Z" />
<path fill="#ffffff" opacity="1.00" d=" M 435.99 1041.75 C 438.90 1041.74 441.81 1041.74 444.72 1041.74 C 442.08 1053.15 439.00 1064.45 436.41 1075.88 C 435.01 1069.90 433.19 1064.01 432.14 1057.97 C 433.17 1052.51 434.81 1047.18 435.99 1041.75 Z" />
<path fill="#ffffff" opacity="1.00" d=" M 447.05 1041.75 C 449.18 1041.74 451.32 1041.73 453.47 1041.74 C 453.58 1054.80 453.41 1067.86 453.55 1080.93 C 449.87 1081.02 446.18 1081.01 442.50 1080.99 C 442.59 1074.06 442.32 1067.13 442.61 1060.21 C 443.92 1054.02 445.66 1047.93 447.05 1041.75 Z" />
<path fill="#ffffff" opacity="1.00" d=" M 470.37 1041.75 C 474.13 1041.74 477.90 1041.75 481.67 1041.74 C 485.46 1054.83 489.27 1067.91 493.06 1081.00 C 489.27 1080.99 485.49 1080.99 481.71 1081.02 C 481.24 1079.43 480.78 1077.84 480.34 1076.28 C 477.71 1076.24 475.08 1076.24 472.46 1076.24 C 473.14 1073.85 473.83 1071.48 474.47 1069.09 C 475.73 1069.03 476.99 1068.98 478.25 1068.95 C 475.59 1059.89 472.99 1050.81 470.37 1041.75 Z" />
<path fill="#ffffff" opacity="1.00" d=" M 508.00 1041.75 C 511.66 1041.74 515.33 1041.74 519.00 1041.75 C 519.00 1054.83 519.00 1067.91 519.00 1081.00 C 515.33 1080.99 511.66 1080.99 508.00 1081.00 C 508.00 1067.91 508.00 1054.83 508.00 1041.75 Z" />
<path fill="#ffffff" opacity="1.00" d=" M 546.00 1041.75 C 549.55 1041.75 553.11 1041.75 556.67 1041.71 C 556.86 1054.80 556.68 1067.89 556.76 1080.98 C 553.17 1081.00 549.58 1081.00 546.00 1081.00 C 546.00 1067.91 546.00 1054.83 546.00 1041.75 Z" />
<path fill="#ffffff" opacity="1.00" d=" M 559.00 1041.75 C 564.54 1041.74 570.08 1041.74 575.62 1041.75 C 575.62 1044.83 575.62 1047.91 575.62 1051.00 C 570.08 1050.99 564.54 1051.00 559.00 1051.00 C 559.00 1047.91 559.00 1044.83 559.00 1041.75 Z" />
<path fill="#ffffff" opacity="1.00" d=" M 595.12 1041.76 C 597.27 1041.74 599.41 1041.73 601.57 1041.72 C 603.05 1047.81 604.73 1053.86 606.01 1060.01 C 606.31 1066.99 606.03 1074.00 606.13 1081.00 C 602.45 1080.99 598.78 1081.00 595.12 1080.99 C 595.13 1067.91 595.13 1054.84 595.12 1041.76 Z" />
<path fill="#ffffff" opacity="1.00" d=" M 603.95 1041.75 C 606.87 1041.74 609.79 1041.74 612.72 1041.77 C 615.85 1054.87 619.17 1067.92 622.38 1081.00 C 619.46 1080.99 616.56 1080.99 613.65 1081.01 C 610.38 1067.93 607.13 1054.85 603.95 1041.75 Z" />
<path fill="#ffffff" opacity="1.00" d=" M 622.99 1041.75 C 625.90 1041.74 628.81 1041.74 631.73 1041.74 C 629.06 1053.14 626.01 1064.46 623.40 1075.88 C 622.02 1069.88 620.17 1063.99 619.14 1057.93 C 620.19 1052.49 621.81 1047.17 622.99 1041.75 Z" />
<path fill="#ffffff" opacity="1.00" d=" M 634.04 1041.76 C 636.18 1041.74 638.31 1041.73 640.46 1041.73 C 640.58 1054.80 640.42 1067.87 640.54 1080.94 C 636.86 1081.02 633.18 1081.00 629.50 1081.00 C 629.59 1074.03 629.30 1067.06 629.62 1060.11 C 630.95 1053.95 632.67 1047.90 634.04 1041.76 Z" />
<path fill="#ffffff" opacity="1.00" d=" M 657.36 1041.75 C 661.13 1041.74 664.90 1041.74 668.69 1041.76 C 672.45 1054.84 676.28 1067.91 680.06 1080.99 C 676.27 1081.00 672.48 1080.99 668.70 1081.02 C 668.24 1079.43 667.78 1077.85 667.35 1076.29 C 664.71 1076.24 662.08 1076.24 659.45 1076.24 C 660.14 1073.85 660.84 1071.47 661.48 1069.09 C 662.73 1069.02 663.99 1068.98 665.25 1068.96 C 662.58 1059.90 660.00 1050.81 657.36 1041.75 Z" />
<path fill="#ffffff" opacity="1.00" d=" M 684.00 1041.75 C 687.75 1041.74 691.50 1041.74 695.25 1041.75 C 695.25 1054.83 695.25 1067.91 695.25 1081.00 C 691.50 1080.99 687.75 1080.99 684.00 1081.00 C 684.00 1067.91 684.00 1054.83 684.00 1041.75 Z" />
<path fill="#ffffff" opacity="1.00" d=" M 715.00 1041.75 C 718.75 1041.74 722.50 1041.74 726.25 1041.75 C 726.25 1054.83 726.25 1067.91 726.25 1081.00 C 722.50 1080.99 718.75 1080.99 715.00 1081.00 C 715.00 1067.91 715.00 1054.83 715.00 1041.75 Z" />
<path fill="#ffffff" opacity="1.00" d=" M 783.00 1041.75 C 786.62 1041.74 790.25 1041.74 793.88 1041.75 C 793.87 1054.83 793.87 1067.91 793.88 1080.99 C 790.25 1081.00 786.62 1080.99 783.00 1081.00 C 783.00 1067.91 783.00 1054.83 783.00 1041.75 Z" />
<path fill="#ffffff" opacity="1.00" d=" M 867.36 1041.75 C 871.13 1041.74 874.90 1041.74 878.67 1041.75 C 882.46 1054.83 886.28 1067.91 890.05 1081.00 C 886.26 1080.99 882.47 1080.99 878.69 1081.01 C 878.23 1079.43 877.78 1077.84 877.35 1076.29 C 874.71 1076.24 872.08 1076.24 869.46 1076.24 C 870.30 1073.90 870.50 1071.18 871.81 1069.09 C 872.67 1069.05 874.39 1068.96 875.25 1068.91 C 872.57 1059.87 869.99 1050.80 867.36 1041.75 Z" />
<path fill="#ffffff" opacity="1.00" d=" M 337.49 1081.00 C 341.20 1068.41 344.65 1055.74 348.48 1043.19 C 350.06 1049.16 351.89 1055.06 353.57 1061.01 C 354.23 1062.69 353.42 1064.41 353.03 1066.07 C 351.59 1071.03 350.20 1076.00 348.84 1080.98 C 345.05 1081.00 341.27 1080.99 337.49 1081.00 Z" />
<path fill="#ffffff" opacity="1.00" d=" M 468.47 1043.26 C 470.21 1049.56 472.16 1055.81 473.84 1062.13 C 472.71 1068.51 470.38 1074.67 468.84 1080.98 C 465.05 1081.00 461.27 1080.99 457.49 1081.00 C 461.19 1068.43 464.63 1055.78 468.47 1043.26 Z" />
<path fill="#ffffff" opacity="1.00" d=" M 655.44 1043.18 C 657.11 1049.14 658.88 1055.08 660.59 1061.04 C 661.14 1062.40 660.61 1063.84 660.27 1065.20 C 658.77 1070.45 657.27 1075.70 655.84 1080.98 C 652.05 1081.00 648.27 1080.99 644.49 1081.00 C 648.17 1068.40 651.70 1055.76 655.44 1043.18 Z" />
<path fill="#ffffff" opacity="1.00" d=" M 854.49 1081.00 C 858.19 1068.40 861.67 1055.74 865.47 1043.17 C 867.13 1049.51 869.17 1055.74 870.83 1062.09 C 869.74 1068.49 867.37 1074.66 865.83 1080.99 C 862.05 1081.00 858.26 1080.99 854.49 1081.00 Z" />
<path fill="#ffffff" opacity="1.00" d=" M 559.01 1056.24 C 562.80 1056.25 566.59 1056.24 570.39 1056.27 C 570.37 1059.26 570.37 1062.25 570.36 1065.25 C 566.57 1065.24 562.78 1065.25 559.00 1065.25 C 558.99 1062.24 558.99 1059.24 559.01 1056.24 Z" />
<path fill="#ffffff" opacity="1.00" d=" M 842.71 1066.11 C 846.34 1066.66 849.97 1067.28 853.61 1067.88 C 852.68 1071.92 851.59 1076.45 848.02 1079.02 C 845.33 1081.20 841.82 1081.80 838.50 1082.29 C 838.49 1079.33 838.48 1076.38 838.54 1073.44 C 841.57 1072.23 842.34 1069.01 842.71 1066.11 Z" />
<path fill="#ffffff" opacity="1.00" d=" M 390.49 1071.26 C 394.65 1071.24 398.81 1071.25 402.98 1071.24 C 403.00 1074.48 403.00 1077.74 403.00 1081.00 C 398.81 1080.99 394.63 1081.04 390.45 1080.92 C 390.51 1077.69 390.50 1074.47 390.49 1071.26 Z" />
<path fill="#ffffff" opacity="1.00" d=" M 559.05 1071.46 C 564.57 1071.52 570.10 1071.49 575.62 1071.50 C 575.62 1074.64 575.61 1077.80 575.65 1080.96 C 570.10 1081.03 564.55 1080.98 559.00 1081.00 C 558.99 1077.81 558.98 1074.63 559.05 1071.46 Z" />
<path fill="#ffffff" opacity="1.00" d=" M 697.49 1071.26 C 701.65 1071.24 705.80 1071.26 709.97 1071.22 C 710.01 1074.47 710.00 1077.73 710.00 1081.00 C 705.81 1080.99 701.62 1081.05 697.44 1080.92 C 697.51 1077.69 697.50 1074.47 697.49 1071.26 Z" />
<path fill="#ffffff" opacity="1.00" d=" M 728.49 1071.26 C 732.65 1071.24 736.81 1071.26 740.98 1071.23 C 741.00 1074.48 741.00 1077.73 741.00 1081.00 C 736.82 1080.99 732.63 1081.03 728.46 1080.94 C 728.50 1077.71 728.50 1074.48 728.49 1071.26 Z" />
</g>
<g id="#ff0e00ff">
<path fill="#ff0e00" opacity="1.00" d=" M 277.52 234.61 C 279.96 231.10 282.43 227.60 285.18 224.32 C 292.10 225.67 299.16 224.80 306.15 225.08 C 303.32 228.62 300.57 232.21 297.72 235.73 C 291.07 234.25 284.23 235.51 277.52 234.61 Z" />
</g>
<g id="#ff1900ff">
<path fill="#ff1900" opacity="1.00" d=" M 867.48 233.21 C 874.39 232.41 881.36 232.95 888.31 232.67 C 890.97 236.43 893.70 240.14 896.27 243.97 C 889.41 244.07 882.54 243.82 875.68 244.15 C 873.07 240.41 870.30 236.79 867.48 233.21 Z" />
</g>
<g id="#ff1a00ff">
<path fill="#ff1a00" opacity="1.00" d=" M 270.87 243.99 C 273.03 240.83 275.28 237.72 277.52 234.61 C 284.23 235.51 291.07 234.25 297.72 235.73 C 295.52 238.52 293.45 241.40 291.41 244.29 C 284.57 243.92 277.71 244.12 270.87 243.99 Z" />
</g>
<g id="#ff2800ff">
<path fill="#ff2800" opacity="1.00" d=" M 270.87 243.99 C 277.71 244.12 284.57 243.92 291.41 244.29 C 289.07 247.62 286.67 250.89 284.46 254.30 C 277.85 253.76 271.22 254.12 264.61 253.81 C 266.67 250.52 268.78 247.27 270.87 243.99 Z" />
</g>
<g id="#ff2600ff">
<path fill="#ff2600" opacity="1.00" d=" M 875.68 244.15 C 882.54 243.82 889.41 244.07 896.27 243.97 C 898.38 247.19 900.47 250.41 902.53 253.67 C 896.05 254.38 889.46 253.30 883.08 254.82 C 880.71 251.19 878.17 247.69 875.68 244.15 Z" />
</g>
<g id="#ff3400ff">
<path fill="#ff3400" opacity="1.00" d=" M 259.00 263.02 C 260.74 259.87 262.61 256.80 264.61 253.81 C 271.22 254.12 277.85 253.76 284.46 254.30 C 282.52 257.32 280.61 260.36 278.65 263.38 C 272.11 262.83 265.55 263.04 259.00 263.02 Z" />
<path fill="#ff3400" opacity="1.00" d=" M 883.08 254.82 C 889.46 253.30 896.05 254.38 902.53 253.67 C 904.56 256.68 906.46 259.78 908.19 262.98 C 901.64 263.07 895.08 262.82 888.54 263.29 C 886.70 260.48 884.88 257.65 883.08 254.82 Z" />
</g>
<g id="#ff4100ff">
<path fill="#ff4100" opacity="1.00" d=" M 259.00 263.02 C 265.55 263.04 272.11 262.83 278.65 263.38 C 276.23 267.08 274.02 270.91 271.81 274.75 C 265.56 273.25 259.12 274.30 252.77 273.94 C 254.81 270.28 256.91 266.65 259.00 263.02 Z" />
<path fill="#ff4100" opacity="1.00" d=" M 888.54 263.29 C 895.08 262.82 901.64 263.07 908.19 262.98 C 910.27 266.58 912.31 270.20 914.38 273.81 C 908.02 274.24 901.58 273.38 895.29 274.68 C 893.09 270.85 890.95 266.99 888.54 263.29 Z" />
<path fill="#ff4100" opacity="1.00" d=" M 251.85 592.27 C 253.31 595.80 254.91 599.28 256.48 602.77 C 250.30 603.20 244.10 603.15 237.90 602.97 C 236.45 599.71 235.13 596.39 233.87 593.06 C 239.86 592.84 245.95 593.71 251.85 592.27 Z" />
</g>
<g id="#ff4e00ff">
<path fill="#ff4e00" opacity="1.00" d=" M 252.77 273.94 C 259.12 274.30 265.56 273.25 271.81 274.75 C 270.10 277.74 268.37 280.72 266.78 283.77 C 260.58 282.66 254.28 283.14 248.03 283.09 C 249.55 280.01 251.18 276.99 252.77 273.94 Z" />
<path fill="#ff4e00" opacity="1.00" d=" M 895.29 274.68 C 901.58 273.38 908.02 274.24 914.38 273.81 C 916.00 276.82 917.51 279.89 919.06 282.94 C 912.82 283.30 906.54 282.51 900.35 283.61 C 898.72 280.60 896.96 277.66 895.29 274.68 Z" />
</g>
<g id="#ff6000ff">
<path fill="#ff6000" opacity="1.00" d=" M 248.03 283.09 C 254.28 283.14 260.58 282.66 266.78 283.77 C 263.97 289.22 261.17 294.66 258.51 300.17 C 252.32 299.77 246.12 299.82 239.93 299.91 C 242.45 294.22 245.10 288.58 248.03 283.09 Z" />
</g>
<g id="#ff5c00ff">
<path fill="#ff5c00" opacity="1.00" d=" M 900.35 283.61 C 906.54 282.51 912.82 283.30 919.06 282.94 C 920.85 286.24 922.54 289.61 924.12 293.02 C 917.85 293.15 911.58 292.97 905.33 293.35 C 903.60 290.13 902.01 286.85 900.35 283.61 Z" />
</g>
<g id="#313131ff">
<path fill="#313131" opacity="1.00" d=" M 658.25 292.29 C 658.76 292.77 658.76 292.77 658.25 292.29 Z" />
</g>
<g id="#ff6d00ff">
<path fill="#ff6d00" opacity="1.00" d=" M 905.33 293.35 C 911.58 292.97 917.85 293.15 924.12 293.02 C 926.56 298.61 929.30 304.06 931.55 309.73 C 925.46 309.95 919.35 309.75 913.26 310.23 C 910.63 304.59 908.26 298.83 905.33 293.35 Z" />
</g>
<g id="#232323ff">
<path fill="#232323" opacity="1.00" d=" M 655.14 296.06 C 656.39 296.65 656.35 297.34 655.02 298.12 C 653.75 297.52 653.79 296.84 655.14 296.06 Z" />
</g>
<g id="#ff7100ff">
<path fill="#ff7100" opacity="1.00" d=" M 239.93 299.91 C 246.12 299.82 252.32 299.77 258.51 300.17 C 256.90 303.65 255.33 307.15 253.73 310.63 C 247.73 309.41 241.61 310.12 235.54 309.93 C 236.90 306.54 238.42 303.23 239.93 299.91 Z" />
</g>
<g id="#1b1b1bff">
<path fill="#1b1b1b" opacity="1.00" d=" M 647.80 306.45 C 648.98 303.66 650.71 301.06 653.39 299.50 C 652.09 302.21 650.48 304.91 647.80 306.45 Z" />
</g>
<g id="#ff7f00ff">
<path fill="#ff7f00" opacity="1.00" d=" M 235.54 309.93 C 241.61 310.12 247.73 309.41 253.73 310.63 C 252.41 313.58 251.20 316.57 250.02 319.58 C 244.04 318.79 238.01 319.07 232.01 318.98 C 233.19 315.97 234.38 312.96 235.54 309.93 Z" />
<path fill="#ff7f00" opacity="1.00" d=" M 913.26 310.23 C 919.35 309.75 925.46 309.95 931.55 309.73 C 932.75 312.81 933.96 315.89 935.17 318.98 C 929.18 319.15 923.14 318.55 917.23 319.74 C 915.97 316.54 914.69 313.35 913.26 310.23 Z" />
</g>
<g id="#ff8f00ff">
<path fill="#ff8f00" opacity="1.00" d=" M 232.01 318.98 C 238.01 319.07 244.04 318.79 250.02 319.58 C 247.78 325.27 245.43 330.94 243.63 336.79 C 242.88 335.45 241.51 334.85 240.02 334.97 C 235.50 334.81 230.97 335.01 226.45 334.68 C 228.17 329.40 229.88 324.11 232.01 318.98 Z" />
<path fill="#ff8f00" opacity="1.00" d=" M 917.23 319.74 C 923.14 318.55 929.18 319.15 935.17 318.98 C 937.04 323.95 939.22 328.88 940.25 334.12 L 940.02 334.74 C 934.41 335.13 928.73 334.40 923.21 335.67 C 921.45 330.27 919.31 325.02 917.23 319.74 Z" />
</g>
<g id="#ffa100ff">
<path fill="#ffa100" opacity="1.00" d=" M 222.83 345.96 C 223.87 342.14 225.12 338.39 226.45 334.68 C 230.97 335.01 235.50 334.81 240.02 334.97 C 241.51 334.85 242.88 335.45 243.63 336.79 C 242.63 339.90 241.47 342.97 240.49 346.09 C 234.60 346.00 228.71 345.95 222.83 345.96 Z" />
<path fill="#ffa100" opacity="1.00" d=" M 923.21 335.67 C 928.73 334.40 934.41 335.13 940.02 334.74 L 940.69 334.90 C 942.35 338.42 943.17 342.29 944.37 346.00 C 938.47 346.02 932.57 346.02 926.68 346.07 C 925.55 342.59 924.37 339.13 923.21 335.67 Z" />
<path fill="#ffa100" opacity="1.00" d=" M 932.84 539.03 C 933.58 535.73 934.32 532.43 935.09 529.13 C 940.73 530.63 946.59 529.90 952.36 529.93 C 951.65 532.94 950.95 535.96 950.27 538.98 C 944.46 539.08 938.65 539.07 932.84 539.03 Z" />
<path fill="#ffa100" opacity="1.00" d=" M 214.83 529.92 C 220.63 530.19 226.43 529.91 232.23 529.98 C 232.94 532.99 233.64 536.00 234.33 539.03 C 228.51 539.01 222.69 538.97 216.88 538.96 C 216.16 535.95 215.46 532.94 214.83 529.92 Z" />
</g>
<g id="#ffb000ff">
<path fill="#ffb000" opacity="1.00" d=" M 222.83 345.96 C 228.71 345.95 234.60 346.00 240.49 346.09 C 239.34 349.76 238.34 353.47 237.27 357.16 C 231.42 356.98 225.57 356.91 219.72 357.11 C 220.67 353.36 221.78 349.67 222.83 345.96 Z" />
</g>
<g id="#ffb200ff">
<path fill="#ffb200" opacity="1.00" d=" M 926.68 346.07 C 932.57 346.02 938.47 346.02 944.37 346.00 C 945.20 349.71 946.85 353.25 947.18 357.07 L 946.94 357.79 C 941.37 358.06 935.79 357.98 930.23 358.28 C 929.04 354.21 927.94 350.12 926.68 346.07 Z" />
</g>
<g id="#ffc000ff">
<path fill="#ffc000" opacity="1.00" d=" M 219.55 357.11 L 219.72 357.11 C 225.57 356.91 231.42 356.98 237.27 357.16 C 222.73 409.43 220.21 465.01 229.97 518.38 C 224.30 519.39 218.54 519.05 212.83 518.91 C 203.30 465.33 205.93 409.76 219.55 357.11 Z" />
<path fill="#ffc000" opacity="1.00" d=" M 930.23 358.28 C 935.79 357.98 941.37 358.06 946.94 357.79 L 947.62 358.13 C 953.10 377.53 956.34 397.90 958.40 418.08 C 961.36 451.70 960.32 485.74 954.32 518.98 C 948.56 519.05 942.81 519.08 937.07 519.02 C 946.91 465.85 944.57 410.43 930.23 358.28 Z" />
</g>
<g id="#3f3f3fff">
<path fill="#3f3f3f" opacity="1.00" d=" M 700.25 373.30 C 700.77 373.79 700.77 373.79 700.25 373.30 Z" />
<path fill="#3f3f3f" opacity="1.00" d=" M 699.23 375.36 C 699.77 375.82 699.77 375.82 699.23 375.36 Z" />
<path fill="#3f3f3f" opacity="1.00" d=" M 698.26 377.31 C 698.78 377.81 698.78 377.81 698.26 377.31 Z" />
<path fill="#3f3f3f" opacity="1.00" d=" M 697.30 379.25 C 697.81 379.73 697.81 379.73 697.30 379.25 Z" />
</g>
<g id="#d1d1d1ff">
<path fill="#d1d1d1" opacity="1.00" d=" M 691.08 398.40 C 692.28 397.87 693.55 399.80 692.78 400.78 C 691.57 401.32 690.24 399.37 691.08 398.40 Z" />
</g>
<g id="#d9d9d9ff">
<path fill="#d9d9d9" opacity="1.00" d=" M 692.69 401.58 C 696.37 404.19 698.24 408.60 700.07 412.58 C 696.79 409.57 694.73 405.47 692.69 401.58 Z" />
</g>
<g id="#ddddddff">
<path fill="#dddddd" opacity="1.00" d=" M 699.71 412.55 C 703.30 415.25 705.22 419.55 707.26 423.44 C 703.82 420.59 701.61 416.52 699.71 412.55 Z" />
</g>
<g id="#e0e0e0ff">
<path fill="#e0e0e0" opacity="1.00" d=" M 706.66 423.58 C 710.46 426.12 712.27 430.60 714.31 434.52 C 710.73 431.77 708.90 427.39 706.66 423.58 Z" />
<path fill="#e0e0e0" opacity="1.00" d=" M 714.28 435.30 C 715.80 434.96 717.38 437.34 716.76 438.71 C 715.24 438.88 713.76 436.67 714.28 435.30 Z" />
</g>
<g id="#c7c7c7ff">
<path fill="#c7c7c7" opacity="1.00" d=" M 718.26 441.27 C 718.77 441.76 718.77 441.76 718.26 441.27 Z" />
</g>
<g id="#cececeff">
<path fill="#cecece" opacity="1.00" d=" M 720.24 444.24 C 720.76 444.71 720.76 444.71 720.24 444.24 Z" />
</g>
<g id="#cdcdcdff">
<path fill="#cdcdcd" opacity="1.00" d=" M 726.25 453.26 C 726.71 453.79 726.71 453.79 726.25 453.26 Z" />
</g>
<g id="#ffaf00ff">
<path fill="#ffaf00" opacity="1.00" d=" M 212.83 518.91 C 218.54 519.05 224.30 519.39 229.97 518.38 C 230.64 522.26 231.32 526.14 232.23 529.98 C 226.43 529.91 220.63 530.19 214.83 529.92 C 213.97 526.28 213.50 522.58 212.83 518.91 Z" />
<path fill="#ffaf00" opacity="1.00" d=" M 937.07 519.02 C 942.81 519.08 948.56 519.05 954.32 518.98 C 953.68 522.63 953.02 526.28 952.36 529.93 C 946.59 529.90 940.73 530.63 935.09 529.13 C 935.83 525.78 936.46 522.40 937.07 519.02 Z" />
</g>
<g id="#727272ff">
<path fill="#727272" opacity="1.00" d=" M 404.10 533.42 C 407.39 533.52 402.58 536.46 404.10 533.42 Z" />
</g>
<g id="#ff9200ff">
<path fill="#ff9200" opacity="1.00" d=" M 216.88 538.96 C 222.69 538.97 228.51 539.01 234.33 539.03 C 235.04 542.16 235.86 545.27 236.76 548.37 C 231.23 549.45 225.60 548.83 220.03 549.21 L 219.42 549.09 C 218.11 545.86 217.84 542.30 216.88 538.96 Z" />
<path fill="#ff9200" opacity="1.00" d=" M 932.84 539.03 C 938.65 539.07 944.46 539.08 950.27 538.98 C 949.51 542.31 948.75 545.65 947.92 548.97 C 942.06 549.01 936.19 549.12 930.34 548.74 C 931.27 545.53 932.11 542.29 932.84 539.03 Z" />
</g>
<g id="#ff8400ff">
<path fill="#ff8400" opacity="1.00" d=" M 236.76 548.37 C 237.68 551.56 238.58 554.76 239.50 557.95 C 233.64 558.20 227.76 558.16 221.90 558.01 C 221.06 555.32 220.19 552.62 219.75 549.84 L 220.03 549.21 C 225.60 548.83 231.23 549.45 236.76 548.37 Z" />
<path fill="#ff8400" opacity="1.00" d=" M 927.70 557.88 C 928.57 554.83 929.44 551.78 930.34 548.74 C 936.19 549.12 942.06 549.01 947.92 548.97 C 947.04 551.99 946.17 555.01 945.29 558.03 C 939.43 557.98 933.56 558.11 927.70 557.88 Z" />
</g>
<g id="#9f9f9fff">
<path fill="#9f9f9f" opacity="1.00" d=" M 625.08 550.47 C 628.39 550.57 623.58 553.49 625.08 550.47 Z" />
</g>
<g id="#ff7300ff">
<path fill="#ff7300" opacity="1.00" d=" M 221.90 558.01 C 227.76 558.16 233.64 558.20 239.50 557.95 C 241.09 563.23 242.91 568.43 244.63 573.67 C 238.71 573.91 232.78 573.83 226.86 573.92 C 225.07 568.66 223.29 563.39 221.90 558.01 Z" />
</g>
<g id="#ff7700ff">
<path fill="#ff7700" opacity="1.00" d=" M 925.05 566.23 C 925.97 563.46 926.89 560.68 927.70 557.88 C 933.56 558.11 939.43 557.98 945.29 558.03 C 944.43 561.11 943.54 564.20 942.59 567.26 C 936.74 566.89 930.77 567.83 925.05 566.23 Z" />
</g>
<g id="#ff6300ff">
<path fill="#ff6300" opacity="1.00" d=" M 918.37 584.67 C 920.90 578.63 922.97 572.43 925.05 566.23 C 930.77 567.83 936.74 566.89 942.59 567.26 C 940.63 573.12 938.61 578.96 936.66 584.83 L 936.48 584.84 C 930.44 584.93 924.40 584.99 918.37 584.67 Z" />
</g>
<g id="#ff5f00ff">
<path fill="#ff5f00" opacity="1.00" d=" M 226.86 573.92 C 232.78 573.83 238.71 573.91 244.63 573.67 C 245.61 576.59 246.74 579.46 247.89 582.33 C 241.96 583.60 235.89 582.92 229.89 583.02 C 228.87 579.99 227.85 576.96 226.86 573.92 Z" />
</g>
<g id="#ff5000ff">
<path fill="#ff5000" opacity="1.00" d=" M 247.89 582.33 C 249.23 585.63 250.51 588.96 251.85 592.27 C 245.95 593.71 239.86 592.84 233.87 593.06 C 232.53 589.71 231.21 586.36 229.89 583.02 C 235.89 582.92 241.96 583.60 247.89 582.33 Z" />
</g>
<g id="#ff4d00ff">
<path fill="#ff4d00" opacity="1.00" d=" M 914.10 595.26 C 915.60 591.76 916.94 588.19 918.37 584.67 C 924.40 584.99 930.44 584.93 936.48 584.84 C 935.15 588.64 933.60 592.36 932.12 596.12 C 926.11 595.82 920.01 596.66 914.10 595.26 Z" />
</g>
<g id="#ff3b00ff">
<path fill="#ff3b00" opacity="1.00" d=" M 908.45 607.70 C 910.35 603.56 912.22 599.40 914.10 595.26 C 920.01 596.66 926.11 595.82 932.12 596.12 C 930.61 600.18 928.75 604.10 926.96 608.04 C 920.78 608.11 914.60 608.23 908.45 607.70 Z" />
</g>
<g id="#ff3100ff">
<path fill="#ff3100" opacity="1.00" d=" M 237.90 602.97 C 244.10 603.15 250.30 603.20 256.48 602.77 C 258.38 607.02 260.35 611.25 262.56 615.36 C 256.39 616.60 250.10 615.92 243.86 616.04 C 241.89 611.68 239.92 607.31 237.90 602.97 Z" />
</g>
<g id="#ff2900ff">
<path fill="#ff2900" opacity="1.00" d=" M 901.79 620.92 C 904.04 616.53 906.30 612.14 908.45 607.70 C 914.60 608.23 920.78 608.11 926.96 608.04 C 925.00 612.52 922.83 616.90 920.75 621.33 L 920.50 621.31 C 914.27 620.84 908.02 621.06 901.79 620.92 Z" />
</g>
<g id="#ff1b00ff">
<path fill="#ff1b00" opacity="1.00" d=" M 262.56 615.36 C 265.16 620.41 267.63 625.52 270.58 630.39 C 264.29 631.80 257.85 630.91 251.48 631.14 C 249.08 626.03 246.29 621.13 243.86 616.04 C 250.10 615.92 256.39 616.60 262.56 615.36 Z" />
</g>
<g id="#ff1400ff">
<path fill="#ff1400" opacity="1.00" d=" M 901.79 620.92 C 908.02 621.06 914.27 620.84 920.50 621.31 C 918.43 626.08 915.87 630.62 913.45 635.22 C 907.09 634.66 900.65 635.60 894.35 634.32 C 896.88 629.88 899.47 625.47 901.79 620.92 Z" />
</g>
<g id="#fe0101ff">
<path fill="#fe0101" opacity="1.00" d=" M 270.58 630.39 C 274.75 637.81 279.26 645.02 283.90 652.16 C 277.58 653.68 271.04 652.17 264.68 653.46 L 264.55 653.48 C 259.94 646.18 255.72 638.65 251.48 631.14 C 257.85 630.91 264.29 631.80 270.58 630.39 Z" />
</g>
<g id="#fa0102ff">
<path fill="#fa0102" opacity="1.00" d=" M 881.25 655.26 C 885.75 648.37 890.30 641.49 894.35 634.32 C 900.65 635.60 907.09 634.66 913.45 635.22 C 909.44 642.21 905.56 649.30 901.02 655.97 C 894.42 655.71 887.79 656.40 881.25 655.26 Z" />
</g>
<g id="#e3020bff">
<path fill="#e3020b" opacity="1.00" d=" M 283.90 652.16 C 287.72 657.91 291.73 663.53 295.80 669.11 C 289.24 670.88 282.42 669.56 275.74 670.16 C 271.76 664.80 268.08 659.20 264.68 653.46 C 271.04 652.17 277.58 653.68 283.90 652.16 Z" />
</g>
<g id="#df030dff">
<path fill="#df030d" opacity="1.00" d=" M 868.57 672.70 C 873.09 667.10 877.05 661.10 881.25 655.26 C 887.79 656.40 894.42 655.71 901.02 655.97 C 897.42 661.92 893.38 667.58 889.28 673.19 C 882.38 672.75 875.46 673.28 868.57 672.70 Z" />
</g>
<g id="#cc0414ff">
<path fill="#cc0414" opacity="1.00" d=" M 295.80 669.11 C 299.84 674.12 303.69 679.28 307.80 684.23 C 300.91 685.62 293.83 684.90 286.86 684.97 C 282.71 680.38 279.28 675.21 275.74 670.16 C 282.42 669.56 289.24 670.88 295.80 669.11 Z" />
</g>
<g id="#c70516ff">
<path fill="#c70516" opacity="1.00" d=" M 855.13 689.14 C 859.89 683.89 864.18 678.25 868.57 672.70 C 875.46 673.28 882.38 672.75 889.28 673.19 C 885.35 679.14 880.76 684.62 876.34 690.20 C 869.28 689.43 862.09 690.79 855.13 689.14 Z" />
</g>
<g id="#b8061dff">
<path fill="#b8061d" opacity="1.00" d=" M 307.80 684.23 C 312.01 688.96 315.98 693.91 320.44 698.43 C 313.24 699.72 305.92 698.42 298.69 699.39 L 298.54 699.41 C 294.52 694.70 290.37 690.07 286.86 684.97 C 293.83 684.90 300.91 685.62 307.80 684.23 Z" />
</g>
<g id="#b2071fff">
<path fill="#b2071f" opacity="1.00" d=" M 843.23 702.22 C 847.35 698.00 851.24 693.57 855.13 689.14 C 862.09 690.79 869.28 689.43 876.34 690.20 C 873.10 694.71 869.13 698.62 865.67 702.96 L 865.31 702.96 C 857.95 702.64 850.49 703.81 843.23 702.22 Z" />
</g>
<g id="#a40824ff">
<path fill="#a40824" opacity="1.00" d=" M 320.44 698.43 C 325.44 703.52 330.21 708.84 335.47 713.68 C 327.63 714.12 319.77 713.96 311.92 713.94 C 307.15 709.44 302.75 704.53 298.69 699.39 C 305.92 698.42 313.24 699.72 320.44 698.43 Z" />
</g>
<g id="#a10825ff">
<path fill="#a10825" opacity="1.00" d=" M 832.21 713.25 C 836.00 709.70 839.62 705.96 843.23 702.22 C 850.49 703.81 857.95 702.64 865.31 702.96 C 862.42 707.11 858.66 710.51 855.20 714.16 C 847.54 713.51 839.78 714.87 832.21 713.25 Z" />
</g>
<g id="#91092cff">
<path fill="#91092c" opacity="1.00" d=" M 821.28 723.30 C 825.04 720.08 828.58 716.61 832.21 713.25 C 839.78 714.87 847.54 713.51 855.20 714.16 C 852.04 717.63 848.92 721.19 845.20 724.07 C 837.23 723.72 829.16 724.74 821.28 723.30 Z" />
</g>
<g id="#90092dff">
<path fill="#90092d" opacity="1.00" d=" M 311.92 713.94 C 319.77 713.96 327.63 714.12 335.47 713.68 C 339.71 717.68 343.96 721.68 348.41 725.45 C 340.30 726.47 332.10 725.84 323.95 725.94 C 319.63 722.27 315.56 718.27 311.92 713.94 Z" />
</g>
<g id="#840a31ff">
<path fill="#840a31" opacity="1.00" d=" M 809.48 733.33 C 813.52 730.12 817.30 726.59 821.28 723.30 C 829.16 724.74 837.23 723.72 845.20 724.07 C 841.75 727.58 838.38 731.32 834.32 734.10 C 826.04 733.61 817.69 734.66 809.48 733.33 Z" />
</g>
<g id="#820a31ff">
<path fill="#820a31" opacity="1.00" d=" M 348.41 725.45 C 351.87 728.38 355.25 731.41 358.83 734.21 C 350.59 735.80 342.14 734.67 333.81 735.03 C 330.19 732.39 327.04 729.15 323.95 725.94 C 332.10 725.84 340.30 726.47 348.41 725.45 Z" />
</g>
<g id="#780b36ff">
<path fill="#780b36" opacity="1.00" d=" M 799.38 741.27 C 802.72 738.59 806.05 735.90 809.48 733.33 C 817.69 734.66 826.04 733.61 834.32 734.10 C 831.51 736.95 828.58 739.71 825.29 741.99 C 816.65 741.71 807.93 742.66 799.38 741.27 Z" />
</g>
<g id="#750b36ff">
<path fill="#750b36" opacity="1.00" d=" M 358.83 734.21 C 362.83 737.17 366.64 740.38 370.64 743.35 C 361.88 744.89 352.91 743.85 344.07 743.96 C 340.46 741.22 337.06 738.18 333.81 735.03 C 342.14 734.67 350.59 735.80 358.83 734.21 Z" />
</g>
<g id="#6c0c3bff">
<path fill="#6c0c3b" opacity="1.00" d=" M 786.97 750.14 C 791.10 747.18 795.24 744.23 799.38 741.27 C 807.93 742.66 816.65 741.71 825.29 741.99 C 821.86 745.38 818.00 748.33 814.04 751.06 C 807.70 751.40 801.34 751.12 795.00 751.28 C 792.26 751.40 789.57 750.90 786.97 750.14 Z" />
</g>
<g id="#640d3eff">
<path fill="#640d3e" opacity="1.00" d=" M 370.64 743.35 C 377.89 748.47 385.17 753.54 392.66 758.31 C 383.16 759.93 373.46 758.51 363.88 759.03 C 356.88 754.59 350.46 749.22 344.07 743.96 C 352.91 743.85 361.88 744.89 370.64 743.35 Z" />
</g>
<g id="#550e44ff">
<path fill="#550e44" opacity="1.00" d=" M 749.59 772.58 C 762.48 765.85 774.87 758.22 786.97 750.14 C 789.57 750.90 792.26 751.40 795.00 751.28 C 801.34 751.12 807.70 751.40 814.04 751.06 C 806.42 757.59 797.96 763.09 789.65 768.69 C 787.24 770.12 785.04 771.98 782.39 772.95 C 771.45 772.56 760.51 773.16 749.59 772.58 Z" />
</g>
<g id="#4f0f46ff">
<path fill="#4f0f46" opacity="1.00" d=" M 392.66 758.31 C 400.79 763.21 408.98 768.01 417.39 772.42 C 406.54 773.55 395.59 772.63 384.70 772.99 C 377.40 768.98 370.41 764.22 363.88 759.03 C 373.46 758.51 383.16 759.93 392.66 758.31 Z" />
</g>
<g id="#40104cff">
<path fill="#40104c" opacity="1.00" d=" M 417.39 772.42 C 459.96 794.71 507.05 808.26 554.97 811.93 C 621.84 817.45 690.11 803.64 749.59 772.58 C 760.51 773.16 771.45 772.56 782.39 772.95 C 779.89 775.40 776.68 776.85 773.70 778.59 C 724.01 807.83 667.44 825.33 609.90 829.14 C 535.35 834.49 459.25 817.08 394.71 779.29 C 391.29 777.33 387.71 775.57 384.70 772.99 C 395.59 772.63 406.54 773.55 417.39 772.42 Z" />
</g>
</svg>
