<?xml version="1.0" encoding="UTF-8" ?>
<!DOCTYPE svg PUBLIC "-//W3C//DTD SVG 1.1//EN" "http://www.w3.org/Graphics/SVG/1.1/DTD/svg11.dtd">
<svg width="1181pt" height="1181pt" viewBox="0 0 1181 1181" version="1.1" xmlns="http://www.w3.org/2000/svg">
<g id="#000000ff">
<path fill="#000000" opacity="1.00" d=" M 531.90 97.89 C 581.12 90.82 631.81 93.94 679.74 107.22 C 753.72 127.60 820.62 172.58 867.54 233.29 C 870.35 236.85 873.11 240.46 875.71 244.19 C 878.21 247.74 880.76 251.26 883.13 254.90 C 884.91 257.71 886.72 260.51 888.55 263.30 C 890.96 267.00 893.09 270.86 895.29 274.69 C 896.98 277.70 898.76 280.68 900.41 283.72 C 902.06 286.94 903.63 290.20 905.35 293.39 C 908.28 298.87 910.65 304.63 913.28 310.26 C 914.71 313.38 915.98 316.57 917.24 319.77 C 919.33 325.05 921.47 330.32 923.23 335.72 C 924.39 339.19 925.57 342.65 926.70 346.13 C 927.96 350.17 929.05 354.27 930.25 358.33 C 944.57 410.48 946.91 465.88 937.06 519.05 C 936.46 522.41 935.84 525.76 935.09 529.10 C 934.33 532.40 933.58 535.70 932.84 539.00 C 932.11 542.29 931.27 545.55 930.32 548.78 C 929.44 551.79 928.58 554.80 927.72 557.81 C 926.91 560.63 925.99 563.42 925.06 566.20 C 922.98 572.39 920.92 578.60 918.38 584.63 C 916.96 588.14 915.63 591.68 914.13 595.16 C 912.23 599.36 910.35 603.56 908.42 607.75 C 906.27 612.19 904.02 616.59 901.76 620.98 C 899.46 625.51 896.88 629.89 894.36 634.30 C 890.33 641.47 885.77 648.32 881.29 655.22 C 877.07 661.05 873.12 667.07 868.60 672.68 C 864.19 678.22 859.91 683.86 855.15 689.11 C 851.27 693.54 847.38 697.97 843.27 702.19 C 839.65 705.91 836.06 709.66 832.26 713.20 C 828.63 716.54 825.12 720.02 821.36 723.22 C 817.35 726.54 813.56 730.11 809.48 733.34 C 806.05 735.88 802.74 738.58 799.41 741.24 C 795.28 744.19 791.15 747.14 787.04 750.09 C 774.93 758.18 762.52 765.83 749.61 772.59 C 690.11 803.62 621.82 817.46 554.94 811.93 C 507.03 808.25 459.94 794.73 417.38 772.41 C 408.94 768.00 400.72 763.17 392.56 758.26 C 385.08 753.50 377.83 748.38 370.57 743.30 C 366.57 740.34 362.80 737.11 358.78 734.18 C 355.22 731.40 351.88 728.36 348.42 725.46 C 343.95 721.69 339.71 717.67 335.45 713.67 C 330.20 708.85 325.45 703.53 320.46 698.45 C 315.98 693.92 312.00 688.93 307.76 684.17 C 303.65 679.25 299.84 674.10 295.81 669.12 C 291.73 663.52 287.70 657.89 283.88 652.12 C 279.23 644.97 274.71 637.74 270.53 630.31 C 267.58 625.46 265.13 620.34 262.53 615.30 C 260.33 611.21 258.37 607.00 256.48 602.76 C 254.91 599.26 253.30 595.79 251.84 592.25 C 250.49 588.90 249.20 585.54 247.84 582.20 C 246.71 579.38 245.59 576.56 244.63 573.68 C 242.92 568.43 241.08 563.22 239.49 557.92 C 238.56 554.70 237.66 551.47 236.73 548.25 C 235.84 545.21 235.04 542.15 234.34 539.07 C 233.65 536.03 232.94 533.00 232.23 529.98 C 231.31 526.14 230.64 522.25 229.97 518.36 C 220.21 465.00 222.73 409.41 237.27 357.15 C 238.35 353.47 239.34 349.76 240.48 346.11 C 241.48 342.94 242.61 339.83 243.68 336.69 C 245.45 330.87 247.79 325.25 250.01 319.60 C 251.18 316.61 252.38 313.64 253.69 310.72 C 255.31 307.21 256.88 303.68 258.50 300.18 C 261.16 294.67 263.96 289.24 266.77 283.80 C 268.35 280.75 270.08 277.77 271.79 274.79 C 273.99 270.95 276.20 267.11 278.63 263.41 C 280.60 260.38 282.52 257.33 284.46 254.29 C 286.66 250.90 289.05 247.65 291.37 244.35 C 293.42 241.44 295.50 238.54 297.71 235.74 C 300.56 232.23 303.31 228.63 306.13 225.10 C 333.74 191.77 367.24 163.29 404.83 141.80 C 443.91 119.31 487.25 104.26 531.90 97.89 M 461.74 127.73 C 422.99 142.50 386.83 164.22 355.86 191.81 C 302.91 238.34 264.85 301.54 248.62 370.15 C 237.84 414.77 236.33 461.56 243.67 506.86 C 250.34 547.66 264.51 587.17 285.15 622.97 C 324.08 690.96 386.92 744.88 460.06 772.97 C 450.92 765.62 443.83 755.99 438.03 745.88 C 436.31 742.21 434.08 737.75 436.06 733.77 C 439.75 735.22 444.49 735.54 446.82 739.16 C 445.21 740.89 446.22 743.16 446.75 745.13 C 447.89 748.51 449.12 751.95 451.27 754.85 C 454.63 759.14 459.41 762.00 464.29 764.27 C 463.96 764.73 463.29 765.65 462.95 766.11 C 463.54 766.34 464.73 766.81 465.33 767.04 C 463.51 771.01 468.86 773.34 470.23 776.67 C 482.11 780.90 494.25 784.39 506.53 787.26 C 506.48 785.21 505.97 783.00 507.19 781.18 C 509.63 775.73 514.24 771.11 520.07 769.47 C 523.26 768.90 526.95 769.15 529.59 771.22 C 532.76 774.76 534.35 779.36 536.96 783.30 C 536.95 786.63 535.93 789.77 534.02 792.50 C 588.39 800.27 644.67 795.43 696.65 777.50 C 698.01 777.14 699.04 776.16 700.06 775.25 C 704.05 775.49 707.56 773.47 711.18 772.13 C 773.07 747.89 827.51 705.20 866.01 651.04 C 898.25 605.95 919.35 552.97 926.83 498.04 C 926.81 496.48 927.69 494.73 926.89 493.29 C 922.84 493.13 919.47 490.91 915.88 489.34 C 911.63 488.62 910.89 494.64 907.00 494.85 C 903.14 493.89 899.51 491.56 898.24 487.62 C 893.14 482.87 885.03 483.73 880.08 478.61 C 878.66 477.04 877.39 474.61 878.58 472.56 C 880.35 469.24 882.20 465.75 882.15 461.88 C 881.86 459.37 879.64 457.85 877.88 456.35 C 878.33 454.69 879.40 453.45 880.98 452.76 C 883.12 451.87 883.46 448.97 882.04 447.30 C 877.98 442.53 872.04 439.74 868.04 434.93 C 866.28 432.30 868.28 429.81 871.10 429.64 C 872.66 431.56 871.88 434.38 873.76 436.10 C 876.31 439.26 879.56 441.87 883.03 443.94 C 884.40 444.39 885.08 442.69 886.06 442.07 C 890.71 437.50 897.13 433.09 903.97 434.55 C 904.24 435.96 905.55 436.49 906.71 437.10 C 908.20 436.11 909.82 435.29 911.26 434.22 C 912.30 432.79 912.55 430.98 913.13 429.35 C 915.96 430.62 914.70 433.32 913.34 435.23 C 914.65 436.78 916.65 437.90 918.72 437.08 C 918.95 435.90 917.98 433.09 920.06 433.27 C 922.17 433.13 924.13 434.08 926.08 434.77 C 926.89 436.15 928.06 437.11 929.71 437.42 C 927.78 381.03 911.54 325.22 883.01 276.55 C 881.97 277.06 880.95 277.56 879.93 278.05 C 879.29 276.31 879.96 274.59 881.12 273.25 C 879.97 271.72 878.76 270.25 877.61 268.74 C 874.85 268.14 873.69 265.63 873.26 263.11 C 873.07 260.95 869.64 260.34 870.79 257.83 C 871.01 256.61 869.72 255.76 869.25 254.76 C 854.63 233.75 837.79 214.30 819.01 196.91 C 767.71 149.31 701.57 117.85 632.18 108.47 C 631.06 111.43 631.57 117.18 627.16 117.17 C 625.88 113.93 624.33 110.78 623.68 107.34 C 569.10 101.30 513.06 108.04 461.74 127.73 Z" />
<path fill="#000000" opacity="1.00" d=" M 646.27 140.08 C 647.95 138.83 649.65 136.55 652.01 137.87 C 655.33 138.39 655.32 142.80 654.05 145.13 C 652.87 147.53 649.73 147.20 647.55 146.75 C 644.59 145.77 646.18 142.28 646.27 140.08 Z" />
<path fill="#000000" opacity="1.00" d=" M 527.20 148.98 C 527.25 147.39 528.10 145.23 530.02 145.29 C 532.36 145.78 534.45 147.18 536.32 148.65 C 538.56 150.57 538.48 153.83 539.97 156.23 C 541.43 158.86 542.66 161.77 542.23 164.85 C 539.06 163.65 535.84 161.83 534.47 158.55 C 532.74 154.86 529.73 152.09 527.20 148.98 Z" />
<path fill="#000000" opacity="1.00" d=" M 697.68 156.27 C 697.10 154.40 696.71 152.45 697.97 150.77 C 699.06 151.06 700.14 151.40 701.22 151.80 C 701.91 152.92 701.62 154.33 701.82 155.59 C 700.43 155.82 699.05 156.05 697.68 156.27 Z" />
<path fill="#000000" opacity="1.00" d=" M 544.16 174.15 C 545.47 173.65 547.61 172.61 548.41 174.45 C 552.49 179.57 553.05 187.01 550.09 192.66 C 543.53 190.33 540.77 181.52 543.02 175.11 C 543.30 174.87 543.87 174.39 544.16 174.15 Z" />
<path fill="#000000" opacity="1.00" d=" M 472.27 187.14 C 474.32 189.36 476.63 191.43 478.12 194.10 C 478.33 197.46 480.24 200.40 480.26 203.79 C 474.78 200.34 471.12 193.68 472.27 187.14 Z" />
<path fill="#000000" opacity="1.00" d=" M 561.07 260.06 C 565.85 250.84 571.46 241.89 578.04 233.82 C 580.96 233.04 583.33 235.68 585.96 236.50 C 586.54 236.08 587.70 235.22 588.28 234.80 C 595.68 236.55 598.00 244.55 599.30 251.08 C 597.92 253.34 596.24 255.38 594.67 257.51 C 593.15 260.16 595.40 263.32 593.89 266.01 C 590.30 268.13 586.33 270.09 582.05 270.01 C 578.59 269.92 575.11 269.76 571.70 269.26 C 568.63 265.65 564.38 263.39 561.07 260.06 Z" />
<path fill="#000000" opacity="1.00" d=" M 848.57 249.00 C 849.88 246.88 851.02 243.92 853.93 243.71 C 857.44 243.13 859.52 247.77 857.26 250.28 C 855.16 253.78 849.97 252.46 848.57 249.00 Z" />
<path fill="#000000" opacity="1.00" d=" M 494.86 247.20 C 495.62 247.20 497.15 247.20 497.91 247.19 C 498.99 248.43 500.15 249.62 501.20 250.90 C 498.51 250.95 496.14 249.55 494.86 247.20 Z" />
<path fill="#000000" opacity="1.00" d=" M 511.19 270.89 C 513.13 269.71 515.33 268.89 516.94 271.05 C 516.21 272.43 515.47 273.79 514.75 275.17 C 512.35 275.13 511.10 273.09 511.19 270.89 Z" />
<path fill="#000000" opacity="1.00" d=" M 599.32 278.40 C 600.16 277.16 601.58 278.16 602.71 278.25 C 602.87 279.79 603.03 281.34 603.19 282.89 C 601.73 282.55 600.30 282.21 598.87 281.85 C 598.99 280.72 598.36 279.29 599.32 278.40 Z" />
<path fill="#000000" opacity="1.00" d=" M 598.22 290.35 C 600.21 289.38 600.01 293.12 598.78 293.71 C 597.15 293.74 597.23 291.13 598.22 290.35 Z" />
<path fill="#000000" opacity="1.00" d=" M 616.17 294.29 C 617.39 292.41 618.28 289.45 620.93 289.27 C 624.32 289.75 622.87 293.53 622.24 295.69 C 620.20 295.25 618.19 294.72 616.17 294.29 Z" />
<path fill="#000000" opacity="1.00" d=" M 608.24 291.21 C 608.94 291.25 610.34 291.33 611.04 291.38 C 611.28 292.85 611.18 294.34 610.96 295.81 C 609.76 295.08 608.58 294.34 607.42 293.58 C 607.69 292.78 607.96 291.99 608.24 291.21 Z" />
<path fill="#000000" opacity="1.00" d=" M 578.41 298.05 C 579.19 295.56 583.08 296.88 582.75 299.20 C 582.71 300.82 580.85 301.19 579.84 302.06 C 579.06 300.89 576.92 299.57 578.41 298.05 Z" />
<path fill="#000000" opacity="1.00" d=" M 611.36 301.49 C 610.42 300.10 612.11 299.16 613.01 298.47 C 613.79 301.17 614.53 303.89 614.87 306.68 C 622.08 307.23 628.70 303.29 635.66 301.89 C 638.27 307.06 641.68 312.14 642.19 318.05 C 642.30 323.01 638.88 326.97 636.24 330.83 C 635.31 327.17 635.08 323.38 634.75 319.64 C 620.43 338.00 607.83 357.61 594.80 376.89 C 592.79 374.40 591.89 370.74 588.49 369.77 C 587.95 371.65 587.91 373.93 586.27 375.28 C 584.55 376.98 581.99 376.13 579.96 375.64 C 579.18 373.77 576.85 372.19 577.75 369.96 C 578.27 366.84 583.03 366.32 582.84 362.95 C 582.43 356.46 574.99 351.85 576.96 344.96 C 579.37 342.95 582.18 341.40 584.18 338.93 C 587.20 335.74 586.02 330.89 588.22 327.22 C 593.53 324.85 598.14 321.21 602.77 317.74 C 605.97 315.30 609.35 312.70 611.05 308.93 C 611.29 306.49 612.40 303.86 611.36 301.49 Z" />
<path fill="#000000" opacity="1.00" d=" M 860.53 358.58 C 862.59 357.63 865.19 358.77 866.66 360.33 C 867.42 362.90 863.32 365.84 861.42 363.53 C 860.23 362.26 858.68 359.99 860.53 358.58 Z" />
<path fill="#000000" opacity="1.00" d=" M 725.29 381.42 C 726.50 380.74 727.74 380.08 728.97 379.41 C 736.22 390.72 744.43 401.46 750.81 413.31 C 750.05 414.54 749.30 415.78 748.53 417.01 C 740.16 405.56 733.43 393.02 725.29 381.42 Z" />
<path fill="#000000" opacity="1.00" d=" M 422.16 410.41 C 425.71 404.52 429.56 398.80 433.68 393.28 C 433.99 393.60 434.61 394.23 434.93 394.55 C 432.66 395.37 432.99 397.97 432.49 399.88 C 432.30 403.40 428.24 404.53 426.85 407.50 C 428.04 407.64 430.07 409.31 428.23 410.28 C 426.49 411.41 424.12 410.31 422.16 410.41 Z" />
<path fill="#000000" opacity="1.00" d=" M 651.93 455.89 C 663.60 440.22 673.89 423.57 685.82 408.10 C 697.52 425.54 708.66 443.34 719.62 461.25 C 716.63 465.97 713.86 470.90 710.28 475.20 C 709.58 474.13 709.25 472.94 709.25 471.68 C 710.39 471.25 711.57 470.84 712.72 470.37 C 711.79 468.87 712.46 466.26 710.47 465.52 C 708.42 464.73 706.16 464.72 704.10 463.98 C 702.21 465.84 700.66 468.31 698.00 469.12 C 694.32 469.88 690.10 468.69 686.98 471.32 C 684.25 469.75 682.24 464.89 678.50 467.53 C 675.67 472.59 674.41 479.80 678.65 484.48 C 676.48 485.98 676.91 488.71 676.76 491.00 C 674.31 492.66 673.45 495.14 674.53 497.95 C 678.76 497.55 682.66 495.71 686.85 495.12 C 683.87 498.40 678.87 496.81 675.16 498.63 C 672.20 499.67 669.88 502.71 670.73 505.94 C 669.24 508.45 666.88 510.36 665.70 513.09 C 669.60 510.84 673.16 507.22 677.97 507.26 C 680.41 507.11 681.46 509.59 683.10 510.92 C 684.53 511.51 686.13 511.34 687.66 511.51 C 681.26 520.46 675.35 529.75 669.29 538.94 C 666.75 537.78 663.57 536.09 663.54 532.89 C 663.52 530.34 662.74 527.93 660.92 526.11 C 657.92 527.12 656.63 524.74 656.44 522.13 C 655.32 521.67 654.20 521.08 652.99 520.99 C 641.46 519.45 629.90 518.04 618.26 517.72 C 622.11 510.30 624.72 502.33 627.31 494.41 L 626.29 493.57 C 634.64 480.88 642.83 468.07 651.93 455.89 Z" />
<path fill="#000000" opacity="1.00" d=" M 516.02 466.81 C 517.46 462.70 518.07 457.81 521.46 454.78 C 539.24 481.19 557.27 507.44 575.14 533.79 C 572.06 533.76 568.98 533.67 565.91 533.76 C 563.52 533.29 562.64 537.28 560.23 535.69 C 559.94 535.32 559.36 534.59 559.07 534.23 C 557.00 535.16 551.57 536.78 552.63 532.68 C 548.10 532.89 542.72 532.34 539.34 536.01 C 540.64 538.84 538.44 541.52 536.98 543.79 C 535.74 546.06 532.18 546.40 530.92 543.98 C 529.71 538.03 532.66 531.83 530.61 525.96 C 530.09 524.27 528.39 523.47 527.12 522.47 C 523.83 524.10 520.95 526.43 517.64 528.00 C 518.77 526.08 520.51 524.69 522.45 523.64 C 520.68 520.01 522.47 514.86 518.60 512.34 C 514.77 509.93 509.84 511.52 505.71 509.82 C 505.18 511.52 505.05 513.41 503.97 514.89 C 501.40 516.74 495.98 514.78 497.34 511.00 C 497.58 508.67 500.13 508.67 501.89 508.10 C 501.34 503.58 507.93 506.01 508.56 502.08 C 508.03 498.87 506.52 495.79 507.38 492.46 C 506.82 492.09 505.70 491.35 505.13 490.98 C 504.86 488.27 508.53 487.74 509.47 485.43 C 508.17 482.28 506.06 478.02 509.25 475.27 C 512.30 473.39 515.60 471.42 516.59 467.68 C 514.50 468.51 510.91 469.75 509.94 466.82 C 510.75 463.93 514.59 464.93 516.02 466.81 Z" />
<path fill="#000000" opacity="1.00" d=" M 787.93 478.20 C 790.35 476.33 793.02 478.04 793.07 480.93 C 791.99 481.06 790.91 481.81 789.82 481.42 C 789.06 480.41 788.49 479.30 787.93 478.20 Z" />
<path fill="#000000" opacity="1.00" d=" M 694.20 496.15 C 695.41 495.65 696.59 495.67 697.63 496.56 C 697.01 496.97 695.76 497.78 695.14 498.19 C 694.91 497.68 694.44 496.66 694.20 496.15 Z" />
<path fill="#000000" opacity="1.00" d=" M 499.24 500.63 C 500.57 499.01 502.60 498.49 504.60 498.32 C 504.87 498.63 505.40 499.26 505.67 499.58 C 503.54 500.00 501.39 500.34 499.24 500.63 Z" />
<path fill="#000000" opacity="1.00" d=" M 488.82 504.37 C 490.99 503.00 493.52 503.14 495.95 503.58 C 494.28 505.94 490.69 507.15 488.82 504.37 Z" />
<path fill="#000000" opacity="1.00" d=" M 358.05 512.59 C 358.97 511.87 359.91 511.17 360.84 510.45 C 363.68 511.92 361.79 514.40 360.20 515.99 C 359.45 514.87 358.74 513.73 358.05 512.59 Z" />
<path fill="#000000" opacity="1.00" d=" M 278.76 522.39 C 280.44 522.58 281.87 523.48 283.29 524.35 L 283.99 523.52 C 288.76 525.89 292.37 530.37 294.69 535.21 C 292.80 539.76 290.25 544.05 286.91 547.68 C 284.41 545.47 281.05 546.16 278.04 545.59 C 276.69 545.00 275.45 544.19 274.15 543.52 L 273.89 544.89 L 273.33 544.87 C 273.47 544.38 273.77 543.38 273.91 542.89 C 271.36 540.06 268.82 537.13 267.54 533.47 C 264.70 532.75 261.73 534.66 259.10 532.97 C 259.18 532.42 259.32 531.31 259.39 530.75 C 264.69 529.77 269.93 528.42 275.34 528.20 C 275.58 527.15 275.81 526.10 276.03 525.05 C 276.87 525.06 278.56 525.09 279.41 525.10 C 279.24 524.42 278.92 523.06 278.76 522.39 Z" />
<path fill="#000000" opacity="1.00" d=" M 630.64 526.38 C 630.98 526.08 631.65 525.48 631.98 525.19 C 632.31 527.24 632.34 529.36 632.76 531.41 C 633.63 532.77 634.93 533.81 635.83 535.17 C 636.82 537.47 636.34 540.04 636.29 542.46 C 635.12 541.95 633.97 541.43 632.82 540.92 C 632.34 538.84 631.82 536.75 631.76 534.62 C 628.50 535.91 631.18 540.71 628.28 542.24 C 627.04 536.83 629.25 531.52 630.64 526.38 Z" />
<path fill="#000000" opacity="1.00" d=" M 652.72 531.66 C 654.22 528.30 658.80 529.27 660.87 531.49 C 658.69 532.65 656.29 533.22 653.93 533.88 C 653.42 533.17 651.97 532.66 652.72 531.66 Z" />
<path fill="#000000" opacity="1.00" d=" M 769.38 530.36 C 772.80 531.75 777.30 534.09 776.06 538.63 C 772.74 537.13 768.20 534.81 769.38 530.36 Z" />
<path fill="#000000" opacity="1.00" d=" M 428.07 535.29 C 429.22 535.53 430.40 535.74 431.56 536.05 C 430.92 536.83 430.28 537.61 429.64 538.40 C 428.84 537.51 428.38 536.41 428.07 535.29 Z" />
<path fill="#000000" opacity="1.00" d=" M 335.47 536.33 C 336.94 538.43 338.16 540.68 339.44 542.90 C 339.34 543.60 339.15 544.99 339.05 545.68 C 337.34 546.81 336.40 548.64 335.02 550.08 C 332.45 550.76 329.94 549.02 327.63 548.05 C 330.19 544.11 332.95 540.30 335.47 536.33 Z" />
<path fill="#000000" opacity="1.00" d=" M 657.12 538.11 C 659.05 537.12 662.17 537.75 663.01 539.94 C 663.24 541.95 662.79 544.06 661.93 545.89 C 658.86 547.59 656.66 551.13 652.70 550.39 C 652.02 548.96 650.47 547.70 650.76 546.00 C 653.25 543.65 654.31 540.13 657.12 538.11 Z" />
<path fill="#000000" opacity="1.00" d=" M 627.02 549.30 C 626.07 546.92 627.27 544.47 628.88 542.73 C 629.14 544.11 629.38 545.48 629.66 546.86 C 628.79 547.68 627.91 548.50 627.02 549.30 Z" />
<path fill="#000000" opacity="1.00" d=" M 590.26 563.03 C 592.40 557.60 595.26 552.33 599.45 548.19 C 603.93 554.09 599.11 561.25 599.63 567.78 C 597.15 571.12 597.28 575.46 595.45 579.09 C 594.48 583.70 595.50 589.33 591.72 592.92 C 588.47 595.13 583.59 591.22 585.31 587.50 C 586.97 583.35 585.52 578.50 588.02 574.66 C 589.40 572.63 588.53 569.94 589.98 567.90 C 589.40 566.29 589.52 564.56 590.26 563.03 Z" />
<path fill="#000000" opacity="1.00" d=" M 641.07 557.10 C 642.52 555.21 643.94 552.36 646.63 552.26 C 649.64 555.09 645.08 560.64 641.36 560.14 C 641.29 559.38 641.14 557.86 641.07 557.10 Z" />
<path fill="#000000" opacity="1.00" d=" M 620.70 563.98 C 620.25 560.36 621.17 556.70 622.78 553.47 C 623.55 553.49 625.11 553.53 625.88 553.56 C 628.84 559.28 628.82 566.19 625.82 571.89 C 625.56 573.19 622.57 573.74 622.73 572.10 C 624.18 569.19 621.18 566.76 620.70 563.98 Z" />
<path fill="#000000" opacity="1.00" d=" M 862.60 564.23 C 862.06 562.84 863.33 561.89 863.99 560.85 C 865.26 561.41 866.49 562.09 867.53 563.06 C 866.80 563.88 866.08 564.71 865.37 565.54 C 864.43 565.13 863.47 564.72 862.60 564.23 Z" />
<path fill="#000000" opacity="1.00" d=" M 845.46 566.87 C 843.10 565.89 843.30 563.14 845.01 561.62 C 845.76 562.35 846.51 563.09 847.26 563.85 C 846.66 564.85 846.06 565.86 845.46 566.87 Z" />
<path fill="#000000" opacity="1.00" d=" M 861.30 578.17 C 860.45 574.61 863.18 570.47 866.90 570.20 C 869.44 569.60 871.90 570.72 874.31 571.40 C 874.92 574.72 875.70 578.50 873.42 581.40 C 870.67 586.92 861.65 583.70 861.30 578.17 Z" />
<path fill="#000000" opacity="1.00" d=" M 722.75 572.28 C 725.68 572.75 728.25 574.76 730.12 576.98 C 731.05 578.65 731.77 582.63 729.08 582.83 C 724.32 581.93 722.68 576.51 722.75 572.28 Z" />
<path fill="#000000" opacity="1.00" d=" M 406.88 574.87 C 411.48 575.55 416.72 576.48 421.00 574.14 C 423.04 575.38 425.23 576.37 427.62 576.75 C 429.57 578.61 432.54 579.65 433.34 582.49 C 434.66 586.51 434.17 590.96 433.07 594.99 C 432.74 596.91 430.58 597.25 429.06 597.82 C 424.93 598.97 420.77 600.04 416.82 601.71 C 413.46 600.21 409.85 598.32 408.23 594.81 C 406.09 590.93 406.81 586.38 405.83 582.20 C 405.34 581.85 404.37 581.14 403.89 580.79 C 404.97 578.86 405.96 576.88 406.88 574.87 Z" />
<path fill="#000000" opacity="1.00" d=" M 799.41 580.66 C 799.38 578.85 800.48 577.60 801.98 576.75 C 802.36 578.10 803.47 580.00 802.03 581.12 C 801.22 581.86 800.24 580.76 799.41 580.66 Z" />
<path fill="#000000" opacity="1.00" d=" M 758.27 584.93 C 758.04 583.35 759.81 583.19 760.80 582.59 C 761.22 583.78 761.65 584.98 762.09 586.18 C 760.78 587.64 757.86 587.33 758.27 584.93 Z" />
<path fill="#000000" opacity="1.00" d=" M 619.19 587.18 C 620.48 586.76 622.27 588.53 621.03 589.65 C 619.36 590.92 616.57 587.91 619.19 587.18 Z" />
<path fill="#000000" opacity="1.00" d=" M 482.02 589.82 C 484.03 592.15 485.62 594.81 487.10 597.50 C 483.66 596.45 482.59 592.99 482.02 589.82 Z" />
<path fill="#000000" opacity="1.00" d=" M 764.06 593.09 C 764.55 591.32 766.52 592.31 767.79 592.26 C 767.78 593.44 767.76 594.62 767.73 595.81 C 766.27 595.36 763.98 595.14 764.06 593.09 Z" />
<path fill="#000000" opacity="1.00" d=" M 789.14 598.09 C 790.55 596.75 791.97 598.21 793.18 599.00 C 792.45 599.90 792.56 601.75 791.16 601.97 C 789.64 601.27 788.27 599.84 789.14 598.09 Z" />
<path fill="#000000" opacity="1.00" d=" M 286.26 603.62 C 287.70 599.53 292.04 598.24 296.03 598.37 C 294.40 602.21 290.16 603.78 286.26 603.62 Z" />
<path fill="#000000" opacity="1.00" d=" M 756.37 607.99 C 757.86 608.76 759.46 610.09 758.59 612.01 C 758.07 614.14 755.61 613.49 754.23 612.70 C 754.86 611.09 755.58 609.52 756.37 607.99 Z" />
<path fill="#000000" opacity="1.00" d=" M 866.73 618.70 C 868.43 617.42 870.77 617.08 872.75 617.93 C 874.30 619.84 875.43 622.06 876.75 624.14 C 875.32 627.99 870.47 630.20 866.77 628.21 C 863.99 625.97 864.16 621.09 866.73 618.70 Z" />
<path fill="#000000" opacity="1.00" d=" M 566.50 633.90 C 570.23 631.29 575.09 629.15 579.54 631.38 C 586.09 634.49 592.38 639.42 595.55 646.07 C 595.75 650.76 593.80 655.33 590.98 659.04 C 589.93 661.27 587.22 661.55 585.73 663.37 C 579.29 653.56 572.88 643.74 566.50 633.90 Z" />
<path fill="#000000" opacity="1.00" d=" M 672.08 631.05 C 677.63 637.68 683.37 645.08 683.91 654.06 C 683.05 657.59 679.80 660.26 676.07 659.53 C 670.51 659.67 666.61 655.59 664.01 651.18 C 665.96 648.27 665.86 644.57 667.68 641.63 C 668.88 640.54 670.31 639.72 671.45 638.55 C 673.12 636.37 672.17 633.53 672.08 631.05 Z" />
<path fill="#000000" opacity="1.00" d=" M 744.30 650.96 C 746.51 652.24 749.46 654.11 748.04 657.10 C 746.31 657.33 744.21 657.40 743.17 655.72 C 742.28 654.06 743.43 652.34 744.30 650.96 Z" />
<path fill="#000000" opacity="1.00" d=" M 354.41 676.67 C 355.84 677.03 357.34 677.25 358.68 677.93 C 359.67 680.63 358.09 684.45 355.04 684.80 C 352.54 684.64 351.18 682.43 351.56 680.06 C 352.91 679.31 353.71 677.99 354.41 676.67 Z" />
<path fill="#000000" opacity="1.00" d=" M 373.58 705.25 C 373.97 702.23 376.66 701.89 378.92 703.17 C 378.34 704.16 377.93 705.29 377.09 706.12 C 375.91 705.86 374.74 705.57 373.58 705.25 Z" />
<path fill="#000000" opacity="1.00" d=" M 690.99 710.92 C 691.02 709.64 691.69 709.09 692.99 709.27 C 693.61 710.26 693.72 711.50 693.80 712.69 C 692.83 712.16 691.75 711.69 690.99 710.92 Z" />
</g>
<g id="#ff0000ff">
<path fill="#ff0000" opacity="1.00" d=" M 449.02 102.02 C 519.03 75.03 597.20 69.99 670.19 87.27 C 757.18 107.46 836.03 160.22 888.25 232.61 C 881.34 233.04 874.41 232.33 867.54 233.29 C 820.62 172.58 753.72 127.60 679.74 107.22 C 631.81 93.94 581.12 90.82 531.90 97.89 C 487.25 104.26 443.91 119.31 404.83 141.80 C 367.24 163.29 333.74 191.77 306.13 225.10 C 299.19 224.77 292.16 225.67 285.29 224.32 C 327.05 169.38 384.62 126.71 449.02 102.02 Z" />
</g>
<g id="#ffffffff">
<path fill="#ffffff" opacity="1.00" d=" M 461.74 127.73 C 513.06 108.04 569.10 101.30 623.68 107.34 C 624.33 110.78 625.88 113.93 627.16 117.17 C 631.57 117.18 631.06 111.43 632.18 108.47 C 701.57 117.85 767.71 149.31 819.01 196.91 C 837.79 214.30 854.63 233.75 869.25 254.76 C 869.72 255.76 871.01 256.61 870.79 257.83 C 869.64 260.34 873.07 260.95 873.26 263.11 C 873.69 265.63 874.85 268.14 877.61 268.74 C 878.76 270.25 879.97 271.72 881.12 273.25 C 879.96 274.59 879.29 276.31 879.93 278.05 C 880.95 277.56 881.97 277.06 883.01 276.55 C 911.54 325.22 927.78 381.03 929.71 437.42 C 928.06 437.11 926.89 436.15 926.08 434.77 C 924.13 434.08 922.17 433.13 920.06 433.27 C 917.98 433.09 918.95 435.90 918.72 437.08 C 916.65 437.90 914.65 436.78 913.34 435.23 C 914.70 433.32 915.96 430.62 913.13 429.35 C 912.55 430.98 912.30 432.79 911.26 434.22 C 909.82 435.29 908.20 436.11 906.71 437.10 C 905.55 436.49 904.24 435.96 903.97 434.55 C 897.13 433.09 890.71 437.50 886.06 442.07 C 885.08 442.69 884.40 444.39 883.03 443.94 C 879.56 441.87 876.31 439.26 873.76 436.10 C 871.88 434.38 872.66 431.56 871.10 429.64 C 868.28 429.81 866.28 432.30 868.04 434.93 C 872.04 439.74 877.98 442.53 882.04 447.30 C 883.46 448.97 883.12 451.87 880.98 452.76 C 879.40 453.45 878.33 454.69 877.88 456.35 C 879.64 457.85 881.86 459.37 882.15 461.88 C 882.20 465.75 880.35 469.24 878.58 472.56 C 877.39 474.61 878.66 477.04 880.08 478.61 C 885.03 483.73 893.14 482.87 898.24 487.62 C 899.51 491.56 903.14 493.89 907.00 494.85 C 910.89 494.64 911.63 488.62 915.88 489.34 C 919.47 490.91 922.84 493.13 926.89 493.29 C 927.69 494.73 926.81 496.48 926.83 498.04 C 919.35 552.97 898.25 605.95 866.01 651.04 C 827.51 705.20 773.07 747.89 711.18 772.13 C 707.56 773.47 704.05 775.49 700.06 775.25 C 699.04 776.16 698.01 777.14 696.65 777.50 C 644.67 795.43 588.39 800.27 534.02 792.50 C 535.93 789.77 536.95 786.63 536.96 783.30 C 534.35 779.36 532.76 774.76 529.59 771.22 C 526.95 769.15 523.26 768.90 520.07 769.47 C 514.24 771.11 509.63 775.73 507.19 781.18 C 505.97 783.00 506.48 785.21 506.53 787.26 C 494.25 784.39 482.11 780.90 470.23 776.67 C 468.86 773.34 463.51 771.01 465.33 767.04 C 464.73 766.81 463.54 766.34 462.95 766.11 C 463.29 765.65 463.96 764.73 464.29 764.27 C 459.41 762.00 454.63 759.14 451.27 754.85 C 449.12 751.95 447.89 748.51 446.75 745.13 C 446.22 743.16 445.21 740.89 446.82 739.16 C 444.49 735.54 439.75 735.22 436.06 733.77 C 434.08 737.75 436.31 742.21 438.03 745.88 C 443.83 755.99 450.92 765.62 460.06 772.97 C 386.92 744.88 324.08 690.96 285.15 622.97 C 264.51 587.17 250.34 547.66 243.67 506.86 C 236.33 461.56 237.84 414.77 248.62 370.15 C 264.85 301.54 302.91 238.34 355.86 191.81 C 386.83 164.22 422.99 142.50 461.74 127.73 M 646.27 140.08 C 646.18 142.28 644.59 145.77 647.55 146.75 C 649.73 147.20 652.87 147.53 654.05 145.13 C 655.32 142.80 655.33 138.39 652.01 137.87 C 649.65 136.55 647.95 138.83 646.27 140.08 M 527.20 148.98 C 529.73 152.09 532.74 154.86 534.47 158.55 C 535.84 161.83 539.06 163.65 542.23 164.85 C 542.66 161.77 541.43 158.86 539.97 156.23 C 538.48 153.83 538.56 150.57 536.32 148.65 C 534.45 147.18 532.36 145.78 530.02 145.29 C 528.10 145.23 527.25 147.39 527.20 148.98 M 697.68 156.27 C 699.05 156.05 700.43 155.82 701.82 155.59 C 701.62 154.33 701.91 152.92 701.22 151.80 C 700.14 151.40 699.06 151.06 697.97 150.77 C 696.71 152.45 697.10 154.40 697.68 156.27 M 573.06 190.02 C 552.83 222.35 531.84 254.20 512.37 287.00 C 498.37 266.81 484.75 246.36 471.12 225.92 C 466.74 219.12 461.84 212.66 456.26 206.79 C 435.12 234.50 416.01 263.67 396.46 292.50 C 390.25 301.71 383.69 310.72 378.52 320.58 C 375.43 326.47 371.43 332.08 365.64 335.59 C 351.88 315.30 340.01 293.68 324.35 274.75 C 324.70 295.46 323.45 316.21 324.68 336.90 C 327.42 349.17 337.30 357.92 342.40 369.09 C 339.85 379.99 329.87 386.85 326.14 397.16 C 324.47 401.91 324.93 407.05 324.87 412.00 C 324.95 441.66 324.65 471.31 324.75 500.97 C 324.57 514.02 323.95 527.13 325.77 540.10 C 327.91 538.33 328.83 535.60 330.46 533.42 C 341.01 517.96 351.48 502.44 362.09 487.01 C 371.91 472.97 381.24 458.57 391.54 444.88 C 396.12 448.55 399.53 453.40 402.60 458.35 C 377.91 497.04 353.02 535.59 327.89 573.99 C 324.38 578.89 324.12 585.18 324.12 590.98 C 324.21 608.87 324.05 626.78 324.95 644.65 C 333.08 634.66 339.73 623.58 346.77 612.82 C 370.26 576.34 393.76 539.88 417.25 503.41 C 419.44 500.11 422.22 497.24 424.19 493.80 C 426.53 495.08 428.10 497.25 429.46 499.48 C 480.54 576.83 530.91 654.65 581.87 732.10 C 583.07 733.73 584.25 735.56 586.15 736.48 C 587.65 737.01 588.50 735.26 589.31 734.34 C 637.27 661.63 685.25 588.94 733.26 516.27 C 737.71 509.33 742.56 502.53 746.07 495.07 C 737.48 501.99 731.76 511.59 725.00 520.15 C 726.87 507.08 731.59 494.21 739.79 483.77 C 743.17 479.87 748.65 481.07 753.19 481.09 C 755.78 482.11 757.34 484.61 759.08 486.65 C 769.78 501.47 780.18 516.51 790.18 531.81 C 799.35 545.90 809.14 559.58 818.17 573.75 C 825.99 585.59 833.02 598.03 842.24 608.86 C 844.01 611.21 845.68 613.83 845.91 616.86 C 846.63 622.86 847.21 629.07 845.61 634.98 C 845.04 637.04 843.75 638.89 843.58 641.06 C 844.43 643.51 846.22 645.45 847.75 647.51 C 847.97 628.33 848.51 609.15 848.49 589.98 C 848.56 582.39 845.08 575.38 840.95 569.23 C 818.19 533.91 795.41 498.61 772.86 463.16 C 772.22 461.93 770.85 460.40 772.04 459.05 C 774.38 454.58 777.79 450.68 779.48 445.86 C 797.29 467.01 810.42 491.63 827.92 513.01 C 821.07 500.83 813.19 489.29 805.27 477.80 C 796.87 465.88 789.77 452.99 779.95 442.13 C 775.67 448.01 771.24 453.82 767.59 460.13 C 769.70 464.57 772.75 468.44 775.32 472.60 C 795.50 503.76 815.66 534.94 835.87 566.08 C 839.66 571.53 842.68 577.58 844.21 584.08 C 838.16 581.51 832.66 577.40 829.27 571.69 C 816.03 550.30 802.76 528.92 789.64 507.45 C 781.62 494.15 773.19 481.10 765.54 467.59 C 764.20 465.25 762.80 462.82 762.85 460.04 C 762.50 459.70 761.82 459.02 761.48 458.67 C 761.15 456.48 760.53 454.19 761.35 452.03 C 763.54 445.08 767.80 438.99 772.63 433.62 C 776.02 429.62 783.10 429.61 786.58 433.48 C 806.65 457.93 823.22 484.94 841.26 510.87 C 845.99 517.26 845.73 525.57 845.63 533.13 C 842.66 531.45 839.82 529.59 836.88 527.89 C 839.98 532.65 843.60 537.06 846.69 541.85 C 847.35 538.59 847.18 535.26 847.34 531.96 C 848.53 502.65 848.00 473.32 848.13 443.99 C 847.96 429.87 848.98 415.66 847.18 401.61 C 845.24 389.16 833.52 381.58 829.67 369.95 C 835.31 357.84 846.92 348.20 847.75 334.14 C 847.97 314.72 849.03 295.18 846.40 275.86 C 832.84 295.44 820.42 315.78 806.57 335.16 C 798.44 327.15 792.55 317.30 786.07 307.99 C 762.90 273.88 739.51 239.93 715.83 206.17 C 709.86 215.14 704.04 224.20 697.91 233.06 C 686.11 250.76 673.26 267.78 662.48 286.15 C 657.77 282.63 655.08 277.07 651.38 272.57 C 629.68 238.88 608.31 204.96 586.79 171.15 C 581.66 177.02 577.19 183.42 573.06 190.02 M 544.16 174.15 C 543.87 174.39 543.30 174.87 543.02 175.11 C 540.77 181.52 543.53 190.33 550.09 192.66 C 553.05 187.01 552.49 179.57 548.41 174.45 C 547.61 172.61 545.47 173.65 544.16 174.15 M 472.27 187.14 C 471.12 193.68 474.78 200.34 480.26 203.79 C 480.24 200.40 478.33 197.46 478.12 194.10 C 476.63 191.43 474.32 189.36 472.27 187.14 M 848.57 249.00 C 849.97 252.46 855.16 253.78 857.26 250.28 C 859.52 247.77 857.44 243.13 853.93 243.71 C 851.02 243.92 849.88 246.88 848.57 249.00 M 494.86 247.20 C 496.14 249.55 498.51 250.95 501.20 250.90 C 500.15 249.62 498.99 248.43 497.91 247.19 C 497.15 247.20 495.62 247.20 494.86 247.20 M 511.19 270.89 C 511.10 273.09 512.35 275.13 514.75 275.17 C 515.47 273.79 516.21 272.43 516.94 271.05 C 515.33 268.89 513.13 269.71 511.19 270.89 M 860.53 358.58 C 858.68 359.99 860.23 362.26 861.42 363.53 C 863.32 365.84 867.42 362.90 866.66 360.33 C 865.19 358.77 862.59 357.63 860.53 358.58 M 787.93 478.20 C 788.49 479.30 789.06 480.41 789.82 481.42 C 790.91 481.81 791.99 481.06 793.07 480.93 C 793.02 478.04 790.35 476.33 787.93 478.20 M 358.05 512.59 C 358.74 513.73 359.45 514.87 360.20 515.99 C 361.79 514.40 363.68 511.92 360.84 510.45 C 359.91 511.17 358.97 511.87 358.05 512.59 M 278.76 522.39 C 278.92 523.06 279.24 524.42 279.41 525.10 C 278.56 525.09 276.87 525.06 276.03 525.05 C 275.81 526.10 275.58 527.15 275.34 528.20 C 269.93 528.42 264.69 529.77 259.39 530.75 C 259.32 531.31 259.18 532.42 259.10 532.97 C 261.73 534.66 264.70 532.75 267.54 533.47 C 268.82 537.13 271.36 540.06 273.91 542.89 C 273.77 543.38 273.47 544.38 273.33 544.87 L 273.89 544.89 L 274.15 543.52 C 275.45 544.19 276.69 545.00 278.04 545.59 C 281.05 546.16 284.41 545.47 286.91 547.68 C 290.25 544.05 292.80 539.76 294.69 535.21 C 292.37 530.37 288.76 525.89 283.99 523.52 L 283.29 524.35 C 281.87 523.48 280.44 522.58 278.76 522.39 M 769.38 530.36 C 768.20 534.81 772.74 537.13 776.06 538.63 C 777.30 534.09 772.80 531.75 769.38 530.36 M 404.12 533.40 C 402.54 536.43 407.40 533.57 404.12 533.40 M 428.07 535.29 C 428.38 536.41 428.84 537.51 429.64 538.40 C 430.28 537.61 430.92 536.83 431.56 536.05 C 430.40 535.74 429.22 535.53 428.07 535.29 M 335.47 536.33 C 332.95 540.30 330.19 544.11 327.63 548.05 C 329.94 549.02 332.45 550.76 335.02 550.08 C 336.40 548.64 337.34 546.81 339.05 545.68 C 339.15 544.99 339.34 543.60 339.44 542.90 C 338.16 540.68 336.94 538.43 335.47 536.33 M 862.60 564.23 C 863.47 564.72 864.43 565.13 865.37 565.54 C 866.08 564.71 866.80 563.88 867.53 563.06 C 866.49 562.09 865.26 561.41 863.99 560.85 C 863.33 561.89 862.06 562.84 862.60 564.23 M 845.46 566.87 C 846.06 565.86 846.66 564.85 847.26 563.85 C 846.51 563.09 845.76 562.35 845.01 561.62 C 843.30 563.14 843.10 565.89 845.46 566.87 M 861.30 578.17 C 861.65 583.70 870.67 586.92 873.42 581.40 C 875.70 578.50 874.92 574.72 874.31 571.40 C 871.90 570.72 869.44 569.60 866.90 570.20 C 863.18 570.47 860.45 574.61 861.30 578.17 M 722.75 572.28 C 722.68 576.51 724.32 581.93 729.08 582.83 C 731.77 582.63 731.05 578.65 730.12 576.98 C 728.25 574.76 725.68 572.75 722.75 572.28 M 406.88 574.87 C 405.96 576.88 404.97 578.86 403.89 580.79 C 404.37 581.14 405.34 581.85 405.83 582.20 C 406.81 586.38 406.09 590.93 408.23 594.81 C 409.85 598.32 413.46 600.21 416.82 601.71 C 420.77 600.04 424.93 598.97 429.06 597.82 C 430.58 597.25 432.74 596.91 433.07 594.99 C 434.17 590.96 434.66 586.51 433.34 582.49 C 432.54 579.65 429.57 578.61 427.62 576.75 C 425.23 576.37 423.04 575.38 421.00 574.14 C 416.72 576.48 411.48 575.55 406.88 574.87 M 799.41 580.66 C 800.24 580.76 801.22 581.86 802.03 581.12 C 803.47 580.00 802.36 578.10 801.98 576.75 C 800.48 577.60 799.38 578.85 799.41 580.66 M 758.27 584.93 C 757.86 587.33 760.78 587.64 762.09 586.18 C 761.65 584.98 761.22 583.78 760.80 582.59 C 759.81 583.19 758.04 583.35 758.27 584.93 M 482.02 589.82 C 482.59 592.99 483.66 596.45 487.10 597.50 C 485.62 594.81 484.03 592.15 482.02 589.82 M 764.06 593.09 C 763.98 595.14 766.27 595.36 767.73 595.81 C 767.76 594.62 767.78 593.44 767.79 592.26 C 766.52 592.31 764.55 591.32 764.06 593.09 M 789.14 598.09 C 788.27 599.84 789.64 601.27 791.16 601.97 C 792.56 601.75 792.45 599.90 793.18 599.00 C 791.97 598.21 790.55 596.75 789.14 598.09 M 286.26 603.62 C 290.16 603.78 294.40 602.21 296.03 598.37 C 292.04 598.24 287.70 599.53 286.26 603.62 M 756.37 607.99 C 755.58 609.52 754.86 611.09 754.23 612.70 C 755.61 613.49 758.07 614.14 758.59 612.01 C 759.46 610.09 757.86 608.76 756.37 607.99 M 866.73 618.70 C 864.16 621.09 863.99 625.97 866.77 628.21 C 870.47 630.20 875.32 627.99 876.75 624.14 C 875.43 622.06 874.30 619.84 872.75 617.93 C 870.77 617.08 868.43 617.42 866.73 618.70 M 672.08 631.05 C 672.17 633.53 673.12 636.37 671.45 638.55 C 670.31 639.72 668.88 640.54 667.68 641.63 C 665.86 644.57 665.96 648.27 664.01 651.18 C 666.61 655.59 670.51 659.67 676.07 659.53 C 679.80 660.26 683.05 657.59 683.91 654.06 C 683.37 645.08 677.63 637.68 672.08 631.05 M 744.30 650.96 C 743.43 652.34 742.28 654.06 743.17 655.72 C 744.21 657.40 746.31 657.33 748.04 657.10 C 749.46 654.11 746.51 652.24 744.30 650.96 M 354.41 676.67 C 353.71 677.99 352.91 679.31 351.56 680.06 C 351.18 682.43 352.54 684.64 355.04 684.80 C 358.09 684.45 359.67 680.63 358.68 677.93 C 357.34 677.25 355.84 677.03 354.41 676.67 M 373.58 705.25 C 374.74 705.57 375.91 705.86 377.09 706.12 C 377.93 705.29 378.34 704.16 378.92 703.17 C 376.66 701.89 373.97 702.23 373.58 705.25 M 690.99 710.92 C 691.75 711.69 692.83 712.16 693.80 712.69 C 693.72 711.50 693.61 710.26 692.99 709.27 C 691.69 709.09 691.02 709.64 690.99 710.92 Z" />
<path fill="#ffffff" opacity="1.00" d=" M 576.15 227.20 C 580.16 222.57 587.60 221.98 592.53 225.46 C 596.21 228.42 599.18 232.19 601.83 236.08 C 611.54 251.08 620.81 266.35 630.37 281.45 C 635.02 289.50 640.43 297.17 644.11 305.74 C 645.07 311.05 647.96 316.48 645.97 321.91 C 643.64 328.68 638.61 334.07 633.42 338.81 C 633.22 338.80 632.81 338.80 632.61 338.80 C 632.07 336.16 631.89 333.47 631.50 330.81 C 619.67 345.88 609.48 362.16 598.82 378.05 C 595.34 383.61 591.04 388.58 586.55 393.33 C 574.33 379.28 564.42 363.48 553.93 348.15 C 549.10 341.19 544.40 334.15 539.76 327.07 C 538.30 324.70 536.15 321.91 537.26 319.00 C 543.03 307.27 552.30 297.43 556.96 285.13 C 549.13 293.45 543.16 303.26 536.62 312.57 C 534.24 315.54 530.57 316.92 527.28 318.61 C 529.69 301.15 539.27 285.99 548.06 271.11 C 557.09 256.28 564.91 240.55 576.15 227.20 M 561.07 260.06 C 564.38 263.39 568.63 265.65 571.70 269.26 C 575.11 269.76 578.59 269.92 582.05 270.01 C 586.33 270.09 590.30 268.13 593.89 266.01 C 595.40 263.32 593.15 260.16 594.67 257.51 C 596.24 255.38 597.92 253.34 599.30 251.08 C 598.00 244.55 595.68 236.55 588.28 234.80 C 587.70 235.22 586.54 236.08 585.96 236.50 C 583.33 235.68 580.96 233.04 578.04 233.82 C 571.46 241.89 565.85 250.84 561.07 260.06 M 599.32 278.40 C 598.36 279.29 598.99 280.72 598.87 281.85 C 600.30 282.21 601.73 282.55 603.19 282.89 C 603.03 281.34 602.87 279.79 602.71 278.25 C 601.58 278.16 600.16 277.16 599.32 278.40 M 598.22 290.35 C 597.23 291.13 597.15 293.74 598.78 293.71 C 600.01 293.12 600.21 289.38 598.22 290.35 M 616.17 294.29 C 618.19 294.72 620.20 295.25 622.24 295.69 C 622.87 293.53 624.32 289.75 620.93 289.27 C 618.28 289.45 617.39 292.41 616.17 294.29 M 608.24 291.21 C 607.96 291.99 607.69 292.78 607.42 293.58 C 608.58 294.34 609.76 295.08 610.96 295.81 C 611.18 294.34 611.28 292.85 611.04 291.38 C 610.34 291.33 608.94 291.25 608.24 291.21 M 578.41 298.05 C 576.92 299.57 579.06 300.89 579.84 302.06 C 580.85 301.19 582.71 300.82 582.75 299.20 C 583.08 296.88 579.19 295.56 578.41 298.05 M 611.36 301.49 C 612.40 303.86 611.29 306.49 611.05 308.93 C 609.35 312.70 605.97 315.30 602.77 317.74 C 598.14 321.21 593.53 324.85 588.22 327.22 C 586.02 330.89 587.20 335.74 584.18 338.93 C 582.18 341.40 579.37 342.95 576.96 344.96 C 574.99 351.85 582.43 356.46 582.84 362.95 C 583.03 366.32 578.27 366.84 577.75 369.96 C 576.85 372.19 579.18 373.77 579.96 375.64 C 581.99 376.13 584.55 376.98 586.27 375.28 C 587.91 373.93 587.95 371.65 588.49 369.77 C 591.89 370.74 592.79 374.40 594.80 376.89 C 607.83 357.61 620.43 338.00 634.75 319.64 C 635.08 323.38 635.31 327.17 636.24 330.83 C 638.88 326.97 642.30 323.01 642.19 318.05 C 641.68 312.14 638.27 307.06 635.66 301.89 C 628.70 303.29 622.08 307.23 614.87 306.68 C 614.53 303.89 613.79 301.17 613.01 298.47 C 612.11 299.16 610.42 300.10 611.36 301.49 Z" />
<path fill="#ffffff" opacity="1.00" d=" M 453.37 226.33 C 458.08 227.32 462.50 229.77 465.27 233.80 C 478.55 251.19 492.24 268.29 505.24 285.88 C 497.94 282.16 492.63 275.67 487.69 269.33 C 476.64 254.68 465.17 240.37 453.37 226.33 Z" />
<path fill="#ffffff" opacity="1.00" d=" M 326.46 284.78 C 330.39 294.75 331.48 306.60 339.66 314.32 C 347.07 321.82 354.49 329.36 360.72 337.90 C 354.17 335.54 349.49 330.10 344.92 325.12 C 339.16 318.45 332.27 312.33 329.09 303.88 C 326.61 297.84 326.35 291.22 326.46 284.78 Z" />
<path fill="#ffffff" opacity="1.00" d=" M 827.00 346.98 C 831.71 340.14 837.75 333.57 845.79 330.80 C 845.89 335.90 844.94 341.05 842.50 345.57 C 838.26 354.52 830.43 361.52 827.06 370.82 C 832.47 383.22 844.41 392.68 845.52 406.90 C 840.93 405.04 836.89 401.93 833.95 397.95 C 829.18 391.49 825.72 384.20 821.99 377.13 C 819.65 372.02 817.07 366.22 818.72 360.54 C 820.52 355.50 824.02 351.34 827.00 346.98 Z" />
<path fill="#ffffff" opacity="1.00" d=" M 327.61 331.78 C 337.29 336.09 341.09 347.31 341.36 357.19 C 333.43 351.27 326.58 342.20 327.61 331.78 Z" />
<path fill="#ffffff" opacity="1.00" d=" M 696.92 358.01 C 697.18 346.69 706.68 336.82 717.80 335.46 C 722.79 338.90 727.45 342.93 730.85 347.99 C 741.67 363.34 752.38 378.79 762.53 394.60 C 765.56 399.54 769.04 405.09 767.62 411.17 C 765.91 419.96 758.44 425.97 751.29 430.54 C 753.37 425.34 755.92 420.34 757.87 415.10 C 759.28 410.90 756.95 406.75 754.80 403.28 C 749.91 395.82 744.78 388.52 739.83 381.11 C 731.91 370.95 724.94 360.08 716.76 350.11 C 712.50 353.90 708.97 358.34 705.98 363.18 C 711.31 375.16 719.18 385.82 726.17 396.88 C 733.31 408.30 742.06 419.05 746.23 432.05 C 741.89 429.87 738.21 426.49 735.54 422.46 C 729.01 412.66 722.69 402.72 716.12 392.95 C 711.61 387.62 708.17 381.51 704.21 375.78 C 700.67 370.45 696.31 364.80 696.92 358.01 Z" />
<path fill="#ffffff" opacity="1.00" d=" M 434.59 381.51 C 442.21 371.96 448.61 361.42 457.23 352.69 C 459.55 356.35 461.18 360.37 462.82 364.37 C 456.09 375.34 448.91 386.02 441.95 396.84 C 436.28 405.59 430.95 414.71 423.64 422.24 C 420.65 418.57 418.03 414.65 415.33 410.77 C 419.58 404.21 423.30 397.27 428.29 391.21 C 430.91 388.31 432.09 384.49 434.59 381.51 M 422.16 410.41 C 424.12 410.31 426.49 411.41 428.23 410.28 C 430.07 409.31 428.04 407.64 426.85 407.50 C 428.24 404.53 432.30 403.40 432.49 399.88 C 432.99 397.97 432.66 395.37 434.93 394.55 C 434.61 394.23 433.99 393.60 433.68 393.28 C 429.56 398.80 425.71 404.52 422.16 410.41 Z" />
<path fill="#ffffff" opacity="1.00" d=" M 716.29 353.08 C 727.47 367.06 737.14 382.12 747.26 396.86 C 750.37 401.50 753.29 406.27 755.81 411.26 C 756.97 412.53 755.65 413.88 755.03 415.00 C 753.22 417.94 750.99 420.57 748.64 423.09 C 737.59 411.06 730.77 395.95 721.12 382.89 C 718.23 379.36 715.88 375.43 713.45 371.59 C 711.45 368.50 709.89 364.71 710.89 361.00 C 711.95 357.93 714.31 355.58 716.29 353.08 M 725.29 381.42 C 733.43 393.02 740.16 405.56 748.53 417.01 C 749.30 415.78 750.05 414.54 750.81 413.31 C 744.43 401.46 736.22 390.72 728.97 379.41 C 727.74 380.08 726.50 380.74 725.29 381.42 Z" />
<path fill="#ffffff" opacity="1.00" d=" M 682.37 384.26 C 686.01 382.49 689.71 385.35 692.27 387.75 C 696.49 392.64 700.13 398.02 703.63 403.45 C 712.55 417.10 721.54 430.71 730.44 444.36 C 733.61 449.01 733.61 454.78 733.12 460.16 C 731.60 458.89 730.16 457.57 728.68 456.29 C 727.60 457.49 726.52 458.68 725.50 459.92 C 718.27 447.11 710.34 434.69 702.40 422.31 C 697.48 414.40 691.72 407.03 686.94 399.10 C 687.72 398.02 688.63 397.04 689.66 396.18 C 688.87 395.11 688.08 394.05 687.30 393.00 C 682.62 396.61 677.86 400.11 673.28 403.85 C 674.54 396.80 676.18 388.71 682.37 384.26 M 691.06 398.35 C 690.26 399.33 691.54 401.34 692.78 400.80 C 693.46 399.80 692.27 397.85 691.06 398.35 M 692.69 401.54 C 694.69 405.46 696.78 409.62 700.10 412.60 C 698.32 408.57 696.31 404.21 692.69 401.54 M 699.65 412.68 C 701.80 416.49 703.79 420.71 707.28 423.47 C 705.22 419.65 703.35 415.11 699.65 412.68 M 706.61 423.56 C 708.98 427.27 710.63 431.82 714.29 434.45 C 712.21 430.58 710.50 425.93 706.61 423.56 M 714.28 435.28 C 713.73 436.67 715.23 438.90 716.78 438.69 C 717.34 437.33 715.78 434.98 714.28 435.28 M 718.30 441.27 C 718.78 441.79 718.78 441.79 718.30 441.27 M 720.18 444.27 C 720.70 444.76 720.70 444.76 720.18 444.27 M 726.28 453.26 C 726.78 453.76 726.78 453.76 726.28 453.26 Z" />
<path fill="#ffffff" opacity="1.00" d=" M 486.19 395.77 C 493.81 403.38 499.42 412.64 505.61 421.39 C 512.70 431.91 520.14 442.20 526.89 452.94 C 539.21 471.00 551.56 489.04 563.88 507.10 C 571.50 518.11 578.80 529.41 586.95 540.00 C 588.17 538.91 588.89 537.39 589.85 536.08 C 597.67 524.21 606.43 513.03 614.21 501.13 C 626.29 483.57 637.83 465.62 650.51 448.48 C 655.81 441.11 661.18 433.78 665.98 426.08 C 670.41 421.30 672.91 415.16 677.25 410.32 C 680.13 406.34 683.30 402.60 686.54 398.91 C 687.86 401.96 689.86 404.59 691.82 407.26 C 699.58 417.87 706.36 429.16 713.40 440.27 C 713.40 440.82 713.40 441.92 713.40 442.47 L 714.55 442.05 C 717.53 447.45 721.05 452.53 724.06 457.91 C 725.48 459.91 723.65 461.95 722.72 463.70 C 711.64 480.96 700.84 498.40 689.34 515.39 C 655.12 566.83 621.43 618.63 587.85 670.50 C 585.85 669.06 583.81 667.58 582.51 665.46 C 537.08 596.20 491.44 527.08 446.50 457.51 C 455.35 444.35 463.07 430.41 472.40 417.57 C 476.53 410.03 481.65 403.07 486.19 395.77 M 651.93 455.89 C 642.83 468.07 634.64 480.88 626.29 493.57 L 627.31 494.41 C 624.72 502.33 622.11 510.30 618.26 517.72 C 629.90 518.04 641.46 519.45 652.99 520.99 C 654.20 521.08 655.32 521.67 656.44 522.13 C 656.63 524.74 657.92 527.12 660.92 526.11 C 662.74 527.93 663.52 530.34 663.54 532.89 C 663.57 536.09 666.75 537.78 669.29 538.94 C 675.35 529.75 681.26 520.46 687.66 511.51 C 686.13 511.34 684.53 511.51 683.10 510.92 C 681.46 509.59 680.41 507.11 677.97 507.26 C 673.16 507.22 669.60 510.84 665.70 513.09 C 666.88 510.36 669.24 508.45 670.73 505.94 C 669.88 502.71 672.20 499.67 675.16 498.63 C 678.87 496.81 683.87 498.40 686.85 495.12 C 682.66 495.71 678.76 497.55 674.53 497.95 C 673.45 495.14 674.31 492.66 676.76 491.00 C 676.91 488.71 676.48 485.98 678.65 484.48 C 674.41 479.80 675.67 472.59 678.50 467.53 C 682.24 464.89 684.25 469.75 686.98 471.32 C 690.10 468.69 694.32 469.88 698.00 469.12 C 700.66 468.31 702.21 465.84 704.10 463.98 C 706.16 464.72 708.42 464.73 710.47 465.52 C 712.46 466.26 711.79 468.87 712.72 470.37 C 711.57 470.84 710.39 471.25 709.25 471.68 C 709.25 472.94 709.58 474.13 710.28 475.20 C 713.86 470.90 716.63 465.97 719.62 461.25 C 708.66 443.34 697.52 425.54 685.82 408.10 C 673.89 423.57 663.60 440.22 651.93 455.89 M 516.02 466.81 C 514.59 464.93 510.75 463.93 509.94 466.82 C 510.91 469.75 514.50 468.51 516.59 467.68 C 515.60 471.42 512.30 473.39 509.25 475.27 C 506.06 478.02 508.17 482.28 509.47 485.43 C 508.53 487.74 504.86 488.27 505.13 490.98 C 505.70 491.35 506.82 492.09 507.38 492.46 C 506.52 495.79 508.03 498.87 508.56 502.08 C 507.93 506.01 501.34 503.58 501.89 508.10 C 500.13 508.67 497.58 508.67 497.34 511.00 C 495.98 514.78 501.40 516.74 503.97 514.89 C 505.05 513.41 505.18 511.52 505.71 509.82 C 509.84 511.52 514.77 509.93 518.60 512.34 C 522.47 514.86 520.68 520.01 522.45 523.64 C 520.51 524.69 518.77 526.08 517.64 528.00 C 520.95 526.43 523.83 524.10 527.12 522.47 C 528.39 523.47 530.09 524.27 530.61 525.96 C 532.66 531.83 529.71 538.03 530.92 543.98 C 532.18 546.40 535.74 546.06 536.98 543.79 C 538.44 541.52 540.64 538.84 539.34 536.01 C 542.72 532.34 548.10 532.89 552.63 532.68 C 551.57 536.78 557.00 535.16 559.07 534.23 C 559.36 534.59 559.94 535.32 560.23 535.69 C 562.64 537.28 563.52 533.29 565.91 533.76 C 568.98 533.67 572.06 533.76 575.14 533.79 C 557.27 507.44 539.24 481.19 521.46 454.78 C 518.07 457.81 517.46 462.70 516.02 466.81 M 694.20 496.15 C 694.44 496.66 694.91 497.68 695.14 498.19 C 695.76 497.78 697.01 496.97 697.63 496.56 C 696.59 495.67 695.41 495.65 694.20 496.15 M 499.24 500.63 C 501.39 500.34 503.54 500.00 505.67 499.58 C 505.40 499.26 504.87 498.63 504.60 498.32 C 502.60 498.49 500.57 499.01 499.24 500.63 M 488.82 504.37 C 490.69 507.15 494.28 505.94 495.95 503.58 C 493.52 503.14 490.99 503.00 488.82 504.37 M 630.64 526.38 C 629.25 531.52 627.04 536.83 628.28 542.24 C 631.18 540.71 628.50 535.91 631.76 534.62 C 631.82 536.75 632.34 538.84 632.82 540.92 C 633.97 541.43 635.12 541.95 636.29 542.46 C 636.34 540.04 636.82 537.47 635.83 535.17 C 634.93 533.81 633.63 532.77 632.76 531.41 C 632.34 529.36 632.31 527.24 631.98 525.19 C 631.65 525.48 630.98 526.08 630.64 526.38 M 652.72 531.66 C 651.97 532.66 653.42 533.17 653.93 533.88 C 656.29 533.22 658.69 532.65 660.87 531.49 C 658.80 529.27 654.22 528.30 652.72 531.66 M 657.12 538.11 C 654.31 540.13 653.25 543.65 650.76 546.00 C 650.47 547.70 652.02 548.96 652.70 550.39 C 656.66 551.13 658.86 547.59 661.93 545.89 C 662.79 544.06 663.24 541.95 663.01 539.94 C 662.17 537.75 659.05 537.12 657.12 538.11 M 627.02 549.30 C 627.91 548.50 628.79 547.68 629.66 546.86 C 629.38 545.48 629.14 544.11 628.88 542.73 C 627.27 544.47 626.07 546.92 627.02 549.30 M 590.26 563.03 C 589.52 564.56 589.40 566.29 589.98 567.90 C 588.53 569.94 589.40 572.63 588.02 574.66 C 585.52 578.50 586.97 583.35 585.31 587.50 C 583.59 591.22 588.47 595.13 591.72 592.92 C 595.50 589.33 594.48 583.70 595.45 579.09 C 597.28 575.46 597.15 571.12 599.63 567.78 C 599.11 561.25 603.93 554.09 599.45 548.19 C 595.26 552.33 592.40 557.60 590.26 563.03 M 625.13 550.44 C 623.48 553.39 628.40 550.74 625.13 550.44 M 641.07 557.10 C 641.14 557.86 641.29 559.38 641.36 560.14 C 645.08 560.64 649.64 555.09 646.63 552.26 C 643.94 552.36 642.52 555.21 641.07 557.10 M 620.70 563.98 C 621.18 566.76 624.18 569.19 622.73 572.10 C 622.57 573.74 625.56 573.19 625.82 571.89 C 628.82 566.19 628.84 559.28 625.88 553.56 C 625.11 553.53 623.55 553.49 622.78 553.47 C 621.17 556.70 620.25 560.36 620.70 563.98 M 619.19 587.18 C 616.57 587.91 619.36 590.92 621.03 589.65 C 622.27 588.53 620.48 586.76 619.19 587.18 M 566.50 633.90 C 572.88 643.74 579.29 653.56 585.73 663.37 C 587.22 661.55 589.93 661.27 590.98 659.04 C 593.80 655.33 595.75 650.76 595.55 646.07 C 592.38 639.42 586.09 634.49 579.54 631.38 C 575.09 629.15 570.23 631.29 566.50 633.90 Z" />
<path fill="#ffffff" opacity="1.00" d=" M 370.89 903.84 C 378.12 897.46 387.85 895.17 397.24 894.45 C 397.26 902.57 397.25 910.69 397.25 918.82 C 393.06 919.68 390.00 923.05 388.86 927.08 C 385.87 936.39 385.92 946.36 386.16 956.04 C 386.61 963.28 387.01 970.93 390.68 977.37 C 392.03 979.86 394.74 980.95 397.25 981.90 C 397.25 989.95 397.25 998.00 397.25 1006.06 C 388.41 1005.41 379.25 1003.47 372.20 997.77 C 369.28 995.30 366.00 992.69 364.45 989.15 C 365.21 985.56 365.97 981.98 366.14 978.32 C 362.88 978.05 361.97 974.80 360.42 972.52 C 359.32 971.54 357.94 971.00 356.75 970.18 C 354.68 959.94 354.66 949.35 355.49 938.97 C 356.54 926.08 360.65 912.43 370.89 903.84 Z" />
<path fill="#ffffff" opacity="1.00" d=" M 403.21 894.55 C 414.38 894.98 425.90 898.79 433.37 907.48 C 443.89 919.64 445.65 936.57 445.50 952.02 C 445.34 967.08 442.84 983.68 431.72 994.79 C 424.39 1002.37 413.78 1005.41 403.52 1006.06 C 403.53 1004.83 403.55 1003.61 403.58 1002.42 C 406.44 1000.69 405.70 996.91 406.23 994.13 C 405.04 994.70 404.06 995.60 403.21 996.62 C 403.31 991.67 403.18 986.73 403.30 981.80 C 409.57 980.35 412.18 973.67 413.08 967.96 C 414.97 956.41 414.94 944.51 413.15 932.95 C 412.31 927.11 409.66 920.26 403.25 918.80 C 403.23 910.72 403.30 902.63 403.21 894.55 Z" />
<path fill="#ffffff" opacity="1.00" d=" M 856.67 901.74 C 863.47 896.75 872.03 895.20 880.24 894.45 C 880.25 902.58 880.26 910.70 880.24 918.83 C 873.68 920.05 871.31 927.03 870.38 932.80 C 868.52 944.48 868.52 956.52 870.46 968.20 C 871.50 973.32 873.23 979.67 878.91 981.35 C 880.90 981.55 880.70 984.45 878.80 984.68 C 876.13 985.64 873.98 987.36 873.07 990.13 C 869.20 990.06 867.26 984.93 863.08 986.36 C 858.90 988.56 856.11 992.59 852.81 995.84 C 849.07 992.17 845.64 987.95 843.94 982.94 C 842.30 977.06 841.79 970.94 840.47 965.00 C 839.88 963.29 838.24 962.02 838.34 960.11 C 837.64 949.35 837.85 938.43 840.20 927.88 C 842.58 917.70 847.77 907.66 856.67 901.74 Z" />
<path fill="#ffffff" opacity="1.00" d=" M 886.25 918.80 C 886.30 910.68 886.15 902.56 886.33 894.45 C 896.78 895.15 907.58 898.24 915.00 906.03 C 925.97 917.31 928.44 933.91 928.47 949.02 C 926.16 951.50 926.22 955.07 927.24 958.12 C 928.65 961.68 927.50 965.50 927.02 969.14 C 925.26 969.57 923.47 969.93 921.70 970.18 C 920.00 968.94 917.80 968.46 916.25 970.20 C 913.55 972.29 910.57 974.66 906.91 974.08 C 902.36 973.51 901.06 967.16 896.18 967.46 C 897.96 955.74 897.99 943.66 895.96 931.97 C 895.09 926.42 892.26 920.16 886.25 918.80 Z" />
<path fill="#ffffff" opacity="1.00" d=" M 256.50 897.75 C 266.08 897.75 275.67 897.75 285.25 897.75 C 285.29 932.71 285.17 967.67 285.31 1002.63 C 275.69 1002.84 266.06 1002.78 256.45 1002.66 C 256.57 967.69 256.46 932.72 256.50 897.75 Z" />
<path fill="#ffffff" opacity="1.00" d=" M 291.37 920.74 C 291.42 913.07 291.29 905.39 291.44 897.72 C 304.04 897.99 317.33 897.16 329.06 902.56 C 335.01 905.14 339.24 910.77 340.43 917.10 C 342.28 926.92 340.93 939.04 331.99 945.11 C 330.66 946.40 327.84 946.58 327.26 948.28 C 333.22 949.92 339.01 953.74 340.95 959.91 C 342.73 965.63 344.39 972.48 340.94 977.89 C 338.49 982.27 341.45 987.94 337.79 991.77 C 333.81 997.19 327.32 1000.00 320.90 1001.32 C 311.19 1003.30 301.22 1002.62 291.37 1002.75 C 291.36 994.85 291.42 986.95 291.34 979.05 C 295.90 978.89 300.47 979.14 305.02 978.93 C 308.36 978.79 312.03 976.74 312.57 973.19 C 313.31 968.94 313.09 963.25 308.88 960.85 C 303.37 958.46 297.19 959.87 291.38 959.51 C 291.37 953.25 291.38 947.00 291.38 940.75 C 296.87 940.48 302.83 941.64 307.93 939.05 C 311.09 936.85 311.57 932.63 311.31 929.09 C 311.28 925.82 309.44 922.23 306.07 921.41 C 301.28 920.16 296.26 920.97 291.37 920.74 Z" />
<path fill="#ffffff" opacity="1.00" d=" M 448.67 897.76 C 459.50 897.73 470.32 897.76 481.14 897.75 C 500.54 932.74 520.00 967.70 539.32 1002.74 C 528.06 1002.74 516.81 1002.77 505.56 1002.73 C 491.44 976.52 477.21 950.36 462.98 924.21 C 469.58 929.91 477.70 933.60 486.17 935.51 C 482.90 933.29 479.22 931.37 477.02 927.96 C 473.81 922.92 468.86 919.43 464.26 915.77 C 461.65 913.62 458.27 912.63 455.67 910.54 C 453.19 906.36 451.02 902.01 448.67 897.76 Z" />
<path fill="#ffffff" opacity="1.00" d=" M 501.94 905.42 C 502.99 902.74 504.46 900.25 505.86 897.75 C 516.71 897.75 527.55 897.74 538.39 897.75 C 530.15 912.95 521.74 928.04 513.56 943.27 C 508.47 934.84 504.03 926.04 499.12 917.51 C 502.12 920.12 506.55 919.53 509.75 917.62 C 512.04 913.54 510.81 908.30 507.08 905.55 C 505.36 905.59 503.65 905.54 501.94 905.42 Z" />
<path fill="#ffffff" opacity="1.00" d=" M 607.60 897.75 C 617.75 897.75 627.89 897.74 638.04 897.75 C 647.50 930.51 657.14 963.22 666.47 996.01 C 665.29 998.22 664.20 1000.48 663.13 1002.76 C 656.26 1002.70 649.39 1002.84 642.52 1002.68 C 640.99 1000.46 638.81 998.90 636.72 997.30 C 635.49 995.05 635.11 992.41 634.31 989.99 C 627.24 989.99 620.16 990.03 613.09 989.97 C 614.60 984.98 616.19 980.00 617.49 974.95 C 617.05 977.40 619.11 978.12 621.15 978.17 C 620.11 975.65 617.44 973.32 618.88 970.45 C 622.16 970.51 625.44 970.49 628.73 970.51 C 621.69 946.25 614.66 922.00 607.60 897.75 Z" />
<path fill="#ffffff" opacity="1.00" d=" M 663.12 897.75 C 691.00 897.76 718.88 897.73 746.76 897.77 C 746.74 906.42 746.75 915.09 746.75 923.75 C 722.07 923.76 697.40 923.73 672.72 923.77 C 671.66 918.95 669.92 913.57 664.88 911.61 C 663.27 915.54 663.81 919.83 663.49 923.97 C 663.11 915.23 663.08 906.49 663.12 897.75 Z" />
<path fill="#ffffff" opacity="1.00" d=" M 759.36 992.01 C 759.70 960.59 759.36 929.16 759.53 897.74 C 769.57 897.73 779.61 897.80 789.65 897.70 C 789.88 932.71 789.68 967.73 789.75 1002.75 C 779.79 1002.74 769.83 1002.76 759.88 1002.74 C 762.04 997.33 765.85 992.90 769.98 988.89 C 769.29 988.80 767.90 988.63 767.21 988.54 C 770.92 987.14 774.57 984.30 775.15 980.13 C 775.90 975.98 776.71 971.85 777.71 967.77 C 774.36 969.59 772.04 972.72 769.79 975.70 C 766.00 980.92 762.25 986.22 759.36 992.01 Z" />
<path fill="#ffffff" opacity="1.00" d=" M 602.39 901.72 C 607.48 918.40 612.14 935.22 617.03 951.97 C 617.38 955.76 615.35 959.41 614.53 963.09 C 613.98 961.62 613.06 960.45 611.77 959.57 C 611.49 954.60 609.78 949.80 607.26 945.54 C 605.70 943.16 603.59 940.92 603.57 937.89 C 603.57 935.63 601.66 934.27 600.14 932.94 C 601.02 936.35 601.89 939.82 604.21 942.58 C 606.43 950.13 611.28 956.59 612.92 964.33 L 614.63 963.30 C 610.78 976.40 607.27 989.60 603.57 1002.74 C 593.42 1002.75 583.26 1002.75 573.11 1002.75 C 582.90 969.08 592.59 935.38 602.39 901.72 Z" />
<path fill="#ffffff" opacity="1.00" d=" M 689.75 929.75 C 699.83 929.74 709.91 929.75 720.00 929.75 C 720.01 945.83 719.98 961.92 720.01 978.00 C 720.40 980.54 718.16 982.30 717.84 984.72 C 717.28 984.56 716.16 984.25 715.60 984.09 C 716.51 987.22 717.35 990.38 717.99 993.60 C 715.74 996.11 715.71 999.65 714.84 1002.76 C 706.49 1002.74 698.15 1002.73 689.80 1002.77 C 689.68 978.43 689.78 954.09 689.75 929.75 M 707.69 956.09 C 706.74 958.88 709.33 961.51 711.86 962.24 C 714.43 962.55 716.93 961.73 719.36 960.96 C 718.16 957.59 717.74 953.81 715.13 951.15 C 712.23 952.03 709.43 953.53 707.69 956.09 Z" />
<path fill="#ffffff" opacity="1.00" d=" M 473.45 956.32 C 479.12 966.30 484.53 976.45 489.86 986.62 C 486.96 991.94 484.15 997.31 481.45 1002.74 C 470.22 1002.77 459.00 1002.73 447.77 1002.76 C 456.07 987.14 465.05 971.88 473.45 956.32 Z" />
<path fill="#ffffff" opacity="1.00" d=" M 795.92 976.24 C 807.02 976.26 818.13 976.25 829.23 976.24 C 829.25 985.08 829.27 993.92 829.23 1002.76 C 818.11 1002.73 806.99 1002.75 795.88 1002.75 C 795.89 993.91 795.82 985.07 795.92 976.24 Z" />
<path fill="#ffffff" opacity="1.00" d=" M 321.20 1041.67 C 327.07 1042.01 334.41 1041.39 338.25 1046.81 C 340.94 1051.46 340.92 1057.69 338.53 1062.46 C 334.82 1068.08 327.24 1068.28 321.18 1068.31 C 321.10 1065.28 321.12 1062.27 321.13 1059.26 C 323.54 1059.00 326.97 1060.19 328.33 1057.51 C 329.08 1055.39 329.06 1052.43 326.86 1051.19 C 324.97 1050.78 323.03 1050.76 321.11 1050.67 C 321.12 1047.66 321.10 1044.66 321.20 1041.67 Z" />
<path fill="#ffffff" opacity="1.00" d=" M 521.18 1041.66 C 526.08 1042.08 531.66 1041.87 535.54 1045.40 C 539.35 1049.56 539.55 1055.64 539.73 1060.97 C 539.60 1066.44 539.54 1072.62 535.87 1077.06 C 532.08 1080.95 526.18 1080.93 521.13 1081.04 C 521.15 1078.01 521.02 1074.98 521.19 1071.97 C 523.61 1071.45 527.09 1071.60 527.70 1068.49 C 528.50 1063.73 528.57 1058.72 527.60 1053.98 C 526.79 1051.13 523.43 1051.27 521.10 1050.86 C 521.13 1047.78 521.10 1044.71 521.18 1041.66 Z" />
<path fill="#ffffff" opacity="1.00" d=" M 749.37 1044.35 C 752.07 1041.78 755.80 1040.92 759.38 1040.50 C 759.37 1043.50 759.40 1046.52 759.31 1049.54 C 758.30 1050.38 756.87 1050.98 756.47 1052.36 C 754.81 1057.42 755.12 1062.92 755.83 1068.13 C 756.02 1070.46 757.54 1072.28 759.40 1073.57 C 759.36 1076.48 759.37 1079.41 759.37 1082.34 C 755.84 1081.86 752.16 1081.06 749.49 1078.55 C 744.57 1074.22 743.67 1067.17 743.74 1060.98 C 743.79 1055.11 744.75 1048.47 749.37 1044.35 Z" />
<path fill="#ffffff" opacity="1.00" d=" M 761.62 1040.48 C 767.60 1040.74 773.59 1044.13 775.63 1049.99 C 778.10 1057.31 778.14 1065.61 775.58 1072.93 C 773.51 1078.72 767.57 1082.04 761.64 1082.36 C 761.61 1079.35 761.59 1076.34 761.69 1073.34 C 763.91 1072.41 765.13 1070.19 765.37 1067.88 C 765.92 1062.76 766.41 1057.37 764.68 1052.42 C 764.32 1050.92 762.76 1050.35 761.68 1049.53 C 761.59 1046.51 761.61 1043.49 761.62 1040.48 Z" />
<path fill="#ffffff" opacity="1.00" d=" M 796.19 1041.68 C 800.81 1041.88 805.65 1041.63 810.02 1043.44 C 817.42 1046.37 817.03 1059.28 809.30 1061.58 C 811.94 1062.10 814.40 1064.03 814.68 1066.86 C 815.23 1071.54 815.07 1076.30 815.66 1081.00 C 811.80 1080.99 807.94 1081.02 804.09 1080.96 C 803.84 1077.44 803.98 1073.89 803.48 1070.40 C 802.51 1067.34 798.55 1068.22 796.11 1067.65 C 796.12 1064.85 796.12 1062.05 796.13 1059.26 C 798.52 1059.00 801.91 1060.18 803.32 1057.55 C 804.08 1055.43 804.07 1052.45 801.87 1051.19 C 799.97 1050.78 798.04 1050.76 796.13 1050.68 C 796.12 1047.67 796.10 1044.67 796.19 1041.68 Z" />
<path fill="#ffffff" opacity="1.00" d=" M 822.33 1050.52 C 824.15 1044.50 830.12 1040.80 836.23 1040.61 C 836.22 1043.46 836.38 1046.31 836.16 1049.17 C 832.06 1052.49 832.19 1058.16 832.30 1062.97 C 832.48 1066.65 832.56 1071.23 836.21 1073.32 C 836.27 1076.32 836.25 1079.34 836.24 1082.36 C 830.54 1081.93 824.79 1078.81 822.71 1073.25 C 820.01 1066.05 820.09 1057.83 822.33 1050.52 Z" />
<path fill="#ffffff" opacity="1.00" d=" M 838.52 1040.58 C 842.12 1040.91 845.93 1041.74 848.64 1044.32 C 851.53 1046.82 852.61 1050.66 853.46 1054.25 C 849.84 1054.85 846.24 1055.51 842.60 1055.97 C 842.04 1053.39 841.55 1050.36 838.58 1049.57 C 838.46 1046.56 838.48 1043.57 838.52 1040.58 Z" />
<path fill="#ffffff" opacity="1.00" d=" M 308.00 1041.75 C 311.62 1041.74 315.25 1041.74 318.88 1041.75 C 318.88 1054.83 318.86 1067.91 318.88 1080.99 C 315.25 1081.00 311.63 1080.99 308.00 1081.00 C 308.00 1067.91 308.00 1054.83 308.00 1041.75 Z" />
<path fill="#ffffff" opacity="1.00" d=" M 350.37 1041.75 C 354.13 1041.74 357.90 1041.74 361.67 1041.75 C 365.45 1054.83 369.28 1067.91 373.05 1081.00 C 369.34 1080.94 365.62 1081.12 361.92 1080.93 C 360.91 1079.63 360.89 1077.78 360.33 1076.28 C 357.71 1076.24 355.08 1076.24 352.46 1076.25 C 353.14 1073.86 353.83 1071.49 354.46 1069.11 C 355.72 1069.03 356.98 1068.98 358.25 1068.95 C 355.59 1059.89 352.99 1050.81 350.37 1041.75 Z" />
<path fill="#ffffff" opacity="1.00" d=" M 377.00 1041.75 C 380.75 1041.74 384.50 1041.74 388.25 1041.75 C 388.25 1054.83 388.25 1067.91 388.25 1081.00 C 384.50 1080.99 380.75 1080.99 377.00 1081.00 C 377.00 1067.91 377.00 1054.83 377.00 1041.75 Z" />
<path fill="#ffffff" opacity="1.00" d=" M 408.12 1041.77 C 410.26 1041.74 412.39 1041.73 414.54 1041.70 C 416.09 1047.79 417.71 1053.87 419.01 1060.02 C 419.30 1067.00 419.04 1074.00 419.12 1081.00 C 415.45 1080.99 411.79 1081.00 408.12 1080.99 C 408.13 1067.92 408.12 1054.84 408.12 1041.77 Z" />
<path fill="#ffffff" opacity="1.00" d=" M 416.95 1041.75 C 419.86 1041.74 422.78 1041.74 425.70 1041.75 C 428.86 1054.85 432.16 1067.91 435.37 1080.99 C 432.54 1080.72 429.09 1081.57 426.61 1080.59 C 423.23 1067.69 420.14 1054.70 416.95 1041.75 Z" />
<path fill="#ffffff" opacity="1.00" d=" M 435.98 1041.75 C 438.90 1041.74 441.81 1041.74 444.73 1041.74 C 442.07 1053.15 438.99 1064.45 436.41 1075.88 C 435.01 1069.91 433.21 1064.02 432.14 1057.99 C 433.17 1052.52 434.81 1047.19 435.98 1041.75 Z" />
<path fill="#ffffff" opacity="1.00" d=" M 447.04 1041.76 C 449.17 1041.74 451.31 1041.73 453.45 1041.73 C 453.59 1054.79 453.41 1067.86 453.54 1080.93 C 449.86 1081.03 446.18 1081.00 442.50 1081.00 C 442.59 1074.03 442.31 1067.05 442.62 1060.10 C 443.95 1053.95 445.67 1047.89 447.04 1041.76 Z" />
<path fill="#ffffff" opacity="1.00" d=" M 470.36 1041.74 C 474.08 1041.75 477.80 1041.78 481.53 1041.68 C 485.59 1054.71 489.18 1067.90 493.06 1080.99 C 489.27 1081.00 485.49 1080.98 481.71 1081.02 C 481.24 1079.44 480.79 1077.86 480.37 1076.30 C 477.73 1076.23 475.09 1076.24 472.46 1076.24 C 473.14 1073.86 473.83 1071.50 474.45 1069.12 C 475.71 1069.04 476.98 1068.98 478.25 1068.95 C 475.58 1059.89 472.99 1050.81 470.36 1041.74 Z" />
<path fill="#ffffff" opacity="1.00" d=" M 508.00 1041.75 C 511.66 1041.74 515.33 1041.74 519.00 1041.75 C 519.00 1054.83 519.00 1067.91 519.00 1081.00 C 515.33 1080.99 511.66 1080.99 508.00 1081.00 C 508.00 1067.91 508.00 1054.83 508.00 1041.75 Z" />
<path fill="#ffffff" opacity="1.00" d=" M 546.00 1041.75 C 549.58 1041.74 553.17 1041.73 556.76 1041.77 C 556.76 1054.83 556.71 1067.89 556.79 1080.95 C 553.19 1081.01 549.59 1081.00 546.00 1081.00 C 546.00 1067.91 546.00 1054.83 546.00 1041.75 Z" />
<path fill="#ffffff" opacity="1.00" d=" M 559.00 1041.75 C 564.54 1041.74 570.07 1041.75 575.61 1041.75 C 575.62 1044.82 575.62 1047.91 575.62 1051.00 C 570.08 1051.00 564.54 1051.00 559.00 1051.00 C 559.00 1047.91 559.00 1044.83 559.00 1041.75 Z" />
<path fill="#ffffff" opacity="1.00" d=" M 595.12 1041.77 C 597.25 1041.74 599.38 1041.73 601.52 1041.70 C 603.10 1047.79 604.71 1053.88 606.01 1060.04 C 606.30 1067.02 606.04 1074.01 606.12 1081.00 C 602.45 1081.00 598.78 1081.00 595.11 1080.98 C 595.14 1067.91 595.12 1054.84 595.12 1041.77 Z" />
<path fill="#ffffff" opacity="1.00" d=" M 603.95 1041.76 C 606.72 1041.76 609.50 1041.64 612.29 1041.79 C 613.24 1042.47 613.10 1043.95 613.52 1045.00 C 616.37 1057.02 619.44 1068.99 622.38 1081.00 C 619.47 1080.99 616.56 1080.99 613.66 1081.02 C 610.38 1067.94 607.14 1054.86 603.95 1041.76 Z" />
<path fill="#ffffff" opacity="1.00" d=" M 622.99 1041.75 C 625.89 1041.74 628.80 1041.74 631.72 1041.74 C 629.08 1053.14 626.01 1064.44 623.41 1075.85 C 622.00 1069.89 620.20 1064.01 619.13 1057.99 C 620.17 1052.52 621.81 1047.19 622.99 1041.75 Z" />
<path fill="#ffffff" opacity="1.00" d=" M 634.04 1041.76 C 636.17 1041.74 638.31 1041.73 640.45 1041.73 C 640.54 1054.82 640.52 1067.92 640.46 1081.01 C 636.81 1080.99 633.15 1080.99 629.50 1081.00 C 629.58 1074.06 629.32 1067.10 629.61 1060.17 C 630.93 1054.00 632.66 1047.92 634.04 1041.76 Z" />
<path fill="#ffffff" opacity="1.00" d=" M 657.37 1041.75 C 661.14 1041.74 664.92 1041.73 668.70 1041.78 C 672.43 1054.86 676.30 1067.92 680.05 1081.00 C 676.27 1080.99 672.49 1080.98 668.71 1081.02 C 668.24 1079.44 667.78 1077.85 667.35 1076.29 C 664.72 1076.24 662.09 1076.24 659.46 1076.24 C 660.14 1073.86 660.83 1071.49 661.47 1069.10 C 662.72 1069.03 663.98 1068.98 665.25 1068.95 C 662.59 1059.89 659.98 1050.82 657.37 1041.75 Z" />
<path fill="#ffffff" opacity="1.00" d=" M 684.00 1041.75 C 687.75 1041.74 691.50 1041.74 695.25 1041.75 C 695.25 1054.83 695.25 1067.91 695.25 1081.00 C 691.50 1080.99 687.75 1080.99 684.00 1081.00 C 684.00 1067.91 684.00 1054.83 684.00 1041.75 Z" />
<path fill="#ffffff" opacity="1.00" d=" M 715.00 1041.75 C 718.75 1041.74 722.50 1041.74 726.25 1041.75 C 726.25 1054.83 726.25 1067.91 726.25 1081.00 C 722.50 1080.99 718.75 1080.99 715.00 1081.00 C 715.00 1067.91 715.00 1054.83 715.00 1041.75 Z" />
<path fill="#ffffff" opacity="1.00" d=" M 783.00 1041.75 C 786.62 1041.74 790.25 1041.74 793.88 1041.75 C 793.87 1054.83 793.87 1067.91 793.88 1081.00 C 790.25 1081.00 786.62 1080.99 783.00 1081.00 C 783.00 1067.91 783.00 1054.83 783.00 1041.75 Z" />
<path fill="#ffffff" opacity="1.00" d=" M 867.36 1041.75 C 871.12 1041.74 874.90 1041.74 878.68 1041.75 C 882.45 1054.84 886.28 1067.91 890.06 1080.99 C 886.36 1080.93 882.65 1081.15 878.97 1080.90 C 877.83 1079.79 877.94 1077.74 877.35 1076.30 C 874.71 1076.24 872.08 1076.24 869.45 1076.24 C 870.13 1073.86 870.84 1071.49 871.47 1069.10 C 872.72 1069.03 873.98 1068.98 875.25 1068.95 C 872.58 1059.89 870.00 1050.81 867.36 1041.75 Z" />
<path fill="#ffffff" opacity="1.00" d=" M 337.49 1081.00 C 341.20 1068.40 344.65 1055.72 348.50 1043.17 C 350.10 1049.50 352.17 1055.71 353.82 1062.04 C 352.79 1068.46 350.35 1074.63 348.84 1080.98 C 345.06 1081.00 341.27 1080.99 337.49 1081.00 Z" />
<path fill="#ffffff" opacity="1.00" d=" M 457.49 1081.00 C 461.20 1068.40 464.65 1055.73 468.49 1043.18 C 470.06 1049.17 471.90 1055.09 473.59 1061.05 C 474.15 1062.38 473.61 1063.80 473.29 1065.14 C 471.78 1070.41 470.28 1075.69 468.84 1080.98 C 465.05 1081.00 461.27 1080.99 457.49 1081.00 Z" />
<path fill="#ffffff" opacity="1.00" d=" M 644.49 1081.00 C 648.18 1068.40 651.69 1055.75 655.45 1043.18 C 657.10 1049.14 658.87 1055.07 660.59 1061.02 C 661.16 1062.35 660.60 1063.79 660.29 1065.13 C 658.78 1070.41 657.28 1075.68 655.84 1080.98 C 652.05 1081.00 648.27 1080.99 644.49 1081.00 Z" />
<path fill="#ffffff" opacity="1.00" d=" M 865.48 1043.18 C 867.07 1049.78 869.58 1056.19 870.84 1062.85 C 869.32 1068.93 867.44 1074.92 865.83 1080.99 C 862.05 1081.00 858.26 1080.99 854.49 1081.00 C 858.19 1068.40 861.66 1055.74 865.48 1043.18 Z" />
<path fill="#ffffff" opacity="1.00" d=" M 559.02 1056.23 C 562.81 1056.25 566.60 1056.24 570.39 1056.27 C 570.37 1059.26 570.38 1062.25 570.34 1065.26 C 566.56 1065.24 562.78 1065.25 559.00 1065.25 C 558.99 1062.24 558.99 1059.23 559.02 1056.23 Z" />
<path fill="#ffffff" opacity="1.00" d=" M 842.68 1066.12 C 846.32 1066.65 849.95 1067.28 853.59 1067.88 C 852.70 1071.90 851.60 1076.42 848.06 1078.99 C 845.36 1081.19 841.84 1081.81 838.50 1082.28 C 838.49 1079.31 838.47 1076.35 838.55 1073.40 C 841.59 1072.25 842.36 1069.00 842.68 1066.12 Z" />
<path fill="#ffffff" opacity="1.00" d=" M 390.48 1071.27 C 394.64 1071.23 398.80 1071.26 402.97 1071.23 C 403.01 1074.48 403.00 1077.73 403.00 1081.00 C 398.81 1080.99 394.62 1081.06 390.44 1080.91 C 390.51 1077.69 390.51 1074.48 390.48 1071.27 Z" />
<path fill="#ffffff" opacity="1.00" d=" M 559.06 1071.46 C 564.58 1071.53 570.10 1071.48 575.62 1071.50 C 575.62 1074.64 575.61 1077.79 575.66 1080.95 C 570.10 1081.04 564.55 1080.98 559.00 1081.00 C 558.99 1077.81 558.97 1074.63 559.06 1071.46 Z" />
<path fill="#ffffff" opacity="1.00" d=" M 697.49 1071.26 C 701.64 1071.23 705.80 1071.27 709.96 1071.22 C 710.01 1074.47 710.00 1077.73 710.00 1081.00 C 705.81 1080.99 701.63 1081.05 697.45 1080.92 C 697.51 1077.70 697.50 1074.48 697.49 1071.26 Z" />
<path fill="#ffffff" opacity="1.00" d=" M 728.49 1071.26 C 732.65 1071.24 736.81 1071.25 740.98 1071.24 C 741.00 1074.48 741.00 1077.74 741.00 1081.00 C 736.81 1080.99 732.63 1081.04 728.45 1080.93 C 728.51 1077.70 728.50 1074.48 728.49 1071.26 Z" />
</g>
<g id="#ff0e00ff">
<path fill="#ff0e00" opacity="1.00" d=" M 285.13 224.30 L 285.29 224.32 C 292.16 225.67 299.19 224.77 306.13 225.10 C 303.31 228.63 300.56 232.23 297.71 235.74 C 291.11 234.25 284.31 235.44 277.63 234.67 C 279.87 231.03 282.49 227.65 285.13 224.30 Z" />
</g>
<g id="#ff1900ff">
<path fill="#ff1900" opacity="1.00" d=" M 867.54 233.29 C 874.41 232.33 881.34 233.04 888.25 232.61 C 890.94 236.38 893.68 240.12 896.27 243.96 C 889.41 244.07 882.56 243.77 875.71 244.19 C 873.11 240.46 870.35 236.85 867.54 233.29 Z" />
</g>
<g id="#ff1a00ff">
<path fill="#ff1a00" opacity="1.00" d=" M 277.32 234.65 L 277.63 234.67 C 284.31 235.44 291.11 234.25 297.71 235.74 C 295.50 238.54 293.42 241.44 291.37 244.35 C 284.55 243.87 277.71 244.11 270.88 243.99 C 273.00 240.86 275.30 237.85 277.32 234.65 Z" />
</g>
<g id="#ff2800ff">
<path fill="#ff2800" opacity="1.00" d=" M 270.88 243.99 C 277.71 244.11 284.55 243.87 291.37 244.35 C 289.05 247.65 286.66 250.90 284.46 254.29 C 277.87 253.68 271.24 254.23 264.65 253.79 C 266.68 250.49 268.80 247.25 270.88 243.99 Z" />
</g>
<g id="#ff2600ff">
<path fill="#ff2600" opacity="1.00" d=" M 875.71 244.19 C 882.56 243.77 889.41 244.07 896.27 243.96 C 898.35 247.16 900.53 250.32 902.36 253.68 C 895.96 254.52 889.40 253.14 883.13 254.90 C 880.76 251.26 878.21 247.74 875.71 244.19 Z" />
</g>
<g id="#ff3400ff">
<path fill="#ff3400" opacity="1.00" d=" M 259.03 262.98 C 260.76 259.84 262.62 256.75 264.65 253.79 C 271.24 254.23 277.87 253.68 284.46 254.29 C 282.52 257.33 280.60 260.38 278.63 263.41 C 272.11 262.73 265.56 263.10 259.03 262.98 Z" />
<path fill="#ff3400" opacity="1.00" d=" M 883.13 254.90 C 889.40 253.14 895.96 254.52 902.36 253.68 L 902.71 253.66 C 904.52 256.77 906.46 259.81 908.20 262.97 C 901.65 263.07 895.09 262.81 888.55 263.30 C 886.72 260.51 884.91 257.71 883.13 254.90 Z" />
</g>
<g id="#ff4100ff">
<path fill="#ff4100" opacity="1.00" d=" M 259.03 262.98 C 265.56 263.10 272.11 262.73 278.63 263.41 C 276.20 267.11 273.99 270.95 271.79 274.79 C 265.57 273.22 259.12 274.34 252.79 273.89 C 254.85 270.24 256.93 266.61 259.03 262.98 Z" />
<path fill="#ff4100" opacity="1.00" d=" M 888.55 263.30 C 895.09 262.81 901.65 263.07 908.20 262.97 C 910.25 266.57 912.30 270.17 914.35 273.77 C 908.00 274.41 901.55 273.22 895.29 274.69 C 893.09 270.86 890.96 267.00 888.55 263.30 Z" />
<path fill="#ff4100" opacity="1.00" d=" M 251.84 592.25 C 253.30 595.79 254.91 599.26 256.48 602.76 C 250.30 603.26 244.11 602.94 237.92 602.99 C 236.46 599.73 235.13 596.41 233.88 593.07 C 239.87 592.88 245.94 593.61 251.84 592.25 Z" />
</g>
<g id="#ff4e00ff">
<path fill="#ff4e00" opacity="1.00" d=" M 252.79 273.89 C 259.12 274.34 265.57 273.22 271.79 274.79 C 270.08 277.77 268.35 280.75 266.77 283.80 C 260.60 282.47 254.28 283.28 248.04 283.08 C 249.56 279.98 251.20 276.95 252.79 273.89 Z" />
<path fill="#ff4e00" opacity="1.00" d=" M 895.29 274.69 C 901.55 273.22 908.00 274.41 914.35 273.77 C 916.02 276.81 917.53 279.93 919.09 283.03 C 912.86 283.33 906.55 282.28 900.41 283.72 C 898.76 280.68 896.98 277.70 895.29 274.69 Z" />
</g>
<g id="#ff6000ff">
<path fill="#ff6000" opacity="1.00" d=" M 248.04 283.08 C 254.28 283.28 260.60 282.47 266.77 283.80 C 263.96 289.24 261.16 294.67 258.50 300.18 C 252.33 299.70 246.14 299.94 239.96 299.87 C 242.45 294.18 245.11 288.56 248.04 283.08 Z" />
</g>
<g id="#ff5c00ff">
<path fill="#ff5c00" opacity="1.00" d=" M 900.41 283.72 C 906.55 282.28 912.86 283.33 919.09 283.03 C 920.89 286.29 922.56 289.64 924.12 293.03 C 917.86 293.17 911.59 292.89 905.35 293.39 C 903.63 290.20 902.06 286.94 900.41 283.72 Z" />
</g>
<g id="#ff6d00ff">
<path fill="#ff6d00" opacity="1.00" d=" M 905.35 293.39 C 911.59 292.89 917.86 293.17 924.12 293.03 C 926.55 298.61 929.33 304.05 931.54 309.74 C 925.45 309.94 919.35 309.70 913.28 310.26 C 910.65 304.63 908.28 298.87 905.35 293.39 Z" />
</g>
<g id="#ff7100ff">
<path fill="#ff7100" opacity="1.00" d=" M 239.96 299.87 C 246.14 299.94 252.33 299.70 258.50 300.18 C 256.88 303.68 255.31 307.21 253.69 310.72 C 247.74 309.34 241.60 310.18 235.56 309.90 C 236.90 306.51 238.43 303.19 239.96 299.87 Z" />
</g>
<g id="#ff7f00ff">
<path fill="#ff7f00" opacity="1.00" d=" M 235.56 309.90 C 241.60 310.18 247.74 309.34 253.69 310.72 C 252.38 313.64 251.18 316.61 250.01 319.60 C 244.04 318.70 237.99 319.15 231.98 319.06 C 233.17 316.00 234.38 312.96 235.56 309.90 Z" />
<path fill="#ff7f00" opacity="1.00" d=" M 913.28 310.26 C 919.35 309.70 925.45 309.94 931.54 309.74 C 932.76 312.83 933.99 315.93 935.19 319.04 C 929.20 319.33 923.12 318.29 917.24 319.77 C 915.98 316.57 914.71 313.38 913.28 310.26 Z" />
</g>
<g id="#ff8f00ff">
<path fill="#ff8f00" opacity="1.00" d=" M 231.98 319.06 C 237.99 319.15 244.04 318.70 250.01 319.60 C 247.79 325.25 245.45 330.87 243.68 336.69 C 242.60 335.84 241.53 334.78 240.03 334.94 C 235.50 334.74 230.96 334.98 226.42 334.80 C 228.13 329.50 229.84 324.20 231.98 319.06 Z" />
<path fill="#ff8f00" opacity="1.00" d=" M 917.24 319.77 C 923.12 318.29 929.20 319.33 935.19 319.04 C 937.06 323.98 939.21 328.90 940.26 334.09 L 939.95 334.72 C 934.38 335.20 928.70 334.27 923.23 335.72 C 921.47 330.32 919.33 325.05 917.24 319.77 Z" />
</g>
<g id="#ffa100ff">
<path fill="#ffa100" opacity="1.00" d=" M 222.83 345.97 C 223.85 342.19 225.08 338.48 226.42 334.80 C 230.96 334.98 235.50 334.74 240.03 334.94 C 241.53 334.78 242.60 335.84 243.68 336.69 C 242.61 339.83 241.48 342.94 240.48 346.11 C 234.59 345.97 228.71 346.06 222.83 345.97 Z" />
<path fill="#ffa100" opacity="1.00" d=" M 923.23 335.72 C 928.70 334.27 934.38 335.20 939.95 334.72 L 940.70 334.95 C 942.35 338.47 943.25 342.38 944.33 346.14 C 938.46 345.87 932.57 345.96 926.70 346.13 C 925.57 342.65 924.39 339.19 923.23 335.72 Z" />
<path fill="#ffa100" opacity="1.00" d=" M 932.84 539.00 C 933.58 535.70 934.33 532.40 935.09 529.10 C 940.69 530.86 946.59 529.76 952.35 529.98 C 951.64 532.98 950.94 535.98 950.27 538.99 C 944.46 539.04 938.65 538.96 932.84 539.00 Z" />
<path fill="#ffa100" opacity="1.00" d=" M 214.84 529.89 C 220.63 530.08 226.43 529.94 232.23 529.98 C 232.94 533.00 233.65 536.03 234.34 539.07 C 228.52 539.03 222.71 539.01 216.90 539.03 C 216.18 535.99 215.44 532.95 214.84 529.89 Z" />
</g>
<g id="#ffb000ff">
<path fill="#ffb000" opacity="1.00" d=" M 222.83 345.97 C 228.71 346.06 234.59 345.97 240.48 346.11 C 239.34 349.76 238.35 353.47 237.27 357.15 C 231.42 356.93 225.55 356.91 219.70 357.12 C 220.65 353.38 221.78 349.69 222.83 345.97 Z" />
</g>
<g id="#ffb200ff">
<path fill="#ffb200" opacity="1.00" d=" M 926.70 346.13 C 932.57 345.96 938.46 345.87 944.33 346.14 C 945.59 349.95 946.62 353.83 947.57 357.73 C 941.80 358.11 936.01 357.85 930.25 358.33 C 929.05 354.27 927.96 350.17 926.70 346.13 Z" />
</g>
<g id="#ffc000ff">
<path fill="#ffc000" opacity="1.00" d=" M 212.85 519.04 C 203.38 465.43 205.74 409.73 219.70 357.12 C 225.55 356.91 231.42 356.93 237.27 357.15 C 222.73 409.41 220.21 465.00 229.97 518.36 C 224.31 519.32 218.56 519.05 212.85 519.04 Z" />
<path fill="#ffc000" opacity="1.00" d=" M 930.25 358.33 C 936.01 357.85 941.80 358.11 947.57 357.73 L 947.82 357.72 C 961.26 410.22 963.85 465.57 954.32 518.97 C 948.56 519.04 942.81 519.04 937.06 519.05 C 946.91 465.88 944.57 410.48 930.25 358.33 Z" />
</g>
<g id="#d1d1d1ff">
<path fill="#d1d1d1" opacity="1.00" d=" M 691.06 398.35 C 692.27 397.85 693.46 399.80 692.78 400.80 C 691.54 401.34 690.26 399.33 691.06 398.35 Z" />
</g>
<g id="#d9d9d9ff">
<path fill="#d9d9d9" opacity="1.00" d=" M 692.69 401.54 C 696.31 404.21 698.32 408.57 700.10 412.60 C 696.78 409.62 694.69 405.46 692.69 401.54 Z" />
</g>
<g id="#ddddddff">
<path fill="#dddddd" opacity="1.00" d=" M 699.65 412.68 C 703.35 415.11 705.22 419.65 707.28 423.47 C 703.79 420.71 701.80 416.49 699.65 412.68 Z" />
</g>
<g id="#e0e0e0ff">
<path fill="#e0e0e0" opacity="1.00" d=" M 706.61 423.56 C 710.50 425.93 712.21 430.58 714.29 434.45 C 710.63 431.82 708.98 427.27 706.61 423.56 Z" />
<path fill="#e0e0e0" opacity="1.00" d=" M 714.28 435.28 C 715.78 434.98 717.34 437.33 716.78 438.69 C 715.23 438.90 713.73 436.67 714.28 435.28 Z" />
</g>
<g id="#c7c7c7ff">
<path fill="#c7c7c7" opacity="1.00" d=" M 718.30 441.27 C 718.78 441.79 718.78 441.79 718.30 441.27 Z" />
</g>
<g id="#cececeff">
<path fill="#cecece" opacity="1.00" d=" M 720.18 444.27 C 720.70 444.76 720.70 444.76 720.18 444.27 Z" />
</g>
<g id="#cdcdcdff">
<path fill="#cdcdcd" opacity="1.00" d=" M 726.28 453.26 C 726.78 453.76 726.78 453.76 726.28 453.26 Z" />
</g>
<g id="#ffaf00ff">
<path fill="#ffaf00" opacity="1.00" d=" M 212.85 519.04 C 218.56 519.05 224.31 519.32 229.97 518.36 C 230.64 522.25 231.31 526.14 232.23 529.98 C 226.43 529.94 220.63 530.08 214.84 529.89 C 213.96 526.31 213.52 522.65 212.85 519.04 Z" />
<path fill="#ffaf00" opacity="1.00" d=" M 937.06 519.05 C 942.81 519.04 948.56 519.04 954.32 518.97 C 953.68 522.64 953.02 526.31 952.35 529.98 C 946.59 529.76 940.69 530.86 935.09 529.10 C 935.84 525.76 936.46 522.41 937.06 519.05 Z" />
</g>
<g id="#727272ff">
<path fill="#727272" opacity="1.00" d=" M 404.12 533.40 C 407.40 533.57 402.54 536.43 404.12 533.40 Z" />
</g>
<g id="#ff9200ff">
<path fill="#ff9200" opacity="1.00" d=" M 216.90 539.03 C 222.71 539.01 228.52 539.03 234.34 539.07 C 235.04 542.15 235.84 545.21 236.73 548.25 C 231.07 549.71 225.21 548.61 219.46 549.16 L 219.26 549.17 C 218.46 545.79 217.67 542.41 216.90 539.03 Z" />
<path fill="#ff9200" opacity="1.00" d=" M 932.84 539.00 C 938.65 538.96 944.46 539.04 950.27 538.99 C 949.51 542.33 948.75 545.67 947.92 548.99 C 942.05 548.89 936.18 549.21 930.32 548.78 C 931.27 545.55 932.11 542.29 932.84 539.00 Z" />
</g>
<g id="#ff8400ff">
<path fill="#ff8400" opacity="1.00" d=" M 236.73 548.25 C 237.66 551.47 238.56 554.70 239.49 557.92 C 233.63 558.15 227.76 558.12 221.90 558.05 C 220.99 555.11 220.15 552.15 219.46 549.16 C 225.21 548.61 231.07 549.71 236.73 548.25 Z" />
<path fill="#ff8400" opacity="1.00" d=" M 927.72 557.81 C 928.58 554.80 929.44 551.79 930.32 548.78 C 936.18 549.21 942.05 548.89 947.92 548.99 C 947.04 551.99 946.17 555.00 945.30 558.00 C 939.44 558.06 933.57 558.08 927.72 557.81 Z" />
</g>
<g id="#9f9f9fff">
<path fill="#9f9f9f" opacity="1.00" d=" M 625.13 550.44 C 628.40 550.74 623.48 553.39 625.13 550.44 Z" />
</g>
<g id="#ff7300ff">
<path fill="#ff7300" opacity="1.00" d=" M 221.90 558.05 C 227.76 558.12 233.63 558.15 239.49 557.92 C 241.08 563.22 242.92 568.43 244.63 573.68 C 238.70 573.97 232.77 573.79 226.84 573.86 C 225.06 568.63 223.30 563.40 221.90 558.05 Z" />
</g>
<g id="#ff7700ff">
<path fill="#ff7700" opacity="1.00" d=" M 925.06 566.20 C 925.99 563.42 926.91 560.63 927.72 557.81 C 933.57 558.08 939.44 558.06 945.30 558.00 C 944.43 561.08 943.53 564.16 942.67 567.24 L 942.44 567.23 C 936.64 566.79 930.71 567.87 925.06 566.20 Z" />
</g>
<g id="#ff6300ff">
<path fill="#ff6300" opacity="1.00" d=" M 918.38 584.63 C 920.92 578.60 922.98 572.39 925.06 566.20 C 930.71 567.87 936.64 566.79 942.44 567.23 C 940.79 573.18 938.53 578.94 936.67 584.82 L 936.43 584.82 C 930.41 584.97 924.39 584.92 918.38 584.63 Z" />
</g>
<g id="#ff5f00ff">
<path fill="#ff5f00" opacity="1.00" d=" M 226.84 573.86 C 232.77 573.79 238.70 573.97 244.63 573.68 C 245.59 576.56 246.71 579.38 247.84 582.20 C 241.96 583.71 235.86 582.86 229.87 582.96 C 228.85 579.93 227.83 576.90 226.84 573.86 Z" />
</g>
<g id="#ff5000ff">
<path fill="#ff5000" opacity="1.00" d=" M 247.84 582.20 C 249.20 585.54 250.49 588.90 251.84 592.25 C 245.94 593.61 239.87 592.88 233.88 593.07 C 232.52 589.71 231.20 586.33 229.87 582.96 C 235.86 582.86 241.96 583.71 247.84 582.20 Z" />
</g>
<g id="#ff4d00ff">
<path fill="#ff4d00" opacity="1.00" d=" M 914.13 595.16 C 915.63 591.68 916.96 588.14 918.38 584.63 C 924.39 584.92 930.41 584.97 936.43 584.82 C 935.21 588.63 933.60 592.30 932.16 596.03 C 926.15 595.78 920.01 596.81 914.13 595.16 Z" />
</g>
<g id="#ff3b00ff">
<path fill="#ff3b00" opacity="1.00" d=" M 908.42 607.75 C 910.35 603.56 912.23 599.36 914.13 595.16 C 920.01 596.81 926.15 595.78 932.16 596.03 C 930.65 600.09 928.79 604.02 926.99 607.95 C 920.79 608.03 914.60 608.29 908.42 607.75 Z" />
</g>
<g id="#ff3100ff">
<path fill="#ff3100" opacity="1.00" d=" M 237.92 602.99 C 244.11 602.94 250.30 603.26 256.48 602.76 C 258.37 607.00 260.33 611.21 262.53 615.30 C 256.41 616.80 250.10 615.82 243.89 616.09 C 241.90 611.72 239.93 607.34 237.92 602.99 Z" />
</g>
<g id="#ff2900ff">
<path fill="#ff2900" opacity="1.00" d=" M 901.76 620.98 C 904.02 616.59 906.27 612.19 908.42 607.75 C 914.60 608.29 920.79 608.03 926.99 607.95 C 924.99 612.48 922.91 616.97 920.62 621.35 C 914.34 620.77 908.04 621.08 901.76 620.98 Z" />
</g>
<g id="#ff1b00ff">
<path fill="#ff1b00" opacity="1.00" d=" M 262.53 615.30 C 265.13 620.34 267.58 625.46 270.53 630.31 C 264.29 631.91 257.82 630.80 251.47 631.11 C 249.08 626.03 246.31 621.15 243.89 616.09 C 250.10 615.82 256.41 616.80 262.53 615.30 Z" />
</g>
<g id="#ff1400ff">
<path fill="#ff1400" opacity="1.00" d=" M 901.76 620.98 C 908.04 621.08 914.34 620.77 920.62 621.35 C 918.32 626.02 915.92 630.64 913.44 635.21 C 907.08 634.70 900.65 635.56 894.36 634.30 C 896.88 629.89 899.46 625.51 901.76 620.98 Z" />
</g>
<g id="#fe0101ff">
<path fill="#fe0101" opacity="1.00" d=" M 270.53 630.31 C 274.71 637.74 279.23 644.97 283.88 652.12 C 277.58 653.78 271.02 652.15 264.67 653.44 L 264.53 653.46 C 259.94 646.15 255.69 638.63 251.47 631.11 C 257.82 630.80 264.29 631.91 270.53 630.31 Z" />
</g>
<g id="#fa0102ff">
<path fill="#fa0102" opacity="1.00" d=" M 881.29 655.22 C 885.77 648.32 890.33 641.47 894.36 634.30 C 900.65 635.56 907.08 634.70 913.44 635.21 C 909.45 642.20 905.58 649.27 901.03 655.92 C 894.45 655.61 887.79 656.56 881.29 655.22 Z" />
</g>
<g id="#e3020bff">
<path fill="#e3020b" opacity="1.00" d=" M 283.88 652.12 C 287.70 657.89 291.73 663.52 295.81 669.12 C 289.27 670.99 282.42 669.53 275.74 670.16 C 271.75 664.79 268.07 659.19 264.67 653.44 C 271.02 652.15 277.58 653.78 283.88 652.12 Z" />
</g>
<g id="#df030dff">
<path fill="#df030d" opacity="1.00" d=" M 868.60 672.68 C 873.12 667.07 877.07 661.05 881.29 655.22 C 887.79 656.56 894.45 655.61 901.03 655.92 C 897.45 661.91 893.37 667.57 889.27 673.21 C 882.38 672.71 875.47 673.36 868.60 672.68 Z" />
</g>
<g id="#cc0414ff">
<path fill="#cc0414" opacity="1.00" d=" M 295.81 669.12 C 299.84 674.10 303.65 679.25 307.76 684.17 C 300.90 685.97 293.77 684.58 286.78 685.03 C 282.85 680.26 279.20 675.27 275.74 670.16 C 282.42 669.53 289.27 670.99 295.81 669.12 Z" />
</g>
<g id="#c70516ff">
<path fill="#c70516" opacity="1.00" d=" M 855.15 689.11 C 859.91 683.86 864.19 678.22 868.60 672.68 C 875.47 673.36 882.38 672.71 889.27 673.21 C 885.34 679.16 880.75 684.63 876.34 690.21 C 869.29 689.27 862.06 691.02 855.15 689.11 Z" />
</g>
<g id="#b8061dff">
<path fill="#b8061d" opacity="1.00" d=" M 307.76 684.17 C 312.00 688.93 315.98 693.92 320.46 698.45 C 313.27 699.72 305.96 698.34 298.76 699.46 L 298.58 699.48 C 294.54 694.75 290.47 690.04 286.78 685.03 C 293.77 684.58 300.90 685.97 307.76 684.17 Z" />
</g>
<g id="#b2071fff">
<path fill="#b2071f" opacity="1.00" d=" M 843.27 702.19 C 847.38 697.97 851.27 693.54 855.15 689.11 C 862.06 691.02 869.29 689.27 876.34 690.21 C 872.97 694.79 869.05 698.92 865.30 703.18 C 857.96 702.40 850.51 703.85 843.27 702.19 Z" />
</g>
<g id="#a40824ff">
<path fill="#a40824" opacity="1.00" d=" M 320.46 698.45 C 325.45 703.53 330.20 708.85 335.45 713.67 C 327.61 714.25 319.74 713.86 311.89 713.92 C 307.17 709.44 302.78 704.58 298.76 699.46 C 305.96 698.34 313.27 699.72 320.46 698.45 Z" />
</g>
<g id="#a10825ff">
<path fill="#a10825" opacity="1.00" d=" M 832.26 713.20 C 836.06 709.66 839.65 705.91 843.27 702.19 C 850.51 703.85 857.96 702.40 865.30 703.18 C 862.17 707.00 858.86 710.70 855.19 714.00 C 847.56 713.64 839.79 714.81 832.26 713.20 Z" />
</g>
<g id="#91092cff">
<path fill="#91092c" opacity="1.00" d=" M 821.36 723.22 C 825.12 720.02 828.63 716.54 832.26 713.20 C 839.79 714.81 847.56 713.64 855.19 714.00 C 852.17 717.63 848.95 721.17 845.18 724.03 C 837.25 723.62 829.19 724.86 821.36 723.22 Z" />
</g>
<g id="#90092dff">
<path fill="#90092d" opacity="1.00" d=" M 311.89 713.92 C 319.74 713.86 327.61 714.25 335.45 713.67 C 339.71 717.67 343.95 721.69 348.42 725.46 C 340.31 726.57 332.09 725.87 323.93 725.90 C 319.58 722.28 315.56 718.22 311.89 713.92 Z" />
</g>
<g id="#840a31ff">
<path fill="#840a31" opacity="1.00" d=" M 809.48 733.34 C 813.56 730.11 817.35 726.54 821.36 723.22 C 829.19 724.86 837.25 723.62 845.18 724.03 C 841.80 727.65 838.31 731.27 834.28 734.17 C 826.02 733.45 817.66 734.79 809.48 733.34 Z" />
</g>
<g id="#820a31ff">
<path fill="#820a31" opacity="1.00" d=" M 348.42 725.46 C 351.88 728.36 355.22 731.40 358.78 734.18 C 350.61 735.91 342.15 734.62 333.86 735.06 C 330.21 732.41 327.01 729.17 323.93 725.90 C 332.09 725.87 340.31 726.57 348.42 725.46 Z" />
</g>
<g id="#780b36ff">
<path fill="#780b36" opacity="1.00" d=" M 799.41 741.24 C 802.74 738.58 806.05 735.88 809.48 733.34 C 817.66 734.79 826.02 733.45 834.28 734.17 C 831.45 736.97 828.54 739.73 825.27 742.01 C 816.65 741.62 807.92 742.83 799.41 741.24 Z" />
</g>
<g id="#750b36ff">
<path fill="#750b36" opacity="1.00" d=" M 358.78 734.18 C 362.80 737.11 366.57 740.34 370.57 743.30 C 361.84 744.96 352.87 743.83 344.04 743.93 C 340.48 741.18 337.06 738.22 333.86 735.06 C 342.15 734.62 350.61 735.91 358.78 734.18 Z" />
</g>
<g id="#6c0c3bff">
<path fill="#6c0c3b" opacity="1.00" d=" M 787.04 750.09 C 791.15 747.14 795.28 744.19 799.41 741.24 C 807.92 742.83 816.65 741.62 825.27 742.01 C 821.88 745.42 817.98 748.31 814.05 751.06 C 807.72 751.48 801.38 751.05 795.05 751.27 C 792.32 751.42 789.60 751.03 787.04 750.09 Z" />
</g>
<g id="#640d3eff">
<path fill="#640d3e" opacity="1.00" d=" M 370.57 743.30 C 377.83 748.38 385.08 753.50 392.56 758.26 C 383.11 759.95 373.42 758.52 363.87 759.00 C 356.84 754.60 350.44 749.19 344.04 743.93 C 352.87 743.83 361.84 744.96 370.57 743.30 Z" />
</g>
<g id="#550e44ff">
<path fill="#550e44" opacity="1.00" d=" M 749.61 772.59 C 762.52 765.83 774.93 758.18 787.04 750.09 C 789.60 751.03 792.32 751.42 795.05 751.27 C 801.38 751.05 807.72 751.48 814.05 751.06 C 807.65 756.75 800.33 761.26 793.40 766.25 C 789.70 768.42 786.32 771.23 782.40 772.97 C 771.47 772.56 760.53 773.08 749.61 772.59 Z" />
</g>
<g id="#4f0f46ff">
<path fill="#4f0f46" opacity="1.00" d=" M 392.56 758.26 C 400.72 763.17 408.94 768.00 417.38 772.41 C 406.55 773.60 395.61 772.63 384.74 773.01 C 377.42 768.98 370.39 764.24 363.87 759.00 C 373.42 758.52 383.11 759.95 392.56 758.26 Z" />
</g>
<g id="#40104cff">
<path fill="#40104c" opacity="1.00" d=" M 417.38 772.41 C 459.94 794.73 507.03 808.25 554.94 811.93 C 621.82 817.46 690.11 803.62 749.61 772.59 C 760.53 773.08 771.47 772.56 782.40 772.97 C 779.85 775.37 776.67 776.89 773.67 778.63 C 726.15 806.56 672.36 823.79 617.44 828.55 C 545.38 835.12 471.45 820.53 407.57 786.43 C 399.87 782.14 391.86 778.22 384.74 773.01 C 395.61 772.63 406.55 773.60 417.38 772.41 Z" />
</g>
</svg>
