<svg version="1.1"
      xmlns="http://www.w3.org/2000/svg"
      xmlns:xlink="http://www.w3.org/1999/xlink"  id="snapshot-83131" width="250" height="250" viewBox="0 0 250 250"><desc>This image was made on Patterninja.com</desc><defs>
<!-- image 21464 -->
<g id="transformed-21464" data-image="21464" transform="translate(61.5, 177.75) rotate(340, 187.5, 53.25000000000001)"><g><svg version="1.1" width="375px" height="106.50000000000001px" viewBox="0 0 375 106.50000000000001"><g id="original-21464"><svg xmlns="http://www.w3.org/2000/svg" viewBox="0 0 503 144" xmlns:xlink="http://www.w3.org/1999/xlink" version="1.1" preserveAspectRatio="xMidYMid meet">
  <path d="M172.55 4.17c8.6.02 17.2.01 25.81 0-.1 41.61-.02 83.22-.04 124.83h-25.73c-.03-41.61.07-83.22-.04-124.83z" fill="rgba(0, 0, 0, 1)" stroke="none"/>
  <path d="M127.88 26.91c8.57-.01 17.15.02 25.72-.01v27.62c5.22.01 10.43-.01 15.65.01.02 6.54.01 13.09 0 19.64-5.21.04-10.42.02-15.64.01-.07 7.93-.17 15.86-.07 23.78.18 3.29.31 7.24 3.14 9.46 3.1 1.54 6.42-.03 9.14-1.6 2.05 6.95 4.37 13.81 6.28 20.8-10.02 4.88-22.63 6.68-32.73 1.1-7.97-4.46-11.07-14.03-11.38-22.67-.25-10.28-.04-20.57-.11-30.86H117c0-6.56-.01-13.11.01-19.67h10.87c0-9.2-.01-18.4 0-27.61z" fill="rgba(0, 0, 0, 1)" stroke="none"/>
  <path d="M40.48 61.48c13.02-12.1 35.17-11.89 48.19.13-.01-2.35 0-4.71.01-7.06 8.57-.01 17.14 0 25.71 0 0 24.83.01 49.66 0 74.49-8.48.03-16.96.01-25.44.01 0-2.92 0-5.83.02-8.75-7.28 7.83-18.32 12.04-28.96 10.62-7.9-.78-15.35-4.53-21.03-10.01-15.8-15.66-15.38-44.7 1.5-59.43m24.87 14.14c-9.72 3.47-13.39 16.09-8.73 24.87 5.1 10.54 21.62 11.73 28.76 2.73 4.5-5.55 5.04-13.87 1.64-20.1-3.85-7.6-13.94-10.7-21.67-7.5z" fill="rgba(0, 0, 0, 1)" stroke="none"/>
  <path d="M238.18 53.18c12.44-2 25.77.28 36.28 7.39 9.28 6.02 15.87 16.31 16.73 27.42 1.1 11.05-2.56 22.82-10.76 30.51-14.57 13.99-37.94 16.02-55.92 7.87-9.46-4.24-17.35-12.43-20.43-22.43-3.9-12.52-1.61-27.42 7.83-36.93 6.68-7.66 16.4-12.08 26.27-13.83m2.17 22.41c-10.8 3.77-14.04 18.65-7.3 27.38 6.42 8.22 20.59 8.46 27.16.3 6.48-7.72 4.75-21.17-4.13-26.33-4.68-2.95-10.6-3.17-15.73-1.35z" fill="rgba(0, 0, 0, 1)" stroke="none"/>
  <path d="M343.28 65.35c6.94-7.39 16.75-11.76 26.77-12.73 11.61-.56 24.17 2.33 32.54 10.87 8.27 8.26 11.03 20.53 10.49 31.89-18.01.01-36.02-.02-54.04.01.16 5 2.29 10.17 6.79 12.74 8.95 5.23 21.2 2.52 27.5-5.61 6.14 3.11 12.31 6.16 18.45 9.25-4.97 8.35-13.1 14.8-22.53 17.29-13.46 3.9-28.89 2.63-40.39-5.83-9.88-7.12-16.59-18.92-16.46-31.22-.13-9.88 4.12-19.56 10.88-26.66m20.99 6.87c-2.81 2.1-4.11 5.52-4.52 8.89 9.46.02 18.92.03 28.37 0-.48-1.8-1.05-3.58-1.72-5.32-4.45-7.51-15.47-8.67-22.13-3.57z" fill="rgba(0, 0, 0, 1)" stroke="none"/>
  <path d="M431.84 55.57c13.69-5.12 29.31-3.49 42.42 2.62-2.76 5.62-5.58 11.21-8.39 16.81-6.74-2.97-14.3-5.78-21.73-3.95-3.08.71-3.68 5.29-1.15 7.01 2.52 1.82 5.62 2.55 8.53 3.55 7.01 2.15 14.34 4.91 19.24 10.63 5.12 5.84 5.65 14.4 3.7 21.62-2.05 7.31-8.51 12.69-15.63 14.79-15.71 4.71-34.18 3.21-47.23-7.41 3.45-5.87 6.96-11.7 10.43-17.57 6.48 4.86 14.4 10.13 22.9 7.98 4.03-.94 4.7-6.92 1.07-8.82-7.42-3.84-16.02-5.77-22.26-11.65-5.49-4.16-7.71-11.59-6.54-18.23.89-8.09 7.18-14.66 14.64-17.38z" fill="rgba(0, 0, 0, 1)" stroke="none"/>
  <path d="M307.52 98.6c9.9-3.05 20.83 5.09 20.89 15.41.7 10.16-9.44 18.9-19.37 16.91-8.32-1.26-14.69-9.5-13.66-17.88.55-6.71 5.49-12.9 12.14-14.44z" fill="rgba(0, 0, 0, 1)" stroke="none"/>
</svg>
</g></svg></g></g>
<!-- /image 21464 -->

<!-- image 51971 -->
<g id="transformed-51971" data-image="51971" transform="translate(-66.06979742315619, 42.72884890688455) rotate(341, 76.06979742315619, 81.27115109311545)"><g><svg version="1.1" width="152.13959484631238px" height="162.5423021862309px" viewBox="0 0 152.13959484631238 162.5423021862309"><g id="original-51971"><svg xmlns="http://www.w3.org/2000/svg" viewBox="0 0 302 322" xmlns:xlink="http://www.w3.org/1999/xlink" version="1.1" preserveAspectRatio="xMidYMid meet">
  <path d="M151.88 32.03c3.29-4.77 5.71-10.22 10.05-14.19 7.34 11.72 14.74 23.39 22.19 35.03 4.37 6.76 8.47 13.7 13.28 20.16 7.9-13.47 17.95-25.55 25.91-38.99 12.01 16.94 23.66 34.13 35.37 51.27 2.5 3.6 4.65 7.5 7.92 10.49 5.38-8.34 11.07-16.47 16.33-24.88.92-1.48 1.98-2.87 3.16-4.16.54 9.12.03 18.25.27 27.37.65 7.49-6.99 12.13-8.74 18.73 2.78 5.07 7.3 9.19 8.8 14.93-.37 22.22.18 44.45-.28 66.66-11.19-15.1-21.6-30.77-32.2-46.29-1.57 2.21-3.12 4.44-4.64 6.68 11.21 17.13 22.11 34.44 33.26 51.6 1.83 2.89 3.91 5.96 3.76 9.54-.01 9.48.07 18.96-.14 28.43-1.51-1.77-2.95-3.58-4.37-5.42 1.21.36 2.41.73 3.62 1.1-.07-5.01-.89-9.98-.95-14.99-.38.42-1.13 1.28-1.5 1.7-9.42-15.64-20.15-30.42-29.95-45.82-2.73-3.98-5.68-7.79-8.21-11.91-1.46-2.05-3.17-4.65-5.95-4.77-2.58-.26-4.46 1.92-5.61 3.94-2.73 4.82-5.15 9.97-5.55 15.57 3.4-4.29 5.81-9.58 10.48-12.72-1.99 4.24-4.86 7.97-7.37 11.91-12.48 19.34-25.59 38.26-38.13 57.57-10.31 15.48-20.29 31.2-30.73 46.6-3.14-3.35-5.37-7.39-7.91-11.18-23.09-35.09-46.01-70.29-69.03-105.43-1.24 1.57-2.45 3.15-3.53 4.84-11.98 18.71-24.05 37.37-36.06 56.07-2.54 4.03-5.08 8.07-8.1 11.77-.76-8.08-.32-16.2-.47-24.3.08-3.19-.53-6.75 1.59-9.45 12.05-18.39 23.88-36.93 35.91-55.33-1.64-2.3-3.3-4.58-5-6.83-10.87 15.44-21.3 31.19-31.93 46.79-.3-6.02-.51-12.06-.16-18.08.06-17.01.15-34.02.03-51.02 2.91-3.98 6.11-7.81 8.4-12.18-1.63-5.85-7.22-9.84-8.64-15.79-.76-10.27.52-20.57-.22-30.84 7.43 9.58 13.57 20.05 20.18 30.19 1.49-1.17 2.77-6.57 4.66-2.44-.5-1.93-.49-3.9.86-5.44C74.44 70.79 86.27 53 98.72 35.64c.93-1.66 2.7.35 3.33 1.31 8.43 11.82 16.23 24.08 24.42 36.07 7.68-14.13 17-27.29 25.41-40.99m4.44 13.26c-6.27 7.72-10.35 16.87-15.75 25.17-2.92 5.58-7.06 11.36-6.15 17.97 5.38-4.68 8.42-11.3 12.68-16.91l1.82.04c-3.82 5.81-7.52 11.7-11.46 17.43 8.21 11.51 15.36 23.78 24.38 34.69 8-9.56 13.7-20.86 21.68-30.43-.25 2.04-.65 4.06-1.1 6.06 3.46-3.5 7.6-7.17 8.32-12.32-1.91-7.18-6.54-13.25-10.35-19.53-4.62-7.06-8.74-14.44-13.58-21.34-2.1-3.56-7.98-4.24-10.49-.83m-59.95 1.25c.72-.3 2.17-.89 2.9-1.19 4.27 3.91 7.39 8.85 11.09 13.27 4.09 4.89 7.15 10.92 12.89 14.17-2.05-3.51-5.17-6.21-7.51-9.5-3.5-4.82-7.28-9.43-10.86-14.18-1.32-1.64-2.56-3.44-4.33-4.62-1.66-.21-2.84 1.35-4.18 2.05M38.29 70.6c-.96 6.76 1.51 13.81 6.74 18.25 3.42 2.81 5.43 7.39 9.92 8.75-3.41-4.08-7.05-7.95-10.87-11.63-4.09-4.09-4.58-10.04-5.79-15.37m243.47 8.99c-4.78 6.51-8.12 14.37-14.9 19.16 2.16-.42 4.27-1.31 5.43-3.3 4.44-6.3 8.34-12.98 13.12-19.05-1.35.9-2.71 1.84-3.65 3.19m-7.11 23.98c-2.76 3-3.19 7.7-1.16 11.2 3.12 5.63 5.65 11.96 11.28 15.61.8-7.19-6.22-11.53-8.45-17.78 2.26-6.62 9.45-11.29 9.18-18.85-5.32.82-7.75 6.1-10.85 9.82M38.57 93.75c-.43 5.32 3.1 9.62 6.83 12.91-.29-5.1-2.37-10.1-6.83-12.91m177 17.59c5.84 9.15 12.08 18.04 17.91 27.2 1.06 1.78 3.02 2.59 4.79 3.47-5.46-11.66-14.22-21.42-19.82-32.97 1.33-2.49 3.14-4.68 4.86-6.9 7.3 8.43 12.93 18.17 19.31 27.28 2.92 4.12-1.72 8.11-2.95 11.95 4.81-2.26 8.34-6.95 9.02-12.25-4.49-7.91-9.92-15.23-14.99-22.77-2.77-3.96-5.42-8.29-9.65-10.85-6.57.98-12.59 9.62-8.48 15.84m-116.33-6.32c-2.62 2.85-4.4 6.35-6.83 9.36-4.53 5.27-8.13 11.24-12.22 16.85 1.38 2.15 2.88 4.21 4.48 6.21 6.41-9.13 11.88-18.9 18.48-27.89-1.2-1.54-1.56-4.5-3.91-4.53m121.27 3.91c.52 2.3 1.99 4.21 3.23 6.17 4.86 7.27 9.54 14.65 14.13 22.1 2.41-.76 3.79-2.88 5.01-4.93-6.31-9.4-12.48-18.89-19.21-28-1.2 1.44-2.46 2.89-3.16 4.66m-17.64 20.48c2.05-2.14 4.07-4.32 6.21-6.38 8.39 10.21 13.96 22.49 22.36 32.69.14-2.43.79-5.2-.81-7.32-4.96-7.7-10.02-15.33-14.95-23.04-1.75-2.82-4.09-5.18-6.68-7.21-4.49 1.91-5.82 6.82-6.13 11.26m-107.8 24.58c22.36 33.86 44.56 67.83 66.95 101.67 14.06-21.78 28.18-43.54 42.45-65.19 8.24-11.56 15.55-23.75 23.51-35.52-6.24-9.89-12.54-19.73-18.8-29.6-5.29 7.05-10.08 14.47-15.21 21.63-5.93 7.52-10.97 15.67-16.33 23.59-5.23 7.66-10.72 15.16-15.62 23.04-14.94-21.63-29.72-43.38-44.6-65.05-1.04-1.46-2.18-2.83-3.32-4.19-6.23 9.95-12.58 19.82-19.03 29.62m152.98-8.93c-1.96 3.06-4.96 6.75-2.68 10.46 9.08 16.36 19.45 31.97 29.12 47.98 2.54 4.07 5.03 8.75 9.91 10.36-.74-2.23-1.59-4.44-2.89-6.42-11.52-17.43-22.63-35.14-34.22-52.53 1.94-2.82 3.96-5.59 5.74-8.52l1.46.12c8.98 13.06 17.69 26.3 26.54 39.44 1.11 1.58 2.35 3.05 3.59 4.53.06-2.84.27-5.69-.08-8.52-1.4-3.18-3.86-5.74-5.73-8.64-5.51-8.45-10.92-16.98-17.07-24.97-2.21-2.87-4.08-6.5-7.72-7.75-2.68-.02-4.51 2.49-5.97 4.46z" fill="rgba(197, 2, 60, 1)" stroke="none"/>
  <path d="M169.7 183.78c2.35-3.18 4.35-6.84 7.93-8.81-2.43 6.69-6.91 12.41-11.95 17.35-.17-3.42 2.23-5.93 4.02-8.54z" fill="rgba(197, 2, 60, 1)" stroke="none"/>
</svg>
</g></svg></g></g>
<!-- /image 51971 -->
</defs><rect x="0" y="0" width="250" height="250" fill="rgba(255, 255, 255, 1)"></rect><use xlink:href="#transformed-21464" transform="translate(-250, -250)"></use><use xlink:href="#transformed-21464" transform="translate(0, -250)"></use><use xlink:href="#transformed-21464" transform="translate(250, -250)"></use><use xlink:href="#transformed-21464" transform="translate(-250, 0)"></use><use xlink:href="#transformed-21464" transform="translate(0, 0)"></use><use xlink:href="#transformed-21464" transform="translate(250, 0)"></use><use xlink:href="#transformed-21464" transform="translate(-250, 250)"></use><use xlink:href="#transformed-21464" transform="translate(0, 250)"></use><use xlink:href="#transformed-21464" transform="translate(250, 250)"></use><use xlink:href="#transformed-51971" transform="translate(-250, -250)"></use><use xlink:href="#transformed-51971" transform="translate(0, -250)"></use><use xlink:href="#transformed-51971" transform="translate(250, -250)"></use><use xlink:href="#transformed-51971" transform="translate(-250, 0)"></use><use xlink:href="#transformed-51971" transform="translate(0, 0)"></use><use xlink:href="#transformed-51971" transform="translate(250, 0)"></use><use xlink:href="#transformed-51971" transform="translate(-250, 250)"></use><use xlink:href="#transformed-51971" transform="translate(0, 250)"></use><use xlink:href="#transformed-51971" transform="translate(250, 250)"></use></svg>